<?xml version='1.0' encoding='utf-8'?>
<svg xmlns="http://www.w3.org/2000/svg" width="543" height="350" shape-rendering="crispEdges"> <polygon points="273,169 291,173 277,163" style="fill:rgb(102,106,63)"/> <polygon points="273,169 282,181 291,173" style="fill:rgb(89,145,148)"/> <polygon points="291,173 291,163 277,163" style="fill:rgb(78,78,46)"/> <polygon points="291,173 296,162 291,163" style="fill:rgb(175,166,96)"/> <polygon points="291,163 287,146 277,163" style="fill:rgb(196,179,30)"/> <polygon points="273,169 269,181 282,181" style="fill:rgb(65,85,96)"/> <polygon points="296,162 296,159 291,163" style="fill:rgb(90,102,73)"/> <polygon points="282,195 303,183 282,181" style="fill:rgb(168,185,37)"/> <polygon points="282,181 303,183 291,173" style="fill:rgb(182,199,133)"/> <polygon points="291,173 303,183 296,162" style="fill:rgb(65,69,54)"/> <polygon points="296,162 354,172 296,159" style="fill:rgb(116,122,78)"/> <polygon points="269,181 282,195 282,181" style="fill:rgb(54,53,42)"/> <polygon points="296,159 287,146 291,163" style="fill:rgb(171,158,49)"/> <polygon points="277,163 257,159 273,169" style="fill:rgb(61,58,37)"/> <polygon points="265,143 257,159 277,163" style="fill:rgb(166,159,15)"/> <polygon points="273,169 257,159 269,181" style="fill:rgb(70,112,119)"/> <polygon points="296,159 295,141 287,146" style="fill:rgb(191,200,72)"/> <polygon points="287,146 265,143 277,163" style="fill:rgb(177,182,40)"/> <polygon points="298,126 352,106 313,106" style="fill:rgb(73,111,9)"/> <polygon points="278,134 265,143 287,146" style="fill:rgb(183,199,98)"/> <polygon points="282,195 297,204 303,183" style="fill:rgb(156,170,10)"/> <polygon points="295,141 278,134 287,146" style="fill:rgb(192,206,113)"/> <polygon points="253,203 262,206 269,181" style="fill:rgb(43,32,9)"/> <polygon points="269,181 262,206 282,195" style="fill:rgb(27,29,10)"/> <polygon points="282,195 279,219 297,204" style="fill:rgb(161,180,11)"/> <polygon points="233,167 253,203 269,181" style="fill:rgb(32,34,15)"/> <polygon points="280,120 269,129 278,134" style="fill:rgb(201,219,16)"/> <polygon points="278,134 269,129 265,143" style="fill:rgb(196,213,88)"/> <polygon points="235,140 233,167 257,159" style="fill:rgb(83,72,27)"/> <polygon points="298,126 295,141 362,164" style="fill:rgb(200,220,22)"/> <polygon points="295,141 298,126 278,134" style="fill:rgb(199,217,35)"/> <polygon points="274,220 279,219 262,206" style="fill:rgb(87,83,16)"/> <polygon points="262,206 279,219 282,195" style="fill:rgb(41,43,11)"/> <polygon points="279,219 297,217 297,204" style="fill:rgb(149,160,11)"/> <polygon points="297,204 318,230 303,183" style="fill:rgb(61,69,31)"/> <polygon points="235,140 257,159 265,143" style="fill:rgb(138,146,13)"/> <polygon points="257,159 233,167 269,181" style="fill:rgb(121,118,93)"/> <polygon points="261,224 274,220 262,206" style="fill:rgb(179,118,32)"/> <polygon points="279,219 284,243 297,217" style="fill:rgb(148,156,16)"/> <polygon points="298,126 280,120 278,134" style="fill:rgb(187,213,7)"/> <polygon points="264,116 245,130 269,129" style="fill:rgb(196,214,25)"/> <polygon points="269,129 245,130 265,143" style="fill:rgb(191,209,41)"/> <polygon points="245,130 235,140 265,143" style="fill:rgb(170,192,30)"/> <polygon points="253,203 261,224 262,206" style="fill:rgb(169,120,67)"/> <polygon points="274,220 271,234 279,219" style="fill:rgb(170,111,35)"/> <polygon points="242,226 261,224 253,203" style="fill:rgb(97,113,57)"/> <polygon points="280,120 264,116 269,129" style="fill:rgb(192,213,10)"/> <polygon points="245,130 229,135 235,140" style="fill:rgb(154,175,50)"/> <polygon points="235,140 207,142 233,167" style="fill:rgb(86,81,24)"/> <polygon points="221,121 229,135 228,113" style="fill:rgb(112,118,48)"/> <polygon points="261,224 271,234 274,220" style="fill:rgb(175,108,36)"/> <polygon points="194,202 228,206 233,167" style="fill:rgb(32,39,14)"/> <polygon points="233,167 228,206 253,203" style="fill:rgb(32,37,16)"/> <polygon points="254,244 271,242 271,234" style="fill:rgb(211,198,74)"/> <polygon points="228,217 242,226 253,203" style="fill:rgb(88,109,43)"/> <polygon points="302,246 318,230 297,217" style="fill:rgb(92,113,54)"/> <polygon points="297,217 318,230 297,204" style="fill:rgb(111,91,42)"/> <polygon points="354,172 295,141 296,159" style="fill:rgb(198,195,81)"/> <polygon points="228,206 228,217 253,203" style="fill:rgb(74,99,44)"/> <polygon points="354,172 296,162 303,183" style="fill:rgb(69,74,70)"/> <polygon points="298,126 313,106 280,120" style="fill:rgb(76,118,3)"/> <polygon points="280,120 284,90 264,116" style="fill:rgb(70,109,2)"/> <polygon points="361,199 354,172 303,183" style="fill:rgb(62,64,59)"/> <polygon points="254,244 271,234 261,224" style="fill:rgb(198,139,61)"/> <polygon points="271,234 284,243 279,219" style="fill:rgb(162,156,50)"/> <polygon points="271,242 284,243 271,234" style="fill:rgb(186,179,72)"/> <polygon points="319,244 324,232 318,230" style="fill:rgb(182,210,140)"/> <polygon points="318,230 361,199 303,183" style="fill:rgb(42,51,22)"/> <polygon points="252,75 244,106 264,116" style="fill:rgb(66,104,2)"/> <polygon points="264,116 244,106 245,130" style="fill:rgb(182,205,20)"/> <polygon points="271,242 289,246 284,243" style="fill:rgb(104,87,20)"/> <polygon points="284,243 289,246 297,217" style="fill:rgb(129,119,43)"/> <polygon points="289,246 302,246 297,217" style="fill:rgb(73,83,33)"/> <polygon points="242,226 254,244 261,224" style="fill:rgb(178,118,35)"/> <polygon points="271,242 256,254 289,246" style="fill:rgb(54,44,9)"/> <polygon points="231,234 254,244 242,226" style="fill:rgb(101,86,10)"/> <polygon points="228,113 229,135 245,130" style="fill:rgb(147,170,22)"/> <polygon points="229,135 207,142 235,140" style="fill:rgb(166,179,79)"/> <polygon points="228,206 217,221 228,217" style="fill:rgb(70,95,24)"/> <polygon points="244,106 228,113 245,130" style="fill:rgb(185,206,12)"/> <polygon points="319,244 332,233 324,232" style="fill:rgb(157,191,121)"/> <polygon points="361,202 361,199 318,230" style="fill:rgb(40,97,127)"/> <polygon points="379,181 362,164 354,172" style="fill:rgb(174,185,71)"/> <polygon points="354,172 362,164 295,141" style="fill:rgb(186,201,83)"/> <polygon points="206,135 207,142 229,135" style="fill:rgb(157,167,80)"/> <polygon points="313,106 284,90 280,120" style="fill:rgb(68,107,2)"/> <polygon points="217,221 231,234 228,217" style="fill:rgb(186,120,28)"/> <polygon points="228,217 231,234 242,226" style="fill:rgb(186,110,21)"/> <polygon points="302,246 319,244 318,230" style="fill:rgb(185,212,123)"/> <polygon points="194,202 217,221 228,206" style="fill:rgb(58,88,17)"/> <polygon points="361,202 318,230 324,232" style="fill:rgb(78,151,177)"/> <polygon points="221,121 206,135 229,135" style="fill:rgb(61,70,18)"/> <polygon points="177,159 194,202 233,167" style="fill:rgb(33,40,17)"/> <polygon points="199,131 206,135 221,121" style="fill:rgb(64,42,14)"/> <polygon points="358,216 361,202 324,232" style="fill:rgb(180,223,162)"/> <polygon points="368,160 367,156 362,164" style="fill:rgb(179,203,13)"/> <polygon points="244,106 228,105 228,113" style="fill:rgb(174,195,8)"/> <polygon points="228,113 218,97 221,121" style="fill:rgb(115,62,57)"/> <polygon points="218,97 228,105 220,95" style="fill:rgb(217,219,115)"/> <polygon points="368,160 362,164 379,181" style="fill:rgb(204,223,33)"/> <polygon points="362,164 367,156 298,126" style="fill:rgb(189,214,10)"/> <polygon points="379,181 354,172 361,199" style="fill:rgb(57,62,61)"/> <polygon points="245,261 256,254 254,244" style="fill:rgb(199,171,21)"/> <polygon points="254,244 256,254 271,242" style="fill:rgb(206,182,38)"/> <polygon points="289,246 302,264 302,246" style="fill:rgb(134,155,51)"/> <polygon points="302,246 302,264 319,244" style="fill:rgb(182,200,104)"/> <polygon points="319,244 344,233 332,233" style="fill:rgb(63,109,160)"/> <polygon points="332,233 358,216 324,232" style="fill:rgb(172,209,130)"/> <polygon points="344,233 358,216 332,233" style="fill:rgb(30,108,183)"/> <polygon points="352,106 319,89 313,106" style="fill:rgb(82,95,39)"/> <polygon points="313,106 319,89 284,90" style="fill:rgb(93,120,46)"/> <polygon points="190,118 199,131 221,121" style="fill:rgb(117,45,15)"/> <polygon points="206,135 199,131 207,142" style="fill:rgb(145,157,64)"/> <polygon points="373,219 368,204 358,216" style="fill:rgb(50,120,183)"/> <polygon points="358,216 368,204 361,202" style="fill:rgb(181,221,156)"/> <polygon points="361,202 368,204 361,199" style="fill:rgb(116,184,189)"/> <polygon points="177,159 233,167 207,142" style="fill:rgb(57,60,29)"/> <polygon points="195,224 234,252 231,234" style="fill:rgb(94,131,61)"/> <polygon points="344,233 356,229 358,216" style="fill:rgb(47,85,171)"/> <polygon points="364,250 356,229 344,233" style="fill:rgb(194,219,97)"/> <polygon points="195,224 231,234 217,221" style="fill:rgb(110,132,68)"/> <polygon points="231,234 234,252 254,244" style="fill:rgb(104,126,56)"/> <polygon points="370,132 352,106 298,126" style="fill:rgb(76,119,4)"/> <polygon points="296,274 289,246 256,254" style="fill:rgb(74,106,40)"/> <polygon points="296,274 302,264 289,246" style="fill:rgb(84,115,53)"/> <polygon points="319,244 319,266 344,233" style="fill:rgb(189,213,111)"/> <polygon points="405,153 370,132 367,156" style="fill:rgb(124,159,42)"/> <polygon points="367,156 370,132 298,126" style="fill:rgb(133,166,39)"/> <polygon points="388,171 367,156 368,160" style="fill:rgb(104,140,15)"/> <polygon points="379,193 379,181 361,199" style="fill:rgb(62,132,189)"/> <polygon points="234,252 245,261 254,244" style="fill:rgb(205,145,36)"/> <polygon points="220,95 228,105 244,106" style="fill:rgb(97,125,10)"/> <polygon points="228,105 218,97 228,113" style="fill:rgb(185,191,140)"/> <polygon points="252,75 220,95 244,106" style="fill:rgb(65,103,2)"/> <polygon points="368,204 379,193 361,199" style="fill:rgb(145,203,179)"/> <polygon points="387,195 379,193 368,204" style="fill:rgb(86,188,206)"/> <polygon points="273,67 252,75 284,90" style="fill:rgb(101,124,61)"/> <polygon points="284,90 252,75 264,116" style="fill:rgb(68,106,4)"/> <polygon points="194,202 195,224 217,221" style="fill:rgb(108,139,76)"/> <polygon points="234,252 233,264 245,261" style="fill:rgb(164,118,25)"/> <polygon points="315,269 319,266 302,264" style="fill:rgb(103,106,11)"/> <polygon points="302,264 319,266 319,244" style="fill:rgb(175,192,71)"/> <polygon points="377,222 373,219 356,229" style="fill:rgb(45,62,63)"/> <polygon points="356,229 373,219 358,216" style="fill:rgb(48,105,180)"/> <polygon points="185,125 185,136 199,131" style="fill:rgb(168,182,86)"/> <polygon points="199,131 185,136 207,142" style="fill:rgb(167,168,64)"/> <polygon points="194,202 175,188 195,224" style="fill:rgb(106,135,73)"/> <polygon points="185,136 181,149 207,142" style="fill:rgb(95,78,27)"/> <polygon points="296,274 315,269 302,264" style="fill:rgb(57,69,29)"/> <polygon points="319,89 273,67 284,90" style="fill:rgb(91,103,60)"/> <polygon points="291,284 296,274 256,254" style="fill:rgb(61,95,17)"/> <polygon points="212,277 233,264 234,252" style="fill:rgb(79,116,33)"/> <polygon points="285,290 291,284 256,254" style="fill:rgb(109,138,79)"/> <polygon points="165,136 177,159 181,149" style="fill:rgb(113,137,78)"/> <polygon points="181,149 177,159 207,142" style="fill:rgb(64,66,31)"/> <polygon points="391,188 379,181 379,193" style="fill:rgb(133,174,166)"/> <polygon points="396,180 388,171 379,181" style="fill:rgb(216,223,74)"/> <polygon points="379,181 388,171 368,160" style="fill:rgb(204,223,43)"/> <polygon points="195,101 190,118 221,121" style="fill:rgb(178,59,11)"/> <polygon points="185,136 165,136 181,149" style="fill:rgb(102,83,13)"/> <polygon points="195,101 221,121 218,97" style="fill:rgb(221,85,38)"/> <polygon points="190,118 185,125 199,131" style="fill:rgb(142,159,51)"/> <polygon points="373,219 387,195 368,204" style="fill:rgb(12,130,224)"/> <polygon points="364,250 377,222 356,229" style="fill:rgb(199,219,79)"/> <polygon points="373,219 395,202 387,195" style="fill:rgb(31,102,153)"/> <polygon points="177,159 175,188 194,202" style="fill:rgb(37,45,17)"/> <polygon points="214,59 206,92 220,95" style="fill:rgb(64,103,2)"/> <polygon points="220,95 206,92 218,97" style="fill:rgb(181,194,79)"/> <polygon points="161,123 167,130 185,125" style="fill:rgb(192,197,94)"/> <polygon points="214,59 220,95 252,75" style="fill:rgb(65,106,2)"/> <polygon points="396,109 359,92 352,106" style="fill:rgb(90,72,35)"/> <polygon points="352,106 359,92 319,89" style="fill:rgb(59,51,23)"/> <polygon points="319,89 301,29 273,67" style="fill:rgb(35,36,15)"/> <polygon points="396,109 352,106 370,132" style="fill:rgb(72,108,10)"/> <polygon points="387,195 391,188 379,193" style="fill:rgb(132,197,196)"/> <polygon points="395,202 391,188 387,195" style="fill:rgb(53,153,196)"/> <polygon points="206,92 195,101 218,97" style="fill:rgb(194,135,69)"/> <polygon points="285,290 256,254 269,296" style="fill:rgb(103,132,67)"/> <polygon points="296,274 309,283 315,269" style="fill:rgb(46,41,20)"/> <polygon points="396,180 396,170 388,171" style="fill:rgb(178,190,108)"/> <polygon points="388,171 405,153 367,156" style="fill:rgb(90,133,63)"/> <polygon points="330,278 364,250 319,266" style="fill:rgb(74,68,12)"/> <polygon points="319,266 364,250 344,233" style="fill:rgb(178,200,61)"/> <polygon points="330,278 319,266 315,269" style="fill:rgb(39,37,10)"/> <polygon points="407,185 396,180 391,188" style="fill:rgb(224,226,102)"/> <polygon points="391,188 396,180 379,181" style="fill:rgb(209,216,85)"/> <polygon points="291,284 309,283 296,274" style="fill:rgb(166,95,31)"/> <polygon points="377,222 395,202 373,219" style="fill:rgb(41,47,33)"/> <polygon points="404,216 395,202 377,222" style="fill:rgb(41,50,20)"/> <polygon points="309,283 330,278 315,269" style="fill:rgb(54,37,16)"/> <polygon points="407,185 400,175 396,180" style="fill:rgb(179,206,164)"/> <polygon points="396,180 400,175 396,170" style="fill:rgb(137,204,209)"/> <polygon points="396,170 405,153 388,171" style="fill:rgb(49,137,199)"/> <polygon points="269,296 256,254 245,261" style="fill:rgb(94,126,61)"/> <polygon points="291,284 297,295 309,283" style="fill:rgb(162,93,19)"/> <polygon points="309,283 329,285 330,278" style="fill:rgb(149,96,56)"/> <polygon points="161,123 185,125 167,104" style="fill:rgb(169,194,64)"/> <polygon points="185,125 167,130 185,136" style="fill:rgb(198,198,108)"/> <polygon points="153,168 157,190 175,188" style="fill:rgb(82,108,53)"/> <polygon points="167,130 165,136 185,136" style="fill:rgb(116,99,27)"/> <polygon points="388,240 387,234 364,250" style="fill:rgb(154,173,13)"/> <polygon points="364,250 387,234 377,222" style="fill:rgb(192,215,69)"/> <polygon points="320,296 329,285 309,283" style="fill:rgb(187,150,91)"/> <polygon points="330,278 366,263 364,250" style="fill:rgb(54,40,17)"/> <polygon points="329,285 336,282 330,278" style="fill:rgb(137,130,120)"/> <polygon points="404,216 403,198 395,202" style="fill:rgb(49,61,26)"/> <polygon points="395,202 403,198 391,188" style="fill:rgb(127,160,131)"/> <polygon points="410,157 396,170 400,175" style="fill:rgb(134,202,212)"/> <polygon points="410,157 405,153 396,170" style="fill:rgb(147,198,166)"/> <polygon points="336,282 366,263 330,278" style="fill:rgb(103,85,83)"/> <polygon points="285,290 297,295 291,284" style="fill:rgb(164,136,65)"/> <polygon points="403,198 407,185 391,188" style="fill:rgb(194,199,118)"/> <polygon points="245,311 269,296 245,261" style="fill:rgb(75,118,42)"/> <polygon points="285,290 283,304 297,295" style="fill:rgb(192,102,27)"/> <polygon points="153,168 175,188 177,159" style="fill:rgb(43,56,23)"/> <polygon points="175,188 157,190 195,224" style="fill:rgb(84,119,48)"/> <polygon points="195,224 212,277 234,252" style="fill:rgb(77,118,37)"/> <polygon points="384,250 388,240 364,250" style="fill:rgb(74,83,19)"/> <polygon points="387,234 404,216 377,222" style="fill:rgb(205,221,71)"/> <polygon points="171,243 212,277 195,224" style="fill:rgb(79,121,42)"/> <polygon points="233,264 245,311 245,261" style="fill:rgb(79,112,34)"/> <polygon points="266,0 235,52 273,67" style="fill:rgb(40,40,18)"/> <polygon points="273,67 235,52 252,75" style="fill:rgb(88,99,54)"/> <polygon points="206,92 190,82 195,101" style="fill:rgb(175,201,13)"/> <polygon points="167,104 185,125 190,118" style="fill:rgb(153,182,21)"/> <polygon points="214,59 190,82 206,92" style="fill:rgb(67,106,3)"/> <polygon points="420,164 410,157 400,175" style="fill:rgb(24,150,239)"/> <polygon points="414,137 396,109 370,132" style="fill:rgb(75,119,6)"/> <polygon points="151,151 177,159 165,136" style="fill:rgb(97,128,62)"/> <polygon points="151,151 153,168 177,159" style="fill:rgb(79,115,44)"/> <polygon points="366,263 384,250 364,250" style="fill:rgb(49,58,41)"/> <polygon points="384,250 388,245 388,240" style="fill:rgb(70,70,26)"/> <polygon points="411,234 404,216 387,234" style="fill:rgb(201,219,87)"/> <polygon points="414,137 370,132 405,153" style="fill:rgb(134,167,43)"/> <polygon points="336,282 366,270 366,263" style="fill:rgb(169,187,161)"/> <polygon points="366,263 382,264 384,250" style="fill:rgb(176,193,136)"/> <polygon points="345,289 366,270 336,282" style="fill:rgb(201,208,119)"/> <polygon points="411,234 387,234 388,240" style="fill:rgb(166,183,44)"/> <polygon points="403,198 418,195 407,185" style="fill:rgb(55,68,27)"/> <polygon points="425,140 414,137 410,157" style="fill:rgb(173,213,144)"/> <polygon points="167,104 190,118 195,101" style="fill:rgb(154,181,11)"/> <polygon points="167,130 154,125 165,136" style="fill:rgb(144,102,23)"/> <polygon points="235,52 214,59 252,75" style="fill:rgb(94,116,46)"/> <polygon points="297,295 320,296 309,283" style="fill:rgb(200,127,67)"/> <polygon points="332,297 345,289 336,282" style="fill:rgb(183,179,79)"/> <polygon points="303,309 320,296 297,295" style="fill:rgb(109,95,40)"/> <polygon points="157,190 171,243 195,224" style="fill:rgb(70,109,27)"/> <polygon points="149,142 151,151 165,136" style="fill:rgb(94,79,32)"/> <polygon points="190,82 167,104 195,101" style="fill:rgb(163,185,9)"/> <polygon points="161,123 154,125 167,130" style="fill:rgb(170,147,42)"/> <polygon points="147,111 167,104 133,103" style="fill:rgb(150,138,16)"/> <polygon points="245,311 283,304 269,296" style="fill:rgb(84,108,33)"/> <polygon points="269,296 283,304 285,290" style="fill:rgb(207,125,46)"/> <polygon points="332,297 336,282 329,285" style="fill:rgb(218,226,132)"/> <polygon points="345,289 369,275 366,270" style="fill:rgb(156,158,79)"/> <polygon points="366,270 382,264 366,263" style="fill:rgb(174,181,94)"/> <polygon points="384,250 392,255 388,245" style="fill:rgb(158,165,108)"/> <polygon points="338,301 332,297 318,312" style="fill:rgb(64,66,18)"/> <polygon points="320,296 332,297 329,285" style="fill:rgb(209,209,118)"/> <polygon points="357,295 379,276 369,275" style="fill:rgb(71,93,42)"/> <polygon points="147,111 154,125 161,123" style="fill:rgb(157,137,57)"/> <polygon points="154,125 149,142 165,136" style="fill:rgb(195,125,52)"/> <polygon points="151,151 129,149 153,168" style="fill:rgb(79,102,21)"/> <polygon points="420,164 400,175 407,185" style="fill:rgb(33,132,214)"/> <polygon points="410,157 414,137 405,153" style="fill:rgb(139,179,125)"/> <polygon points="369,275 382,264 366,270" style="fill:rgb(144,144,68)"/> <polygon points="388,245 411,234 388,240" style="fill:rgb(82,86,36)"/> <polygon points="419,219 418,195 404,216" style="fill:rgb(96,130,60)"/> <polygon points="404,216 418,195 403,198" style="fill:rgb(78,104,47)"/> <polygon points="425,168 420,164 407,185" style="fill:rgb(50,81,127)"/> <polygon points="382,264 392,255 384,250" style="fill:rgb(169,178,94)"/> <polygon points="283,304 303,309 297,295" style="fill:rgb(97,112,50)"/> <polygon points="235,52 217,46 214,59" style="fill:rgb(96,99,52)"/> <polygon points="214,59 179,34 190,82" style="fill:rgb(65,103,3)"/> <polygon points="266,0 217,46 235,52" style="fill:rgb(61,48,27)"/> <polygon points="318,312 332,297 320,296" style="fill:rgb(207,197,81)"/> <polygon points="332,297 338,301 345,289" style="fill:rgb(51,46,16)"/> <polygon points="418,195 425,168 407,185" style="fill:rgb(44,55,25)"/> <polygon points="420,164 425,140 410,157" style="fill:rgb(41,135,225)"/> <polygon points="352,29 319,89 359,92" style="fill:rgb(31,33,13)"/> <polygon points="352,29 301,29 319,89" style="fill:rgb(33,35,13)"/> <polygon points="369,275 379,276 382,264" style="fill:rgb(49,55,22)"/> <polygon points="382,264 398,263 392,255" style="fill:rgb(49,55,20)"/> <polygon points="357,295 369,275 345,289" style="fill:rgb(50,57,23)"/> <polygon points="418,238 411,234 392,255" style="fill:rgb(141,149,67)"/> <polygon points="392,255 411,234 388,245" style="fill:rgb(182,192,116)"/> <polygon points="452,175 441,146 425,168" style="fill:rgb(54,71,26)"/> <polygon points="171,243 189,281 212,277" style="fill:rgb(68,112,33)"/> <polygon points="212,277 245,311 233,264" style="fill:rgb(81,122,49)"/> <polygon points="283,304 301,316 303,309" style="fill:rgb(99,122,50)"/> <polygon points="224,312 245,311 212,277" style="fill:rgb(67,111,32)"/> <polygon points="338,301 357,295 345,289" style="fill:rgb(74,92,45)"/> <polygon points="411,234 419,219 404,216" style="fill:rgb(202,222,101)"/> <polygon points="154,125 139,145 149,142" style="fill:rgb(185,134,49)"/> <polygon points="149,142 139,145 151,151" style="fill:rgb(159,90,22)"/> <polygon points="121,163 134,213 157,190" style="fill:rgb(73,112,34)"/> <polygon points="157,190 134,213 171,243" style="fill:rgb(78,114,39)"/> <polygon points="116,128 139,145 154,125" style="fill:rgb(126,132,52)"/> <polygon points="303,309 318,312 320,296" style="fill:rgb(201,131,41)"/> <polygon points="380,334 398,311 357,295" style="fill:rgb(85,122,62)"/> <polygon points="301,316 318,312 303,309" style="fill:rgb(202,121,41)"/> <polygon points="433,145 425,140 420,164" style="fill:rgb(26,106,216)"/> <polygon points="414,137 423,131 396,109" style="fill:rgb(72,115,7)"/> <polygon points="425,140 423,131 414,137" style="fill:rgb(148,185,108)"/> <polygon points="396,109 391,68 359,92" style="fill:rgb(48,48,20)"/> <polygon points="267,350 301,316 283,304" style="fill:rgb(78,115,38)"/> <polygon points="133,103 167,104 179,34" style="fill:rgb(68,102,2)"/> <polygon points="167,104 147,111 161,123" style="fill:rgb(176,185,69)"/> <polygon points="379,276 398,263 382,264" style="fill:rgb(45,60,23)"/> <polygon points="411,234 418,238 419,219" style="fill:rgb(169,184,85)"/> <polygon points="404,287 398,263 379,276" style="fill:rgb(76,117,40)"/> <polygon points="433,109 391,68 396,109" style="fill:rgb(61,61,27)"/> <polygon points="398,263 418,238 392,255" style="fill:rgb(42,50,21)"/> <polygon points="441,146 433,145 425,168" style="fill:rgb(66,77,45)"/> <polygon points="189,281 224,312 212,277" style="fill:rgb(63,105,22)"/> <polygon points="267,350 312,335 301,316" style="fill:rgb(79,115,37)"/> <polygon points="425,140 440,125 423,131" style="fill:rgb(188,223,138)"/> <polygon points="423,131 433,109 396,109" style="fill:rgb(71,107,8)"/> <polygon points="425,168 433,145 420,164" style="fill:rgb(48,74,136)"/> <polygon points="425,168 418,195 452,175" style="fill:rgb(73,99,38)"/> <polygon points="121,163 157,190 153,168" style="fill:rgb(90,126,57)"/> <polygon points="171,243 146,243 189,281" style="fill:rgb(60,102,18)"/> <polygon points="134,213 146,243 171,243" style="fill:rgb(68,108,30)"/> <polygon points="189,281 206,327 224,312" style="fill:rgb(87,129,61)"/> <polygon points="116,128 129,149 139,145" style="fill:rgb(87,122,34)"/> <polygon points="139,145 129,149 151,151" style="fill:rgb(82,69,7)"/> <polygon points="398,263 421,241 418,238" style="fill:rgb(47,65,28)"/> <polygon points="418,238 421,241 419,219" style="fill:rgb(129,153,72)"/> <polygon points="391,68 352,29 359,92" style="fill:rgb(35,38,12)"/> <polygon points="438,212 418,195 419,219" style="fill:rgb(104,137,75)"/> <polygon points="440,125 437,117 423,131" style="fill:rgb(191,218,87)"/> <polygon points="101,130 121,163 129,149" style="fill:rgb(107,141,71)"/> <polygon points="129,149 121,163 153,168" style="fill:rgb(107,137,74)"/> <polygon points="421,241 438,212 419,219" style="fill:rgb(91,126,57)"/> <polygon points="437,117 433,109 423,131" style="fill:rgb(86,123,13)"/> <polygon points="411,38 351,0 352,29" style="fill:rgb(45,51,22)"/> <polygon points="179,34 167,104 190,82" style="fill:rgb(69,101,3)"/> <polygon points="117,120 116,128 154,125" style="fill:rgb(197,122,33)"/> <polygon points="440,125 425,140 433,145" style="fill:rgb(69,104,178)"/> <polygon points="441,146 440,125 433,145" style="fill:rgb(124,137,90)"/> <polygon points="267,350 283,304 245,311" style="fill:rgb(76,115,41)"/> <polygon points="301,316 312,335 318,312" style="fill:rgb(101,98,33)"/> <polygon points="318,312 362,350 338,301" style="fill:rgb(68,105,33)"/> <polygon points="398,311 404,287 379,276" style="fill:rgb(113,142,87)"/> <polygon points="398,311 379,276 357,295" style="fill:rgb(100,133,74)"/> <polygon points="398,263 446,269 421,241" style="fill:rgb(96,128,65)"/> <polygon points="473,235 468,204 438,212" style="fill:rgb(56,72,33)"/> <polygon points="438,212 452,175 418,195" style="fill:rgb(68,102,27)"/> <polygon points="441,146 453,127 440,125" style="fill:rgb(219,235,11)"/> <polygon points="134,213 120,224 146,243" style="fill:rgb(63,99,20)"/> <polygon points="162,324 206,327 189,281" style="fill:rgb(74,117,46)"/> <polygon points="95,203 120,224 134,213" style="fill:rgb(63,100,23)"/> <polygon points="133,103 122,111 147,111" style="fill:rgb(155,127,14)"/> <polygon points="351,0 295,0 301,29" style="fill:rgb(69,86,26)"/> <polygon points="301,29 266,0 273,67" style="fill:rgb(35,38,15)"/> <polygon points="179,21 179,34 217,46" style="fill:rgb(78,66,31)"/> <polygon points="217,46 179,34 214,59" style="fill:rgb(84,98,32)"/> <polygon points="85,105 104,119 122,111" style="fill:rgb(149,175,83)"/> <polygon points="295,0 266,0 301,29" style="fill:rgb(46,56,11)"/> <polygon points="117,120 154,125 147,111" style="fill:rgb(183,149,50)"/> <polygon points="121,163 95,203 134,213" style="fill:rgb(77,116,45)"/> <polygon points="122,111 117,120 147,111" style="fill:rgb(159,169,76)"/> <polygon points="129,255 189,281 146,243" style="fill:rgb(94,132,65)"/> <polygon points="224,312 267,350 245,311" style="fill:rgb(62,102,18)"/> <polygon points="120,224 129,255 146,243" style="fill:rgb(96,132,68)"/> <polygon points="464,144 453,127 441,146" style="fill:rgb(223,237,5)"/> <polygon points="440,125 453,127 437,117" style="fill:rgb(189,207,24)"/> <polygon points="437,117 472,110 433,109" style="fill:rgb(67,96,11)"/> <polygon points="411,38 352,29 391,68" style="fill:rgb(41,44,15)"/> <polygon points="206,327 267,350 224,312" style="fill:rgb(85,127,59)"/> <polygon points="200,0 179,21 217,46" style="fill:rgb(61,42,23)"/> <polygon points="104,37 85,105 133,103" style="fill:rgb(65,103,2)"/> <polygon points="380,334 357,295 338,301" style="fill:rgb(100,132,79)"/> <polygon points="466,244 438,212 421,241" style="fill:rgb(89,126,52)"/> <polygon points="362,350 318,312 312,335" style="fill:rgb(102,137,75)"/> <polygon points="267,350 319,350 312,335" style="fill:rgb(74,116,37)"/> <polygon points="468,162 464,144 441,146" style="fill:rgb(226,239,4)"/> <polygon points="468,162 441,146 452,175" style="fill:rgb(211,229,13)"/> <polygon points="411,38 391,68 442,61" style="fill:rgb(63,59,28)"/> <polygon points="352,29 351,0 301,29" style="fill:rgb(57,68,26)"/> <polygon points="442,61 433,109 472,110" style="fill:rgb(62,60,29)"/> <polygon points="442,61 391,68 433,109" style="fill:rgb(80,73,39)"/> <polygon points="85,105 122,111 133,103" style="fill:rgb(88,127,10)"/> <polygon points="122,111 104,119 117,120" style="fill:rgb(168,169,69)"/> <polygon points="117,120 104,119 116,128" style="fill:rgb(185,135,26)"/> <polygon points="116,128 101,130 129,149" style="fill:rgb(81,119,24)"/> <polygon points="104,119 101,130 116,128" style="fill:rgb(111,142,6)"/> <polygon points="481,188 468,162 452,175" style="fill:rgb(229,238,20)"/> <polygon points="468,204 452,175 438,212" style="fill:rgb(59,76,33)"/> <polygon points="468,162 470,154 464,144" style="fill:rgb(160,172,14)"/> <polygon points="472,110 437,117 453,127" style="fill:rgb(81,116,12)"/> <polygon points="446,269 398,263 404,287" style="fill:rgb(100,135,72)"/> <polygon points="486,171 477,144 470,154" style="fill:rgb(197,121,12)"/> <polygon points="266,0 200,0 217,46" style="fill:rgb(58,42,24)"/> <polygon points="92,177 95,203 121,163" style="fill:rgb(81,120,49)"/> <polygon points="120,224 98,228 129,255" style="fill:rgb(84,124,56)"/> <polygon points="90,137 92,177 121,163" style="fill:rgb(80,123,45)"/> <polygon points="362,350 380,334 338,301" style="fill:rgb(77,115,54)"/> <polygon points="454,314 404,287 443,327" style="fill:rgb(74,119,43)"/> <polygon points="454,314 446,269 404,287" style="fill:rgb(97,133,69)"/> <polygon points="95,203 98,228 120,224" style="fill:rgb(98,133,68)"/> <polygon points="117,276 162,324 189,281" style="fill:rgb(75,117,48)"/> <polygon points="491,201 473,199 468,204" style="fill:rgb(173,175,61)"/> <polygon points="468,204 473,199 452,175" style="fill:rgb(205,214,44)"/> <polygon points="477,144 453,127 464,144" style="fill:rgb(91,127,5)"/> <polygon points="117,276 189,281 129,255" style="fill:rgb(75,117,45)"/> <polygon points="206,327 189,350 267,350" style="fill:rgb(74,117,46)"/> <polygon points="73,119 90,137 101,130" style="fill:rgb(112,148,53)"/> <polygon points="101,130 90,137 121,163" style="fill:rgb(98,138,63)"/> <polygon points="73,119 101,130 104,119" style="fill:rgb(117,152,8)"/> <polygon points="87,249 117,276 129,255" style="fill:rgb(77,118,49)"/> <polygon points="319,350 362,350 312,335" style="fill:rgb(84,126,57)"/> <polygon points="486,171 470,154 468,162" style="fill:rgb(129,137,38)"/> <polygon points="470,154 477,144 464,144" style="fill:rgb(140,149,22)"/> <polygon points="446,269 466,244 421,241" style="fill:rgb(87,126,53)"/> <polygon points="477,144 472,110 453,127" style="fill:rgb(73,114,7)"/> <polygon points="491,201 481,188 473,199" style="fill:rgb(223,226,121)"/> <polygon points="473,199 481,188 452,175" style="fill:rgb(227,238,42)"/> <polygon points="200,0 176,0 179,21" style="fill:rgb(88,58,34)"/> <polygon points="104,37 133,103 179,34" style="fill:rgb(65,103,5)"/> <polygon points="466,244 473,235 438,212" style="fill:rgb(105,132,72)"/> <polygon points="162,324 189,350 206,327" style="fill:rgb(75,117,49)"/> <polygon points="497,170 486,171 500,192" style="fill:rgb(159,139,113)"/> <polygon points="481,188 486,171 468,162" style="fill:rgb(158,122,31)"/> <polygon points="477,144 516,111 472,110" style="fill:rgb(79,113,13)"/> <polygon points="92,177 76,191 95,203" style="fill:rgb(67,107,33)"/> <polygon points="95,203 76,191 98,228" style="fill:rgb(97,132,69)"/> <polygon points="98,228 87,249 129,255" style="fill:rgb(71,113,38)"/> <polygon points="38,159 76,191 92,177" style="fill:rgb(67,107,33)"/> <polygon points="104,37 179,34 108,30" style="fill:rgb(74,97,7)"/> <polygon points="90,137 62,130 92,177" style="fill:rgb(80,124,41)"/> <polygon points="117,304 151,335 162,324" style="fill:rgb(58,101,12)"/> <polygon points="162,324 169,350 189,350" style="fill:rgb(60,105,22)"/> <polygon points="30,217 87,249 98,228" style="fill:rgb(76,115,48)"/> <polygon points="117,276 117,304 162,324" style="fill:rgb(62,105,28)"/> <polygon points="497,227 491,201 468,204" style="fill:rgb(95,87,33)"/> <polygon points="151,335 169,350 162,324" style="fill:rgb(58,102,9)"/> <polygon points="83,273 117,304 117,276" style="fill:rgb(59,101,18)"/> <polygon points="500,192 486,171 481,188" style="fill:rgb(177,108,53)"/> <polygon points="486,171 497,170 477,144" style="fill:rgb(189,142,34)"/> <polygon points="85,105 73,119 104,119" style="fill:rgb(151,177,80)"/> <polygon points="510,202 500,192 491,201" style="fill:rgb(196,199,107)"/> <polygon points="491,201 500,192 481,188" style="fill:rgb(205,191,81)"/> <polygon points="500,192 503,168 497,170" style="fill:rgb(212,217,113)"/> <polygon points="497,170 510,149 477,144" style="fill:rgb(130,158,29)"/> <polygon points="473,235 497,227 468,204" style="fill:rgb(58,75,34)"/> <polygon points="543,169 510,149 503,168" style="fill:rgb(143,151,31)"/> <polygon points="515,265 497,227 473,235" style="fill:rgb(75,113,35)"/> <polygon points="515,265 473,235 466,244" style="fill:rgb(117,147,88)"/> <polygon points="507,289 466,244 446,269" style="fill:rgb(87,126,60)"/> <polygon points="108,30 179,34 179,21" style="fill:rgb(93,87,18)"/> <polygon points="35,116 62,130 73,119" style="fill:rgb(113,151,11)"/> <polygon points="35,130 62,130 35,116" style="fill:rgb(88,132,18)"/> <polygon points="73,119 62,130 90,137" style="fill:rgb(106,145,56)"/> <polygon points="70,263 83,273 87,249" style="fill:rgb(58,101,17)"/> <polygon points="70,263 87,249 29,226" style="fill:rgb(58,100,18)"/> <polygon points="87,249 83,273 117,276" style="fill:rgb(65,107,31)"/> <polygon points="443,327 398,311 441,350" style="fill:rgb(104,134,80)"/> <polygon points="443,327 404,287 398,311" style="fill:rgb(111,140,84)"/> <polygon points="176,0 108,30 179,21" style="fill:rgb(115,77,40)"/> <polygon points="441,350 398,311 380,334" style="fill:rgb(87,122,64)"/> <polygon points="516,111 482,63 472,110" style="fill:rgb(89,85,32)"/> <polygon points="472,110 482,63 442,61" style="fill:rgb(87,80,39)"/> <polygon points="442,61 457,0 411,38" style="fill:rgb(57,64,29)"/> <polygon points="411,38 457,0 351,0" style="fill:rgb(47,53,23)"/> <polygon points="101,314 140,350 117,304" style="fill:rgb(80,124,51)"/> <polygon points="117,304 140,350 151,335" style="fill:rgb(86,128,53)"/> <polygon points="151,335 140,350 169,350" style="fill:rgb(90,131,49)"/> <polygon points="510,202 503,168 500,192" style="fill:rgb(214,218,108)"/> <polygon points="503,168 510,149 497,170" style="fill:rgb(184,141,33)"/> <polygon points="543,270 510,202 497,227" style="fill:rgb(84,122,56)"/> <polygon points="497,227 510,202 491,201" style="fill:rgb(100,68,24)"/> <polygon points="83,273 101,314 117,304" style="fill:rgb(85,127,52)"/> <polygon points="30,217 98,228 76,191" style="fill:rgb(75,115,48)"/> <polygon points="83,273 64,293 101,314" style="fill:rgb(75,119,46)"/> <polygon points="443,327 474,350 454,314" style="fill:rgb(76,117,47)"/> <polygon points="454,314 492,307 446,269" style="fill:rgb(103,135,74)"/> <polygon points="362,350 441,350 380,334" style="fill:rgb(87,121,64)"/> <polygon points="543,154 516,111 510,149" style="fill:rgb(82,120,13)"/> <polygon points="510,149 516,111 477,144" style="fill:rgb(79,118,12)"/> <polygon points="35,130 38,159 62,130" style="fill:rgb(86,125,53)"/> <polygon points="62,130 38,159 92,177" style="fill:rgb(84,124,53)"/> <polygon points="494,0 457,0 482,63" style="fill:rgb(66,76,43)"/> <polygon points="482,63 457,0 442,61" style="fill:rgb(62,71,38)"/> <polygon points="23,248 64,293 70,263" style="fill:rgb(72,116,41)"/> <polygon points="70,263 64,293 83,273" style="fill:rgb(82,124,49)"/> <polygon points="101,314 93,350 140,350" style="fill:rgb(65,110,31)"/> <polygon points="487,339 492,307 454,314" style="fill:rgb(99,132,72)"/> <polygon points="35,116 73,119 29,106" style="fill:rgb(145,172,65)"/> <polygon points="73,119 85,105 29,106" style="fill:rgb(148,175,84)"/> <polygon points="0,186 31,178 0,134" style="fill:rgb(75,112,45)"/> <polygon points="38,159 31,178 76,191" style="fill:rgb(93,129,62)"/> <polygon points="507,289 515,265 466,244" style="fill:rgb(98,133,70)"/> <polygon points="510,202 543,169 503,168" style="fill:rgb(102,134,57)"/> <polygon points="176,0 96,0 108,30" style="fill:rgb(127,82,50)"/> <polygon points="108,30 69,32 104,37" style="fill:rgb(109,99,35)"/> <polygon points="69,32 85,105 104,37" style="fill:rgb(64,101,4)"/> <polygon points="0,134 31,178 38,159" style="fill:rgb(90,126,58)"/> <polygon points="492,307 507,289 446,269" style="fill:rgb(79,119,52)"/> <polygon points="96,0 69,32 108,30" style="fill:rgb(148,106,69)"/> <polygon points="31,178 30,217 76,191" style="fill:rgb(76,115,48)"/> <polygon points="23,248 29,226 0,209" style="fill:rgb(83,121,50)"/> <polygon points="30,217 29,226 87,249" style="fill:rgb(61,102,28)"/> <polygon points="64,293 93,350 101,314" style="fill:rgb(63,107,28)"/> <polygon points="43,305 93,350 64,293" style="fill:rgb(57,97,19)"/> <polygon points="543,270 543,169 510,202" style="fill:rgb(86,126,55)"/> <polygon points="27,103 29,106 85,105" style="fill:rgb(109,147,29)"/> <polygon points="0,114 0,134 35,130" style="fill:rgb(87,128,39)"/> <polygon points="0,209 29,226 30,217" style="fill:rgb(57,96,14)"/> <polygon points="543,169 543,154 510,149" style="fill:rgb(123,159,26)"/> <polygon points="516,111 523,55 482,63" style="fill:rgb(68,66,35)"/> <polygon points="441,350 474,350 443,327" style="fill:rgb(109,137,83)"/> <polygon points="543,344 543,282 507,289" style="fill:rgb(88,124,63)"/> <polygon points="69,32 27,103 85,105" style="fill:rgb(62,101,2)"/> <polygon points="0,114 35,130 35,116" style="fill:rgb(113,148,18)"/> <polygon points="474,350 487,339 454,314" style="fill:rgb(82,122,54)"/> <polygon points="96,0 77,0 69,32" style="fill:rgb(117,80,54)"/> <polygon points="69,32 0,41 27,103" style="fill:rgb(59,96,5)"/> <polygon points="543,110 523,55 516,111" style="fill:rgb(62,47,30)"/> <polygon points="543,154 543,110 516,111" style="fill:rgb(93,113,23)"/> <polygon points="0,186 30,217 31,178" style="fill:rgb(75,112,48)"/> <polygon points="29,226 23,248 70,263" style="fill:rgb(85,125,50)"/> <polygon points="523,55 494,0 482,63" style="fill:rgb(72,68,38)"/> <polygon points="23,248 43,305 64,293" style="fill:rgb(61,105,26)"/> <polygon points="543,282 543,270 515,265" style="fill:rgb(69,109,30)"/> <polygon points="515,265 543,270 497,227" style="fill:rgb(75,117,43)"/> <polygon points="543,282 515,265 507,289" style="fill:rgb(104,137,77)"/> <polygon points="77,0 51,11 69,32" style="fill:rgb(51,44,20)"/> <polygon points="35,116 29,106 0,114" style="fill:rgb(146,172,72)"/> <polygon points="0,134 38,159 35,130" style="fill:rgb(68,108,34)"/> <polygon points="23,318 45,350 43,305" style="fill:rgb(66,103,40)"/> <polygon points="543,344 507,289 492,307" style="fill:rgb(79,118,55)"/> <polygon points="0,114 29,106 27,103" style="fill:rgb(148,174,83)"/> <polygon points="0,186 0,209 30,217" style="fill:rgb(59,98,25)"/> <polygon points="543,110 543,51 523,55" style="fill:rgb(77,52,38)"/> <polygon points="523,55 514,0 494,0" style="fill:rgb(87,62,40)"/> <polygon points="0,103 0,114 27,103" style="fill:rgb(141,168,71)"/> <polygon points="543,51 514,0 523,55" style="fill:rgb(104,68,45)"/> <polygon points="0,41 0,103 27,103" style="fill:rgb(60,97,4)"/> <polygon points="77,0 47,0 51,11" style="fill:rgb(58,55,27)"/> <polygon points="51,11 0,41 69,32" style="fill:rgb(53,63,25)"/> <polygon points="0,266 43,305 23,248" style="fill:rgb(59,99,22)"/> <polygon points="43,305 45,350 93,350" style="fill:rgb(74,110,49)"/> <polygon points="0,209 0,266 23,248" style="fill:rgb(66,105,34)"/> <polygon points="0,266 23,318 43,305" style="fill:rgb(76,111,50)"/> <polygon points="0,25 0,41 51,11" style="fill:rgb(69,74,40)"/> <polygon points="543,51 543,0 514,0" style="fill:rgb(133,81,48)"/> <polygon points="0,325 26,350 23,318" style="fill:rgb(53,88,20)"/> <polygon points="23,318 26,350 45,350" style="fill:rgb(54,89,25)"/> <polygon points="487,339 543,344 492,307" style="fill:rgb(102,131,75)"/> <polygon points="543,350 543,344 487,339" style="fill:rgb(97,127,70)"/> <polygon points="474,350 543,350 487,339" style="fill:rgb(90,125,64)"/> <polygon points="47,0 0,25 51,11" style="fill:rgb(89,88,49)"/> <polygon points="0,266 0,325 23,318" style="fill:rgb(63,97,37)"/> <polygon points="47,0 0,0 0,25" style="fill:rgb(106,103,58)"/> <polygon points="0,325 0,350 26,350" style="fill:rgb(77,110,48)"/> </svg>