<?xml version="1.0" standalone="no"?>
<!DOCTYPE svg PUBLIC "-//W3C//DTD SVG 20010904//EN"
 "http://www.w3.org/TR/2001/REC-SVG-20010904/DTD/svg10.dtd">
<svg version="1.0" xmlns="http://www.w3.org/2000/svg"
 width="1280.000000pt" height="913.000000pt" viewBox="0 0 1280.000000 913.000000"
 preserveAspectRatio="xMidYMid meet">

<g transform="translate(0.000000,913.000000) scale(0.100000,-0.100000)"
fill="#000000" stroke="none">
<path d="M6484 9106 c-9 -36 -1 -71 16 -71 14 0 49 57 50 83 0 7 -12 12 -30
12 -23 0 -31 -5 -36 -24z"/>
<path d="M6676 9118 c-3 -7 -7 -32 -10 -56 -8 -52 9 -49 18 4 4 19 10 42 13
50 3 8 0 14 -6 14 -7 0 -13 -6 -15 -12z"/>
<path d="M6706 9113 c-3 -10 -8 -35 -12 -55 l-6 -38 41 0 c44 0 51 8 69 71
l10 36 -49 2 c-38 1 -49 -2 -53 -16z"/>
<path d="M6816 9118 c-3 -7 -9 -28 -15 -47 -18 -55 -15 -64 17 -57 29 6 153
17 189 17 12 -1 35 4 50 10 15 5 57 10 95 10 58 0 70 4 84 22 l16 22 -6 -26
c-3 -17 -1 -26 7 -27 6 0 80 -6 162 -12 83 -7 153 -16 156 -21 3 -5 36 -21 74
-34 37 -14 73 -29 80 -35 33 -27 234 -42 261 -19 12 10 13 9 8 -4 -3 -10 2
-20 15 -26 18 -10 20 -7 31 45 7 30 14 53 17 50 3 -2 0 -28 -6 -56 -15 -67
-14 -69 9 -63 21 6 63 -23 55 -38 -3 -4 7 -17 22 -28 20 -17 28 -19 35 -9 5 9
8 4 8 -13 0 -20 6 -28 25 -33 15 -4 38 -26 57 -55 36 -53 126 -118 158 -113
11 2 27 -4 36 -13 9 -9 23 -14 30 -11 8 3 14 0 14 -6 0 -29 73 -52 83 -25 3 6
6 2 6 -10 1 -18 61 -76 61 -59 0 13 68 -71 74 -91 4 -13 12 -23 17 -23 5 0 9
10 10 23 0 12 3 16 6 9 3 -8 2 -43 -2 -78 -8 -79 -23 -89 -68 -46 -18 16 -47
38 -66 47 -19 9 -55 39 -81 66 -25 26 -59 55 -75 63 -27 14 -30 14 -43 -5 -9
-13 -10 -24 -4 -32 5 -7 17 -39 27 -72 19 -67 65 -119 115 -130 16 -3 34 -13
41 -21 19 -23 15 -75 -6 -90 -10 -8 -32 -26 -49 -41 -17 -15 -36 -27 -42 -25
-16 3 -65 -24 -57 -31 3 -4 2 -7 -4 -7 -17 0 -3 -42 20 -63 11 -9 18 -19 16
-20 -2 -2 -33 -11 -70 -21 -36 -9 -84 -28 -108 -42 -24 -13 -47 -24 -52 -24
-11 0 -85 -36 -169 -82 -36 -20 -130 -69 -210 -110 -164 -83 -348 -199 -399
-252 -19 -20 -40 -36 -45 -36 -6 0 -22 -9 -36 -21 -14 -11 -64 -47 -112 -80
-85 -59 -107 -79 -70 -64 9 4 31 9 47 12 17 3 35 8 40 13 13 10 118 45 128 42
22 -6 105 23 132 47 23 19 63 36 139 56 81 21 106 32 101 42 -3 8 -5 23 -5 34
0 10 -4 19 -10 19 -5 0 -10 -8 -10 -19 0 -10 -7 -24 -15 -31 -9 -8 -15 -9 -15
-2 0 6 4 13 9 17 5 3 13 31 17 63 3 31 13 71 20 87 l13 30 -5 -37 c-4 -21 -3
-55 2 -75 l7 -38 13 50 c15 63 18 34 3 -35 -6 -28 -8 -54 -5 -57 3 -3 33 6 67
21 94 43 113 46 283 51 143 4 163 6 188 25 17 12 36 19 47 15 10 -3 33 1 52 9
19 8 64 17 99 20 64 6 115 13 157 22 12 2 24 12 26 22 4 16 5 16 6 -1 1 -22
33 -16 117 25 86 42 194 50 257 19 36 -18 59 -21 118 -19 139 6 254 -10 318
-42 32 -17 69 -30 82 -30 15 0 35 -13 55 -37 27 -32 41 -39 95 -50 161 -31
249 -60 292 -99 86 -77 100 -96 118 -156 9 -32 0 -47 -49 -80 l-25 -16 39 -6
c21 -4 61 -11 88 -16 27 -6 51 -8 53 -6 11 10 -45 29 -82 28 -22 0 -35 1 -28
4 7 3 10 11 7 19 -7 18 15 30 29 16 20 -20 25 -11 32 57 3 37 10 76 15 87 9
21 4 -33 -9 -117 l-8 -47 61 -27 c34 -15 65 -33 69 -40 4 -8 13 -14 19 -14 15
0 115 -106 143 -150 26 -42 57 -149 48 -164 -4 -6 -7 -20 -8 -30 0 -11 -6 -21
-14 -24 -10 -3 -12 1 -8 17 7 29 -1 26 -13 -5 -6 -14 -13 -23 -17 -21 -5 3 -7
-12 -7 -34 1 -23 -2 -36 -8 -33 -5 3 -7 12 -4 20 3 8 1 14 -5 14 -6 0 -17 7
-26 15 -24 24 -24 14 -3 -43 11 -29 20 -66 20 -83 0 -17 4 -28 10 -24 6 3 10
1 10 -5 0 -6 5 -8 10 -5 6 4 8 11 5 16 -4 5 -1 9 4 9 7 0 11 30 12 78 1 54 3
69 9 52 25 -77 -9 -185 -72 -233 -39 -30 -204 -77 -269 -77 -22 0 -49 -5 -60
-10 -13 -7 -25 -7 -38 0 -14 7 -22 7 -26 0 -4 -6 -28 -10 -53 -8 -37 2 -49 8
-57 25 -5 12 -17 24 -27 26 -10 3 -15 1 -12 -4 9 -15 -88 -1 -106 15 -21 19
-118 36 -207 36 -84 0 -201 -27 -306 -72 -82 -34 -167 -58 -213 -58 -18 0 -72
-15 -120 -34 -79 -31 -101 -35 -199 -37 -60 -1 -131 1 -158 6 -33 5 -52 4 -62
-5 -12 -10 -36 -10 -115 0 -82 11 -110 11 -154 0 -49 -12 -53 -15 -43 -31 14
-22 0 -52 -26 -57 -12 -3 -14 3 -7 32 l7 34 -43 4 c-23 2 -58 0 -76 -5 -18 -4
-92 -10 -164 -12 -71 -2 -165 -11 -208 -20 -43 -9 -95 -15 -114 -13 -35 3 -36
1 -49 -42 l-12 -45 5 43 c4 25 2 42 -4 42 -19 0 -42 -12 -42 -22 0 -5 6 -6 13
-2 8 5 8 2 -2 -9 -8 -10 -28 -17 -47 -17 -34 0 -41 11 -35 57 1 8 -76 33 -104
33 -2 0 -6 -26 -8 -57 l-3 -58 -2 66 c-1 36 -9 85 -17 110 -8 24 -21 89 -30
144 -9 54 -21 103 -28 107 -17 11 -39 10 -32 -1 3 -5 -4 -12 -15 -16 -20 -6
-28 -25 -12 -25 5 0 8 -21 7 -47 -1 -27 3 -54 9 -61 5 -7 10 -25 11 -40 1 -15
5 -36 8 -47 6 -16 3 -21 -13 -21 -15 0 -23 10 -31 41 -6 22 -17 56 -25 75 -7
19 -18 73 -23 119 -6 46 -15 89 -21 96 -5 6 -7 15 -3 19 4 4 -3 9 -16 13 -13
3 -20 11 -17 19 3 8 -1 14 -8 14 -9 0 -12 7 -9 19 4 15 -1 20 -24 23 -20 2
-28 9 -29 23 -1 11 -2 31 -3 43 0 15 -9 26 -22 29 -15 4 -20 12 -17 33 1 15
-4 40 -12 55 -11 21 -12 28 -1 34 18 11 9 75 -11 79 -9 2 -25 -12 -38 -32 -12
-20 -27 -36 -34 -36 -7 0 -20 -16 -29 -35 -18 -38 -22 -65 -9 -65 24 0 131
-247 117 -270 -2 -3 2 -26 9 -51 26 -87 41 -317 39 -613 -1 -159 -5 -292 -10
-297 -4 -4 -5 -43 -2 -86 3 -43 2 -82 -1 -88 -10 -14 -29 -92 -36 -145 -3 -25
-10 -49 -15 -55 -12 -12 -12 -28 0 -20 5 3 12 1 16 -4 7 -12 -29 -33 -53 -30
-33 3 -36 -1 -14 -17 43 -30 24 -42 -32 -18 -15 6 -17 4 -11 -6 11 -19 13 -71
3 -92 -10 -21 19 -54 57 -64 25 -6 31 -15 18 -27 -3 -4 -17 0 -31 9 -13 8 -26
13 -30 10 -3 -3 1 -6 9 -7 8 0 -7 -7 -33 -15 -44 -13 -47 -16 -36 -34 16 -25
40 -27 31 -3 -6 15 -5 15 8 4 8 -8 15 -23 16 -33 5 -51 4 -65 -8 -93 -7 -16
-14 -43 -16 -58 -1 -15 -10 -42 -19 -59 -15 -29 -26 -67 -27 -95 0 -7 -4 -13
-8 -13 -4 0 -12 -12 -18 -27 -21 -53 -119 -206 -147 -230 -16 -14 -28 -27 -26
-29 13 -23 -32 -64 -64 -58 -13 2 -24 0 -24 -5 0 -12 29 -23 41 -15 5 3 9 3 9
1 0 -5 -50 -62 -69 -80 -37 -35 -52 -47 -61 -47 -5 0 -13 -6 -17 -14 -4 -7
-23 -21 -42 -31 -19 -9 -67 -51 -106 -91 -40 -41 -79 -74 -88 -74 -10 0 -17
-4 -17 -9 0 -11 -85 -43 -125 -46 -16 -1 -36 -3 -42 -4 -21 -2 -15 -29 7 -36
11 -4 18 -11 14 -16 -3 -5 -10 -7 -15 -4 -5 3 -6 -1 -3 -10 4 -10 10 -12 18
-6 6 4 22 12 36 16 20 6 23 5 13 -6 -18 -18 -16 -29 5 -29 14 0 14 -2 3 -9 -8
-5 -11 -16 -8 -25 4 -11 1 -16 -11 -17 -15 0 -15 -1 1 -8 27 -10 4 -27 -60
-43 -41 -11 -49 -17 -47 -33 3 -20 3 -20 -12 0 -14 19 -15 19 -20 -3 -4 -12
-9 -22 -13 -22 -4 0 -15 -26 -25 -58 -10 -31 -27 -74 -38 -95 -10 -21 -16 -42
-13 -47 3 -5 -1 -25 -9 -44 -8 -19 -12 -36 -10 -39 2 -2 -5 -12 -16 -22 -11
-10 -20 -28 -20 -40 0 -13 -7 -28 -15 -35 -13 -11 -14 -10 -9 4 4 10 0 18 -10
22 -17 7 -22 44 -6 44 6 0 10 5 10 11 0 5 -5 7 -10 4 -7 -4 -10 20 -9 69 1 57
5 76 15 76 10 0 11 5 4 22 -5 13 -14 48 -19 78 -5 30 -12 65 -16 77 -6 18 -2
23 17 28 13 3 35 2 48 -4 19 -7 20 -10 7 -10 -10 -1 -15 -5 -12 -11 3 -5 -1
-10 -10 -10 -11 0 -15 -7 -13 -22 4 -25 28 -37 28 -14 0 9 5 16 10 16 6 0 10
-4 10 -10 0 -20 19 -9 37 20 10 17 23 28 29 26 7 -3 20 1 31 9 17 13 16 14
-10 24 -16 6 -34 11 -40 11 -8 0 -7 3 2 9 11 7 10 11 -4 19 -12 6 -16 16 -12
26 4 10 11 14 17 11 10 -6 12 2 14 52 1 11 13 31 29 43 15 12 24 26 21 31 -3
6 2 9 11 7 10 -2 20 3 23 11 3 9 0 11 -8 6 -9 -6 -11 -4 -6 4 5 7 14 10 21 7
7 -2 16 2 19 10 9 24 7 31 -4 14 -8 -13 -10 -13 -10 1 0 14 -22 30 -60 42 -13
5 -13 6 1 6 9 1 21 13 28 27 9 21 16 25 36 20 21 -5 25 -3 25 15 0 15 -4 19
-16 15 -9 -3 -31 -6 -50 -6 -21 0 -33 -4 -29 -10 3 -6 4 -10 0 -10 -3 0 -10
11 -15 25 -5 14 -17 25 -25 25 -9 0 -14 4 -11 9 3 4 -5 13 -19 19 -17 8 -22
16 -18 31 3 13 1 21 -6 21 -7 0 -9 5 -4 13 4 6 8 19 8 27 0 8 7 15 15 15 8 1
14 6 12 13 -1 7 11 15 28 18 16 4 30 10 30 15 0 5 6 9 13 9 7 0 22 7 32 15 11
8 42 31 70 50 27 19 44 35 37 35 -6 0 -12 5 -12 10 0 6 7 10 15 10 8 0 15 4
15 8 0 11 69 32 104 32 15 0 29 -7 33 -16 3 -8 12 -13 21 -9 8 3 31 -4 50 -16
20 -11 44 -18 54 -16 11 3 18 0 18 -8 0 -10 7 -11 30 -5 17 5 30 5 30 1 0 -11
-152 -61 -184 -61 -14 0 -28 -4 -31 -10 -12 -19 33 -10 187 36 181 55 203 65
246 115 19 22 38 37 42 34 10 -6 50 16 50 26 0 7 -84 59 -95 59 -3 0 -3 -4 0
-10 9 -14 -7 -12 -43 5 -17 9 -43 13 -61 10 -16 -3 -33 -1 -36 5 -3 6 4 10 17
11 l23 0 -24 17 c-27 19 -95 45 -183 70 -68 19 -88 43 -27 32 21 -4 40 -3 41
2 2 4 28 -7 58 -27 30 -19 64 -38 75 -41 11 -4 37 -18 58 -31 21 -13 43 -23
49 -21 9 3 -143 98 -156 98 -3 0 -22 10 -43 22 -20 13 -42 23 -48 24 -5 0 -16
2 -24 2 -9 1 -10 6 -5 14 20 28 -1 124 -38 170 -42 54 -83 80 -135 86 -50 5
-63 -4 -63 -51 0 -16 -4 -26 -10 -22 -6 3 -7 17 -4 31 5 19 2 24 -12 25 -14 1
-13 3 6 9 21 7 17 8 -20 8 -57 0 -82 -7 -75 -19 3 -5 -1 -6 -9 -3 -37 14 -146
-137 -114 -157 19 -12 -1 -28 -33 -27 -40 1 -53 -14 -54 -65 -1 -49 -10 -67
-31 -67 -9 0 -23 -9 -32 -19 -10 -11 -27 -22 -40 -26 -19 -5 -25 -2 -29 15 -8
32 -27 18 -35 -26 -12 -62 -44 -148 -57 -152 -6 -2 0 22 15 55 28 62 40 133
24 143 -6 3 -4 16 5 32 12 25 12 28 -7 34 -29 9 -105 -5 -122 -22 -8 -8 -19
-13 -23 -12 -5 2 -35 -22 -66 -52 -70 -68 -97 -136 -78 -200 8 -26 18 -40 29
-40 15 0 15 -2 2 -10 -12 -8 -5 -19 38 -59 29 -28 62 -53 72 -56 10 -3 21 -13
24 -21 3 -8 2 -12 -4 -9 -6 3 -10 -1 -10 -9 0 -9 3 -16 8 -16 4 0 8 -37 10
-83 3 -89 18 -143 40 -152 11 -4 13 1 9 22 -3 16 2 57 11 93 9 38 18 57 20 45
2 -11 8 -25 13 -30 4 -6 4 -17 -1 -25 -8 -12 -10 -11 -10 5 -1 19 -1 19 -11 2
-8 -14 -7 -23 7 -38 16 -18 16 -19 1 -13 -14 5 -17 -1 -19 -37 0 -24 -2 -56
-3 -71 -1 -20 3 -28 14 -29 9 0 11 -3 4 -5 -7 -3 -9 -13 -6 -22 4 -13 2 -12
-10 3 -12 15 -16 16 -17 5 0 -23 33 -69 105 -145 37 -38 78 -91 91 -117 18
-35 28 -46 40 -41 12 4 15 2 12 -8 -3 -10 -19 -13 -51 -12 -41 2 -50 -2 -79
-33 -18 -19 -38 -34 -44 -34 -7 0 -38 -21 -71 -47 -32 -26 -60 -48 -62 -50
-11 -9 13 -16 51 -16 24 0 34 -2 23 -4 -11 -3 -24 -12 -28 -19 -5 -8 -26 -26
-48 -39 -30 -20 -39 -32 -39 -53 0 -27 -24 -62 -54 -79 -8 -4 -16 -20 -18 -35
-2 -15 -14 -39 -27 -54 -49 -56 -43 -110 18 -164 34 -30 51 -60 56 -101 2 -17
7 -44 10 -60 5 -22 3 -29 -9 -29 -22 0 -20 -22 6 -56 26 -32 30 -45 32 -96 0
-20 4 -40 9 -44 15 -15 6 -45 -15 -53 -17 -6 -31 -2 -56 17 -18 14 -30 27 -27
30 2 3 0 11 -6 19 -6 7 -9 13 -5 13 3 0 -1 18 -10 41 -18 44 -8 89 20 89 25 0
27 17 8 65 l-18 46 -12 -26 c-7 -14 -12 -34 -12 -43 -1 -9 -6 -27 -13 -40 -12
-20 -15 -21 -32 -7 -11 8 -35 15 -53 15 -18 0 -42 5 -53 10 -40 22 -42 -3 -3
-37 l39 -35 -49 26 c-27 14 -60 28 -74 31 l-25 4 23 -24 c13 -14 30 -25 37
-25 26 0 149 -63 131 -67 -9 -2 -27 1 -40 8 -13 7 -29 12 -35 11 -7 -2 -21 2
-31 7 -18 10 -99 25 -190 35 -23 3 -47 8 -52 11 -12 7 -200 35 -290 42 -38 3
-112 -1 -175 -10 -108 -16 -243 -31 -398 -43 -84 -7 -104 -18 -61 -34 27 -11
47 -8 164 20 154 38 279 37 524 -1 314 -48 615 -158 719 -262 24 -24 37 -32
35 -21 -2 9 3 18 10 20 7 1 8 0 2 -3 -6 -3 -6 -11 1 -25 6 -11 7 -18 2 -15
-13 8 -37 -38 -29 -52 7 -10 -9 -120 -21 -151 -21 -52 -27 -265 -50 -1613 l-6
-407 205 0 206 0 22 82 c90 334 267 923 294 975 l11 22 45 -20 c142 -65 261
-82 393 -56 197 39 251 47 392 57 83 6 197 15 255 20 201 18 266 21 250 11
-13 -9 -12 -12 5 -25 11 -8 24 -12 29 -9 5 4 6 1 3 -4 -7 -11 60 -63 80 -63 7
0 33 -13 60 -30 42 -26 52 -29 83 -20 36 10 77 11 195 6 91 -4 88 -4 81 -22
-4 -12 -2 -15 9 -11 8 4 17 2 20 -2 3 -5 43 -15 89 -21 101 -15 257 -9 375 15
72 15 95 16 152 5 37 -6 110 -11 161 -10 51 1 131 -3 177 -9 46 -6 89 -7 95
-3 9 6 37 9 118 12 10 1 20 5 23 11 4 5 13 9 22 9 8 0 29 7 46 15 35 16 110
36 142 38 11 0 25 7 31 15 7 10 16 12 27 5 10 -5 38 -6 63 -3 35 4 49 11 60
30 l13 25 1 -31 c0 -39 5 -44 38 -35 14 4 43 3 63 -3 29 -8 62 -5 150 12 62
13 118 27 125 33 7 6 18 8 24 4 6 -4 20 1 31 11 19 17 20 17 14 -2 -3 -10 2
-3 11 16 9 19 24 83 34 142 11 60 21 112 25 117 7 12 15 131 8 131 -2 0 -9
-14 -15 -31 -9 -27 -12 -29 -20 -14 -6 9 -8 28 -5 41 6 34 5 33 -57 -21 -45
-39 -53 -33 -55 41 -1 37 -6 74 -11 83 -7 12 -9 13 -10 2 0 -31 -29 25 -30 59
-1 19 -4 28 -7 20 -14 -43 -16 -45 -23 -20 -4 18 -10 -6 -20 -79 -7 -58 -16
-116 -20 -130 -8 -25 -8 -25 -9 -3 -1 12 4 65 9 117 10 88 10 96 -11 141 -13
26 -24 43 -26 37 -6 -17 -52 -2 -58 18 -7 22 -19 24 -37 6 -15 -15 -35 -12
-60 11 -16 13 -19 12 -37 -9 -11 -13 -22 -21 -26 -17 -4 4 0 15 9 24 16 15 16
18 -5 40 -18 19 -20 27 -11 36 9 9 22 5 57 -20 48 -34 57 -34 25 0 -11 12 -20
18 -20 12 0 -11 -20 17 -20 29 0 5 6 5 13 1 6 -4 3 3 -8 15 -10 12 -27 20 -36
18 -10 -3 -23 6 -33 24 -18 30 -30 36 -41 19 -10 -16 -38 -12 -32 5 4 8 2 17
-3 20 -6 4 -10 1 -10 -6 0 -7 -3 -9 -6 -6 -4 4 -2 13 4 20 7 8 9 16 6 19 -9
10 54 20 78 12 20 -6 21 -5 10 9 -7 9 -26 19 -42 22 -16 3 -34 13 -41 21 -16
19 0 18 51 -2 47 -19 51 -17 39 13 -6 18 -15 21 -51 19 -27 -1 -48 3 -58 12
-13 13 -16 12 -25 -12 -6 -14 -14 -23 -18 -20 -4 4 -7 -8 -7 -27 0 -19 5 -40
12 -47 23 -23 -3 -12 -30 13 -15 14 -35 25 -45 25 -28 0 -57 -19 -58 -38 0
-14 -2 -13 -8 3 -9 22 4 45 24 45 17 0 75 66 75 85 0 18 -23 19 -52 4 -12 -6
-23 -7 -27 -2 -3 5 -12 8 -18 7 -7 -1 -18 -2 -24 -3 -5 0 -8 -5 -4 -10 10 -18
-16 -23 -34 -7 -10 9 -29 16 -43 16 -22 0 -25 -4 -22 -30 3 -21 -1 -30 -11
-30 -8 0 -15 -8 -16 -17 0 -14 -2 -13 -9 5 -5 12 -16 25 -24 28 -9 3 -18 15
-22 26 -3 12 -11 17 -20 14 -9 -3 -12 -1 -9 4 3 6 1 10 -4 10 -14 0 -14 -27
-1 -35 16 -10 12 -32 -7 -39 -9 -4 -20 -1 -24 6 -4 7 -11 9 -15 6 -9 -10 25
-60 36 -53 5 3 12 1 15 -5 4 -6 16 -10 28 -8 16 2 23 -3 25 -19 2 -13 -1 -23
-7 -23 -6 0 -11 5 -11 11 0 5 -4 8 -9 4 -5 -3 -12 -1 -16 5 -4 6 -10 8 -14 5
-5 -2 -29 17 -53 43 -25 26 -58 58 -74 72 l-29 25 23 -26 c12 -14 22 -30 22
-37 0 -6 10 -17 22 -23 14 -8 18 -14 10 -17 -6 -2 -9 -8 -6 -14 13 -21 -34 12
-48 34 -69 103 -168 142 -181 73 -10 -51 -20 -75 -33 -75 -8 0 -14 -5 -14 -11
0 -7 -9 -9 -22 -6 -16 5 -10 -4 22 -34 44 -40 44 -41 15 -34 -37 8 -26 -4 28
-30 22 -11 47 -30 55 -43 15 -23 15 -23 -14 -16 -16 4 -40 14 -54 23 -13 9
-36 16 -50 17 -14 1 -40 5 -59 9 -30 7 -34 6 -28 -9 14 -35 -5 -36 -46 -3 -23
18 -67 46 -97 61 -30 16 -61 34 -68 39 -8 6 -26 11 -41 12 -15 1 -45 12 -66
25 -21 13 -35 18 -31 11 9 -14 143 -81 163 -81 41 0 134 -128 109 -149 -21
-17 -109 -15 -144 3 -18 9 -48 19 -67 21 -19 3 -55 18 -81 35 -77 49 -99 38
-39 -20 19 -19 35 -37 35 -41 0 -3 -13 -9 -30 -12 -22 -5 -54 5 -136 43 -110
52 -144 60 -144 36 0 -33 -63 -30 -130 5 -19 10 -61 25 -92 34 -31 8 -70 26
-86 40 -20 17 -42 25 -66 25 -41 0 -63 11 -110 55 -18 17 -59 41 -92 54 -32
13 -66 29 -74 36 -8 7 -20 10 -27 8 -6 -2 -17 5 -23 17 -7 13 -17 19 -27 16
-8 -3 -22 1 -30 10 -12 12 -25 14 -52 8 -54 -10 -95 -6 -211 22 -122 30 -166
47 -197 76 -32 30 -29 66 9 100 41 36 98 37 240 3 l103 -24 17 22 c10 12 18
30 18 39 0 9 5 20 11 23 6 4 8 13 5 21 -8 20 14 18 176 -17 139 -30 194 -45
383 -109 96 -32 128 -38 80 -15 l-30 15 30 -5 c55 -10 200 -15 182 -7 -10 4
-18 12 -17 17 1 6 -12 14 -29 20 -17 5 -31 13 -31 17 0 4 -15 14 -32 22 -18 8
-42 21 -53 29 -17 13 -18 17 -5 32 8 10 13 28 12 41 -4 26 27 44 73 44 36 0
48 30 26 64 -22 32 -65 58 -86 49 -21 -8 -85 6 -85 18 0 6 12 20 26 32 15 12
47 41 71 64 27 25 55 43 68 43 23 0 55 23 55 40 0 5 52 62 115 126 63 64 115
120 115 124 0 4 13 6 30 4 35 -4 37 -2 45 62 7 49 6 52 -31 87 -48 45 -72 47
-87 7 -12 -30 -25 -40 -24 -18 1 35 -4 74 -12 86 -26 42 -415 61 -661 33 -63
-7 -132 -13 -153 -13 -47 1 -94 28 -109 63 -11 25 -13 26 -25 11 -7 -10 -13
-24 -13 -32 0 -8 -9 -30 -20 -48 -18 -30 -22 -31 -35 -18 -14 14 -14 19 0 51
10 27 11 35 2 32 -6 -2 -11 -10 -9 -17 2 -7 -3 -10 -12 -7 -9 4 -18 2 -21 -3
-4 -6 -14 -10 -24 -10 -15 0 -19 11 -24 55 -6 59 1 96 54 270 17 55 40 132 51
170 11 39 28 98 39 131 10 34 19 67 19 73 0 23 112 301 121 301 10 0 8 -53 -3
-74 -10 -18 -9 -18 16 0 14 11 30 33 34 49 13 44 9 128 -5 132 -9 3 -13 -12
-14 -54 l-1 -58 -9 49 c-4 27 -4 59 1 72 6 15 6 24 0 24 -21 0 -10 50 60 275
10 33 23 94 29 135 6 41 15 98 21 125 20 88 28 151 25 186 -1 19 2 42 7 52 5
10 10 33 12 51 2 18 6 37 9 42 3 6 9 50 13 99 3 50 12 97 19 105 8 8 16 29 18
45 3 17 3 -18 0 -76 l-5 -106 33 5 c18 3 40 11 47 19 22 22 37 10 34 -26 -4
-40 11 -34 31 12 38 86 38 86 33 12 -8 -126 -29 -295 -36 -295 -15 0 -19 -30
-6 -54 12 -24 13 -25 29 -5 9 10 23 19 30 19 8 0 22 9 32 20 22 24 35 26 35 4
0 -8 4 -13 9 -10 5 4 12 -7 16 -24 4 -16 11 -30 16 -30 5 0 9 -16 9 -36 0 -28
4 -35 17 -32 10 2 21 18 27 36 5 17 13 32 18 32 5 0 7 -9 3 -19 -4 -13 1 -27
14 -40 25 -25 27 -47 6 -55 -8 -3 -15 -13 -15 -23 0 -14 2 -15 9 -5 5 9 8 4 7
-16 -1 -17 -3 -30 -6 -30 -3 1 -17 -4 -31 -10 -27 -11 -31 -24 -45 -135 -2
-16 -6 -33 -9 -38 -4 -5 -1 -9 4 -9 6 0 11 7 11 15 0 8 5 15 10 15 13 0 13 -1
-5 -43 -9 -21 -11 -38 -5 -42 9 -5 17 19 37 109 5 22 15 42 22 44 10 3 12 -1
8 -17 -3 -11 -1 -19 4 -15 5 3 10 17 10 32 1 22 3 20 9 -10 3 -20 6 -47 4 -60
-1 -13 -3 -29 -3 -35 -1 -7 -8 -13 -16 -13 -8 0 -12 6 -9 14 3 8 1 17 -4 20
-6 3 -15 -17 -22 -44 -9 -40 -9 -54 0 -65 16 -20 4 -81 -19 -97 -12 -8 -22
-36 -30 -79 -13 -77 -14 -99 -3 -83 15 25 11 -140 -5 -195 -15 -49 -17 -53
-23 -31 -7 24 -8 23 -28 -20 -12 -25 -22 -56 -22 -70 0 -14 -7 -50 -15 -80
-25 -92 -23 -99 30 -96 34 2 50 8 61 25 9 12 22 20 29 17 8 -3 18 6 24 22 9
23 10 20 5 -20 -6 -56 -15 -52 116 -54 52 -1 112 -5 133 -9 l37 -7 0 40 c0 22
7 56 15 76 17 40 30 49 19 14 l-6 -23 26 24 26 24 0 -44 c1 -41 2 -43 15 -25
14 19 15 18 15 -11 0 -26 6 -33 38 -46 31 -13 39 -13 48 -2 17 23 52 14 65
-16 12 -30 62 -59 101 -59 23 0 81 -14 191 -44 32 -9 72 -16 90 -16 18 0 46
-4 63 -9 18 -5 37 -5 47 1 11 6 17 5 17 -2 0 -5 8 -10 18 -10 15 0 22 13 32
58 7 31 15 73 16 92 3 34 3 34 -10 11 -9 -15 -16 -20 -20 -12 -4 6 -2 11 3 11
6 0 11 13 11 29 0 17 5 33 10 36 6 4 8 10 5 15 -3 5 -1 11 5 15 5 3 10 15 10
26 0 10 7 19 15 19 17 0 20 -16 5 -25 -13 -8 -13 -35 -1 -35 5 0 11 8 13 17 3
15 4 15 21 -1 18 -19 15 -62 -7 -81 -22 -19 -56 -129 -56 -179 0 -12 80 -55
111 -59 10 -2 24 -8 32 -15 21 -18 77 -33 77 -21 0 5 5 9 10 9 6 0 10 -6 10
-14 0 -36 185 -69 216 -39 21 22 22 92 1 105 -8 5 -6 9 6 14 10 3 17 17 17 32
0 14 7 33 16 43 8 9 18 32 21 51 3 18 9 36 15 39 7 4 6 13 -1 27 -6 11 -11 30
-11 41 0 24 -18 28 -26 6 -4 -8 -14 -15 -24 -15 -10 0 -20 -5 -22 -12 -3 -7
-22 -11 -50 -10 -51 2 -60 -5 -77 -60 -9 -26 -18 -38 -31 -38 -28 0 -30 9 -22
103 4 47 4 83 0 81 -4 -3 -8 -11 -8 -18 0 -23 -40 -26 -61 -5 -15 15 -17 24
-9 39 12 22 59 27 77 9 9 -9 13 -3 17 22 10 68 14 118 9 123 -7 6 -42 -12 -62
-31 -7 -8 -23 -13 -35 -11 -34 5 -31 40 8 87 35 41 38 64 10 75 -16 6 -85 -31
-98 -53 -17 -28 -71 -77 -97 -88 -23 -10 -27 -20 -42 -111 -9 -55 -14 -108
-11 -116 3 -9 1 -16 -4 -16 -6 0 -13 -10 -15 -22 -3 -13 -3 6 0 42 2 36 10 93
17 126 18 84 11 122 -22 126 -20 2 -28 12 -39 51 -7 26 -18 47 -23 47 -29 0
10 135 42 148 4 2 8 7 8 12 0 4 14 23 30 41 31 32 31 32 46 11 10 -15 22 -20
45 -17 35 5 69 30 69 52 0 7 5 13 10 13 6 0 10 9 10 20 0 11 7 23 16 27 8 3
13 12 10 19 -3 7 -1 16 4 19 6 4 10 17 10 31 0 13 8 32 19 43 23 23 33 91 14
91 -16 0 -16 0 1 70 10 44 17 56 34 58 12 2 22 10 22 18 0 8 4 13 9 10 10 -7
20 22 28 87 4 38 2 47 -10 47 -18 0 -65 76 -74 120 -7 36 14 83 34 76 7 -3 15
-1 18 4 14 22 125 7 125 -16 0 -8 4 -14 10 -14 5 0 7 7 4 15 -4 8 -1 15 5 15
7 0 17 14 22 30 8 21 17 30 32 30 38 -1 57 -25 68 -84 14 -78 5 -112 -34 -132
-52 -27 -58 -33 -45 -54 9 -14 18 -16 39 -10 32 9 39 5 39 -24 0 -12 7 -30 15
-40 12 -15 17 -17 29 -7 25 21 73 -20 81 -68 11 -69 42 -61 67 16 10 33 17 42
30 38 23 -8 27 2 49 127 10 61 22 114 25 117 2 3 2 -31 -2 -76 -4 -44 -3 -94
1 -109 7 -29 7 -28 31 25 13 29 22 57 19 61 -3 5 3 6 13 3 18 -4 31 13 52 70
6 16 19 31 29 34 11 3 22 11 25 19 3 8 12 14 21 14 20 0 20 -36 -1 -44 -8 -3
-12 -10 -9 -16 3 -5 1 -10 -5 -10 -18 0 -5 -39 35 -110 19 -34 35 -66 35 -72
0 -5 4 -7 10 -3 5 3 26 -1 46 -10 44 -18 78 -20 68 -3 -5 8 -2 9 9 5 9 -3 19
-2 21 2 9 14 55 0 58 -18 2 -9 18 13 38 51 37 73 54 88 39 36 -5 -17 -6 -34
-4 -37 3 -2 5 -1 5 4 0 4 7 2 15 -5 10 -9 15 -9 15 -1 0 13 36 15 44 3 3 -5
18 -7 35 -4 22 3 30 10 34 30 3 15 0 30 -6 34 -9 6 -9 8 0 8 7 0 15 17 18 38
11 70 15 82 26 82 8 0 10 -16 7 -45 -3 -26 -1 -45 4 -45 6 0 8 -17 4 -44 -5
-29 -3 -47 5 -51 8 -6 8 -10 -2 -16 -7 -4 -10 -11 -6 -16 11 -10 24 13 42 75
11 37 20 52 30 49 9 -4 15 6 20 31 8 35 8 36 15 12 5 -14 9 -47 10 -75 l2 -50
9 40 c12 52 18 69 24 63 4 -4 -4 -66 -20 -165 -4 -20 -2 -33 5 -33 5 0 10 6
10 14 0 8 6 16 13 19 7 3 19 25 27 48 l13 44 9 -32 c5 -18 17 -34 28 -38 11
-4 18 -10 15 -15 -3 -5 -1 -11 3 -14 8 -5 9 -31 4 -119 -1 -16 -6 -25 -12 -22
-5 3 -7 0 -4 -9 3 -9 -3 -17 -16 -21 -16 -5 -19 -10 -10 -20 7 -8 9 -18 6 -23
-9 -14 17 -60 39 -70 14 -7 24 -5 33 5 10 10 17 11 26 4 9 -8 12 -6 11 9 -1
11 -4 23 -8 26 -11 12 -8 54 4 54 6 0 9 -7 5 -15 -3 -8 -2 -15 3 -15 4 0 13
-10 18 -22 9 -20 12 -12 22 52 22 137 24 141 54 89 13 -24 15 -35 6 -45 -13
-15 -4 -34 17 -34 8 0 14 1 14 3 0 1 4 16 9 34 8 26 7 31 -5 26 -10 -4 -12 0
-8 11 3 9 10 13 15 10 5 -3 9 13 9 34 0 49 24 114 32 85 3 -10 2 -42 -2 -70
-3 -28 -3 -59 1 -69 4 -11 8 -32 9 -49 2 -18 4 -23 7 -12 2 9 8 17 13 17 5 0
11 8 14 18 7 22 0 -56 -15 -186 -8 -68 -9 -106 -2 -113 6 -6 10 -5 11 3 0 7 5
45 11 83 19 120 29 196 42 305 l12 105 -68 120 c-37 66 -76 134 -86 152 -11
17 -16 34 -12 36 5 3 33 -36 62 -86 77 -131 113 -187 121 -187 4 0 13 48 19
108 6 59 14 129 18 156 6 48 6 49 -20 44 -23 -4 -26 -1 -32 36 -11 64 -3 406
11 446 4 13 6 13 14 0 16 -25 11 -4 -14 63 -24 65 -21 102 8 91 9 -4 15 6 19
28 5 29 3 136 -3 163 -1 6 -2 20 -1 33 1 18 7 22 36 22 46 0 80 -23 96 -63 17
-46 48 -194 44 -214 -2 -10 -4 -27 -5 -38 -1 -24 -49 70 -50 98 0 9 -4 17 -9
17 -4 0 -11 -39 -14 -87 -4 -49 -11 -104 -16 -123 -5 -19 -12 -60 -15 -90 -3
-30 -10 -98 -15 -150 -21 -201 -35 -492 -25 -508 6 -10 11 -37 13 -61 1 -24 8
-56 16 -70 18 -37 30 -101 17 -101 -5 0 -22 39 -38 88 -15 48 -29 80 -30 72
-10 -48 -22 -365 -15 -374 23 -30 29 -109 10 -133 -6 -7 -6 -12 2 -15 6 -2 13
-16 14 -32 3 -24 0 -27 -16 -23 -11 3 -19 1 -17 -5 4 -11 73 -38 100 -38 9 0
18 -3 20 -7 2 -5 19 -16 40 -25 42 -20 43 -19 47 72 3 65 21 94 21 35 0 -28 9
-51 29 -78 l29 -38 12 35 c6 20 9 39 6 44 -2 4 -1 14 4 22 7 12 9 11 9 -5 -1
-30 7 -74 14 -81 3 -3 3 -12 0 -20 -3 -8 0 -14 6 -14 6 0 11 -7 11 -16 0 -11
6 -13 19 -9 14 4 30 -5 57 -35 20 -22 43 -40 51 -40 7 0 13 -7 13 -16 0 -8 5
-12 11 -8 8 4 8 9 0 17 -15 15 -14 27 4 27 8 0 15 -7 15 -15 0 -16 12 -20 23
-8 4 3 26 7 49 9 28 2 48 10 58 23 25 33 65 102 63 109 -1 4 4 14 11 22 8 8
17 33 20 55 8 47 25 103 38 128 7 14 5 24 -7 37 -19 21 -16 62 5 71 23 10 50
-9 50 -36 0 -13 7 -30 15 -39 19 -19 19 -36 -1 -36 -10 0 -14 -7 -12 -17 2
-10 9 -17 15 -16 13 3 25 -50 17 -72 -4 -8 -1 -15 5 -15 7 0 14 6 17 14 3 8
17 16 32 19 15 3 37 14 49 24 24 21 53 85 53 118 0 32 11 38 27 15 8 -11 20
-20 28 -20 7 0 16 -6 19 -12 3 -10 9 -8 19 5 12 14 16 15 21 5 3 -7 4 -1 2 14
-1 15 0 25 4 23 3 -2 12 31 19 74 13 77 31 128 31 86 0 -11 -7 -60 -15 -110
-18 -108 -18 -123 0 -70 l13 40 1 -37 c1 -48 13 -54 50 -22 28 23 32 24 47 10
26 -26 61 -20 70 12 4 15 6 34 5 41 -2 13 0 13 13 2 9 -7 22 -11 30 -8 9 4 16
-4 20 -24 5 -27 26 -42 26 -18 0 5 5 7 11 3 12 -7 12 -6 -10 39 -8 15 -12 29
-9 32 8 9 62 -18 72 -35 8 -12 11 -11 17 10 4 14 7 49 8 78 2 92 21 57 22 -40
1 -62 4 -85 9 -68 5 16 8 19 9 8 1 -16 5 -16 54 3 28 11 53 24 55 29 2 5 9 7
17 4 7 -3 25 2 39 11 25 17 26 20 26 125 l0 108 -62 55 c-73 64 -69 68 -88
-71 -7 -51 -17 -95 -21 -98 -12 -7 -12 -6 11 125 15 91 17 118 7 130 -8 10 -8
12 -1 8 15 -9 20 6 29 76 4 32 11 57 15 57 4 0 2 -34 -5 -75 l-11 -75 31 -30
c29 -28 33 -29 63 -18 l32 12 0 1497 0 1497 -48 -15 c-65 -21 -124 -31 -272
-48 -30 -4 -59 -11 -64 -15 -5 -5 -15 -40 -22 -77 l-13 -68 5 83 c2 45 2 82 0
82 -3 0 -12 -7 -20 -16 -9 -8 -16 -10 -16 -4 0 7 -6 8 -19 0 -24 -12 -178 -14
-185 -1 -7 11 -70 4 -74 -9 -2 -6 -8 -8 -13 -4 -5 3 -9 1 -9 -5 0 -17 -40 -8
-46 11 -3 10 -9 16 -14 13 -5 -3 -21 0 -36 5 -20 8 -29 8 -34 -1 -5 -8 -10 -8
-14 -1 -4 6 -13 9 -21 5 -27 -10 -16 -21 23 -21 89 -1 88 0 90 -32 l2 -30 -47
6 c-104 11 -111 14 -117 38 -6 25 -42 41 -52 24 -3 -5 -11 -3 -17 5 -16 19
-116 30 -156 16 -28 -10 -35 -8 -81 26 -52 38 -105 49 -121 24 -7 -11 -9 -10
-9 6 -1 20 -1 20 -15 1 -15 -20 -15 -20 -16 0 0 18 -1 18 -9 -2 -4 -12 -18
-66 -29 -120 -30 -140 -32 -147 -36 -142 -2 2 6 57 19 123 22 114 40 230 29
193 -5 -20 -19 -24 -25 -6 -2 6 -14 -69 -27 -166 -13 -97 -26 -175 -28 -172
-3 3 1 52 7 111 7 58 10 108 7 111 -3 3 -8 -21 -12 -53 -4 -32 -8 -62 -11 -68
-5 -13 5 157 12 208 5 31 3 36 -10 31 -9 -3 -16 -13 -16 -21 0 -8 -4 -12 -9
-9 -5 3 -12 -11 -15 -32 -4 -20 -14 -64 -21 -97 -14 -55 -15 -56 -11 -15 3 25
10 84 16 131 9 65 10 91 1 105 -11 18 -11 18 -9 -1 2 -11 -4 -21 -14 -23 -12
-2 -15 2 -12 20 4 22 4 22 -8 -2 -12 -25 -12 -25 -15 10 -2 19 -10 67 -20 107
-14 62 -18 69 -30 55 -7 -9 -13 -13 -13 -8 0 17 -30 -17 -30 -35 0 -11 -4 -19
-8 -19 -4 0 -6 32 -4 70 3 47 1 70 -7 70 -6 0 -11 6 -11 13 0 8 -7 14 -15 14
-9 0 -15 -10 -15 -26 0 -14 -7 -38 -14 -53 -8 -15 -26 -112 -41 -215 -27 -194
-35 -237 -41 -230 -2 2 7 90 21 195 13 106 22 198 20 205 -3 6 -1 53 3 104 6
75 5 90 -5 81 -20 -16 -29 0 -11 18 12 12 13 20 4 39 l-11 23 -12 -26 c-12
-25 -13 -24 -7 18 12 85 11 115 -4 139 -11 19 -16 21 -23 10 -6 -10 -9 -7 -9
10 0 24 0 24 -15 5 -13 -17 -14 -13 -8 44 4 40 2 62 -4 62 -12 0 -26 37 -23
63 1 9 -3 17 -9 17 -6 0 -10 19 -10 43 0 23 -5 67 -11 97 -6 30 -12 64 -14 75
-2 11 -5 21 -6 23 -1 1 -3 8 -4 15 0 6 -15 13 -33 15 -37 4 -34 11 -57 -133
l-15 -90 6 104 c4 70 2 102 -5 97 -6 -3 -17 1 -26 9 -14 14 -17 13 -31 -8 -8
-13 -19 -51 -23 -83 -5 -34 -13 -58 -19 -57 -11 2 -18 -36 -53 -302 -24 -179
-24 -128 0 105 23 220 22 216 13 206 -4 -4 -15 -44 -25 -89 -12 -57 -16 -66
-12 -32 6 64 21 178 30 233 l7 42 -70 0 -70 0 -7 -61 c-4 -33 -11 -70 -17 -82
-9 -21 -9 -20 -5 3 3 14 8 52 12 83 l7 57 -1081 0 c-855 0 -1081 -3 -1085 -12
-4 -10 -6 -10 -6 0 -1 9 -77 12 -346 12 l-344 0 -12 -40 c-15 -49 -24 -46 -11
4 l10 36 -334 0 c-259 0 -335 -3 -338 -12z m3121 -35 c-3 -10 -5 -4 -5 12 0
17 2 24 5 18 2 -7 2 -21 0 -30z m-1753 -42 c-4 -28 -9 -50 -11 -47 -3 3 -2 28
2 56 4 28 9 49 12 47 2 -3 1 -28 -3 -56z m-1317 17 c-3 -7 -5 -2 -5 12 0 14 2
19 5 13 2 -7 2 -19 0 -25z m738 -8 c-4 -12 -9 -19 -12 -17 -3 3 -2 15 2 27 4
12 9 19 12 17 3 -3 2 -15 -2 -27z m1406 -2 c11 -21 11 -22 -4 -9 -10 7 -17 17
-17 22 0 15 9 10 21 -13z m916 -35 c-3 -10 -5 -4 -5 12 0 17 2 24 5 18 2 -7 2
-21 0 -30z m-527 -24 c0 -16 -4 -29 -10 -29 -5 0 -10 16 -10 36 0 21 4 33 10
29 6 -3 10 -19 10 -36z m517 -36 c-3 -10 -5 -4 -5 12 0 17 2 24 5 18 2 -7 2
-21 0 -30z m-777 -20 c-11 -17 -11 -17 -6 0 3 10 6 24 7 30 0 9 2 9 5 0 3 -7
0 -20 -6 -30z m-381 -89 c-7 -43 -14 -73 -17 -66 -5 15 18 155 25 148 3 -2 -1
-40 -8 -82z m1148 29 c-3 -10 -5 -2 -5 17 0 19 2 27 5 18 2 -10 2 -26 0 -35z
m-10 -60 c-3 -10 -5 -4 -5 12 0 17 2 24 5 18 2 -7 2 -21 0 -30z m503 -58 c-7
-45 -7 -46 -9 -13 -1 32 8 74 14 66 1 -2 -1 -25 -5 -53z m-1016 13 c6 -25 24
-22 29 5 4 18 5 17 6 -6 l1 -28 -57 7 c-32 4 -67 10 -78 15 -19 7 -19 8 3 8
13 1 21 5 18 10 -3 5 12 8 34 7 28 0 40 -5 44 -18z m503 -25 c-3 -10 -5 -2 -5
17 0 19 2 27 5 18 2 -10 2 -26 0 -35z m580 0 c-3 -10 -5 -2 -5 17 0 19 2 27 5
18 2 -10 2 -26 0 -35z m167 -22 c11 -12 15 -21 10 -21 -10 1 -84 67 -84 76 0
8 52 -30 74 -55z m-1897 17 c-3 -8 -6 -5 -6 6 -1 11 2 17 5 13 3 -3 4 -12 1
-19z m1726 -38 c3 -10 1 -22 -3 -27 -5 -4 -10 -17 -13 -28 -2 -11 -3 -3 0 19
2 21 -2 45 -8 52 -9 12 -9 13 4 9 8 -4 17 -15 20 -25z m-586 -17 c-3 -10 -5
-4 -5 12 0 17 2 24 5 18 2 -7 2 -21 0 -30z m510 -35 c-2 -13 -4 -5 -4 17 -1
22 1 32 4 23 2 -10 2 -28 0 -40z m-520 -35 c-3 -10 -5 -2 -5 17 0 19 2 27 5
18 2 -10 2 -26 0 -35z m510 -40 c-3 -10 -5 -2 -5 17 0 19 2 27 5 18 2 -10 2
-26 0 -35z m-520 -15 c-3 -7 -5 -2 -5 12 0 14 2 19 5 13 2 -7 2 -19 0 -25z
m580 10 c-3 -8 -6 -5 -6 6 -1 11 2 17 5 13 3 -3 4 -12 1 -19z m-1117 -18 c0
-5 -5 -10 -11 -10 -5 0 -7 5 -4 10 3 6 8 10 11 10 2 0 4 -4 4 -10z m1020 -294
c-18 -127 -38 -269 -46 -316 l-13 -85 5 70 c3 39 21 183 40 320 18 138 35 264
36 280 1 29 1 29 5 -4 3 -19 -10 -138 -27 -265z m137 222 c-2 -13 -4 -5 -4 17
-1 22 1 32 4 23 2 -10 2 -28 0 -40z m-1700 -15 c-3 -10 -5 -4 -5 12 0 17 2 24
5 18 2 -7 2 -21 0 -30z m2148 17 c3 -5 1 -10 -4 -10 -6 0 -11 5 -11 10 0 6 2
10 4 10 3 0 8 -4 11 -10z m-988 -42 c-3 -8 -6 -5 -6 6 -1 11 2 17 5 13 3 -3 4
-12 1 -19z m163 12 c0 -5 -4 -10 -10 -10 -5 0 -10 5 -10 10 0 6 5 10 10 10 6
0 10 -4 10 -10z m68 -7 c-10 -2 -28 -2 -40 0 -13 2 -5 4 17 4 22 1 32 -1 23
-4z m-1401 -40 c-3 -10 -5 -4 -5 12 0 17 2 24 5 18 2 -7 2 -21 0 -30z m1463
-3 c-5 -22 -8 -27 -9 -13 -1 21 9 56 14 51 2 -2 0 -19 -5 -38z m237 -12 c-2
-13 -4 -5 -4 17 -1 22 1 32 4 23 2 -10 2 -28 0 -40z m-637 -21 c0 -11 -68 45
-69 56 -1 4 15 -5 34 -20 19 -15 35 -32 35 -36z m90 -57 l-11 -25 6 25 c2 14
6 45 7 70 l2 45 3 -45 c2 -25 -1 -57 -7 -70z m-843 33 c-3 -10 -5 -4 -5 12 0
17 2 24 5 18 2 -7 2 -21 0 -30z m1380 -45 c-2 -13 -4 -5 -4 17 -1 22 1 32 4
23 2 -10 2 -28 0 -40z m-97 -78 c-7 -44 -15 -79 -17 -76 -2 2 1 41 8 85 6 45
14 80 16 77 3 -3 0 -42 -7 -86z m353 74 c26 -3 46 -8 44 -11 -9 -8 -127 10
-127 19 0 5 8 7 18 4 9 -3 39 -8 65 -12z m-1756 -26 c-3 -8 -6 -5 -6 6 -1 11
2 17 5 13 3 -3 4 -12 1 -19z m1923 3 c0 -10 -8 -12 -31 -7 -17 3 -42 6 -55 6
-13 0 -24 3 -24 8 0 4 25 7 55 7 40 0 55 -4 55 -14z m-433 -53 c-2 -13 -4 -5
-4 17 -1 22 1 32 4 23 2 -10 2 -28 0 -40z m-390 10 c-3 -7 -5 -2 -5 12 0 14 2
19 5 13 2 -7 2 -19 0 -25z m-136 -39 c-5 -30 -9 -42 -10 -28 -1 30 10 92 15
86 3 -2 0 -28 -5 -58z m-974 19 c-3 -7 -5 -2 -5 12 0 14 2 19 5 13 2 -7 2 -19
0 -25z m154 -8 c13 -10 19 -19 13 -20 -7 0 -22 9 -35 20 -13 10 -19 19 -13 20
7 0 22 -9 35 -20z m946 -32 c-3 -7 -5 -2 -5 12 0 14 2 19 5 13 2 -7 2 -19 0
-25z m-1110 -20 c-3 -7 -5 -2 -5 12 0 14 2 19 5 13 2 -7 2 -19 0 -25z m1500
-20 c-2 -13 -4 -5 -4 17 -1 22 1 32 4 23 2 -10 2 -28 0 -40z m-400 -10 c-3 -8
-6 -5 -6 6 -1 11 2 17 5 13 3 -3 4 -12 1 -19z m-1110 -25 c-3 -10 -5 -4 -5 12
0 17 2 24 5 18 2 -7 2 -21 0 -30z m968 -121 c-10 -75 -19 -139 -21 -141 -8 -8
-4 45 11 154 8 61 15 119 16 130 0 11 3 14 6 7 2 -7 -3 -74 -12 -150z m442
121 c-3 -10 -5 -4 -5 12 0 17 2 24 5 18 2 -7 2 -21 0 -30z m-1612 -22 c-4 -17
-11 -31 -16 -31 -11 0 -11 0 2 39 14 39 23 34 14 -8z m98 -12 c-6 -6 -7 3 -4
23 4 28 6 29 9 9 2 -13 0 -27 -5 -32z m1204 -1 c-3 -8 -6 -5 -6 6 -1 11 2 17
5 13 3 -3 4 -12 1 -19z m400 -25 c-3 -10 -5 -2 -5 17 0 19 2 27 5 18 2 -10 2
-26 0 -35z m-100 5 c-3 -7 -5 -2 -5 12 0 14 2 19 5 13 2 -7 2 -19 0 -25z m198
-58 c-4 -28 -9 -49 -12 -47 -2 3 -1 28 3 56 4 28 9 50 11 47 3 -3 2 -28 -2
-56z m-375 -10 c0 -22 -3 -40 -8 -40 -4 0 -6 18 -4 40 2 22 6 40 8 40 2 0 4
-18 4 -40z m264 -64 c-4 -42 -9 -74 -12 -72 -2 3 -1 39 3 81 4 42 9 74 11 72
3 -3 2 -39 -2 -81z m-407 32 c-3 -7 -5 -2 -5 12 0 14 2 19 5 13 2 -7 2 -19 0
-25z m-1227 -28 c0 -20 -2 -22 -10 -10 -5 8 -10 26 -10 40 0 20 2 22 10 10 5
-8 10 -26 10 -40z m2625 40 c3 -5 1 -10 -4 -10 -6 0 -11 5 -11 10 0 6 2 10 4
10 3 0 8 -4 11 -10z m-2285 -108 c-1 -9 -90 90 -90 101 0 4 20 -15 45 -43 25
-28 45 -54 45 -58z m2310 84 c0 -10 -43 -77 -47 -73 -6 7 29 77 39 77 4 0 8
-2 8 -4z m-1433 -38 c-3 -8 -6 -5 -6 6 -1 11 2 17 5 13 3 -3 4 -12 1 -19z
m504 -38 c-5 -25 -9 -35 -10 -24 -1 28 11 92 16 79 1 -6 -1 -30 -6 -55z
m-1280 -95 c5 -11 -10 3 -35 30 -25 28 -46 55 -46 60 0 12 66 -61 81 -90z
m766 73 c-3 -8 -6 -5 -6 6 -1 11 2 17 5 13 3 -3 4 -12 1 -19z m290 -25 c-3
-10 -5 -2 -5 17 0 19 2 27 5 18 2 -10 2 -26 0 -35z m-1500 -20 c-3 -10 -5 -4
-5 12 0 17 2 24 5 18 2 -7 2 -21 0 -30z m1090 0 c-3 -10 -5 -4 -5 12 0 17 2
24 5 18 2 -7 2 -21 0 -30z m530 0 c-3 -10 -5 -4 -5 12 0 17 2 24 5 18 2 -7 2
-21 0 -30z m-1267 -8 c0 -7 -5 -17 -11 -21 -16 -9 -43 21 -36 41 5 13 11 14
27 5 11 -6 20 -17 20 -25z m2047 -12 c-3 -10 -5 -2 -5 17 0 19 2 27 5 18 2
-10 2 -26 0 -35z m503 -88 l-7 -130 -1 117 c-2 100 3 157 13 146 2 -2 0 -61
-5 -133z m-2203 103 c-3 -8 -6 -5 -6 6 -1 11 2 17 5 13 3 -3 4 -12 1 -19z
m1010 -10 c-3 -7 -5 -2 -5 12 0 14 2 19 5 13 2 -7 2 -19 0 -25z m760 -40 c-2
-13 -4 -3 -4 22 0 25 2 35 4 23 2 -13 2 -33 0 -45z m1110 15 c-3 -10 -5 -2 -5
17 0 19 2 27 5 18 2 -10 2 -26 0 -35z m-580 15 c-3 -8 -6 -5 -6 6 -1 11 2 17
5 13 3 -3 4 -12 1 -19z m-3206 -11 c-10 -9 -11 -8 -5 6 3 10 9 15 12 12 3 -3
0 -11 -7 -18z m196 -19 c-3 -7 -5 -2 -5 12 0 14 2 19 5 13 2 -7 2 -19 0 -25z
m3610 -5 c-3 -10 -5 -4 -5 12 0 17 2 24 5 18 2 -7 2 -21 0 -30z m-2587 2 c50
-32 60 -31 61 3 2 21 3 19 8 -11 3 -21 9 -38 14 -37 9 0 50 -40 45 -45 -4 -4
-172 96 -185 109 -16 16 22 3 57 -19z m1407 -12 c-3 -10 -5 -4 -5 12 0 17 2
24 5 18 2 -7 2 -21 0 -30z m-810 -20 c-3 -10 -5 -2 -5 17 0 19 2 27 5 18 2
-10 2 -26 0 -35z m90 15 c-3 -7 -5 -2 -5 12 0 14 2 19 5 13 2 -7 2 -19 0 -25z
m690 -20 c-2 -13 -4 -5 -4 17 -1 22 1 32 4 23 2 -10 2 -28 0 -40z m600 10 c-3
-8 -6 -5 -6 6 -1 11 2 17 5 13 3 -3 4 -12 1 -19z m573 -78 c-7 -50 -15 -88
-17 -86 -3 3 1 46 7 96 7 50 15 88 17 86 3 -3 -1 -46 -7 -96z m-3935 40 c-4
-23 -9 -39 -11 -37 -3 2 -2 23 2 46 4 23 9 40 11 37 3 -3 2 -23 -2 -46z m-318
-2 c-3 -7 -5 -2 -5 12 0 14 2 19 5 13 2 -7 2 -19 0 -25z m3150 -15 c-3 -10 -5
-4 -5 12 0 17 2 24 5 18 2 -7 2 -21 0 -30z m1130 15 c-3 -8 -6 -5 -6 6 -1 11
2 17 5 13 3 -3 4 -12 1 -19z m-2520 -20 c-3 -8 -6 -5 -6 6 -1 11 2 17 5 13 3
-3 4 -12 1 -19z m1288 -244 c-14 -142 -31 -329 -39 -414 l-14 -155 4 115 c2
73 0 106 -5 90 -14 -39 -12 -1 3 91 8 46 22 152 30 234 17 162 38 307 43 301
2 -1 -8 -119 -22 -262z m52 204 c-2 -13 -4 -3 -4 22 0 25 2 35 4 23 2 -13 2
-33 0 -45z m-810 20 c-3 -7 -5 -2 -5 12 0 14 2 19 5 13 2 -7 2 -19 0 -25z
m1570 10 c-3 -8 -6 -5 -6 6 -1 11 2 17 5 13 3 -3 4 -12 1 -19z m-3870 -20 c-3
-8 -6 -5 -6 6 -1 11 2 17 5 13 3 -3 4 -12 1 -19z m673 -3 c0 -8 -4 -15 -10
-15 -5 0 -7 7 -4 15 4 8 8 15 10 15 2 0 4 -7 4 -15z m697 -17 c-3 -7 -5 -2 -5
12 0 14 2 19 5 13 2 -7 2 -19 0 -25z m390 -25 c-3 -10 -5 -2 -5 17 0 19 2 27
5 18 2 -10 2 -26 0 -35z m-45 15 c10 -16 10 -20 -1 -37 -18 -28 -100 12 -87
44 5 14 14 16 43 12 20 -4 40 -12 45 -19z m645 0 c-3 -8 -6 -5 -6 6 -1 11 2
17 5 13 3 -3 4 -12 1 -19z m2350 -20 c-3 -7 -5 -2 -5 12 0 14 2 19 5 13 2 -7
2 -19 0 -25z m-1560 -20 c-3 -7 -5 -2 -5 12 0 14 2 19 5 13 2 -7 2 -19 0 -25z
m-1041 1 c36 -22 47 -37 15 -19 -26 13 -31 13 -27 -2 1 -7 1 -10 -1 -6 -3 4
-3 10 -1 12 2 3 -6 12 -17 20 -30 23 -7 19 31 -5z m991 -26 c-3 -10 -5 -4 -5
12 0 17 2 24 5 18 2 -7 2 -21 0 -30z m488 -170 c-4 -109 -11 -216 -16 -238 -8
-39 -8 -38 -4 10 2 28 7 134 11 238 4 103 9 187 12 187 3 0 1 -89 -3 -197z
m-1238 165 c-3 -8 -6 -5 -6 6 -1 11 2 17 5 13 3 -3 4 -12 1 -19z m2350 -15
c-3 -10 -5 -4 -5 12 0 17 2 24 5 18 2 -7 2 -21 0 -30z m-462 -33 c-4 -28 -9
-49 -12 -47 -2 3 -1 28 3 56 4 28 9 50 11 47 3 -3 2 -28 -2 -56z m-1440 20
c-9 -16 -18 -30 -21 -30 -2 0 2 14 11 30 9 17 18 30 21 30 2 0 -2 -13 -11 -30z
m-458 -32 c-3 -7 -5 -2 -5 12 0 14 2 19 5 13 2 -7 2 -19 0 -25z m750 -25 c-3
-10 -5 -2 -5 17 0 19 2 27 5 18 2 -10 2 -26 0 -35z m1600 15 c-3 -8 -6 -5 -6
6 -1 11 2 17 5 13 3 -3 4 -12 1 -19z m-2360 -50 c-3 -8 -6 -5 -6 6 -1 11 2 17
5 13 3 -3 4 -12 1 -19z m750 -70 c-2 -13 -4 -5 -4 17 -1 22 1 32 4 23 2 -10 2
-28 0 -40z m-760 10 c-3 -7 -5 -2 -5 12 0 14 2 19 5 13 2 -7 2 -19 0 -25z
m143 -34 c28 -39 40 -94 22 -94 -14 0 -92 108 -92 128 0 33 37 15 70 -34z
m-153 -31 c-3 -10 -5 -4 -5 12 0 17 2 24 5 18 2 -7 2 -21 0 -30z m760 -5 c-3
-7 -5 -2 -5 12 0 14 2 19 5 13 2 -7 2 -19 0 -25z m-3775 -13 c-2 -15 -11 -25
-21 -25 -29 0 -33 13 -9 32 31 24 36 22 30 -7z m3433 -35 c-4 -23 -9 -39 -12
-36 -3 2 -2 23 2 46 4 23 9 39 12 36 3 -2 2 -23 -2 -46z m65 -60 c57 -43 58
-43 69 -8 8 27 9 22 6 -32 -3 -36 -9 -78 -15 -95 -9 -26 -9 -24 -6 22 l3 52
-59 47 c-79 64 -78 75 2 14z m-503 8 c-3 -8 -6 -5 -6 6 -1 11 2 17 5 13 3 -3
4 -12 1 -19z m770 -35 c-3 -10 -5 -2 -5 17 0 19 2 27 5 18 2 -10 2 -26 0 -35z
m368 -25 c8 -21 12 -38 8 -38 -5 0 -16 21 -25 46 -19 54 -7 47 17 -8z m-378
-55 c-3 -10 -5 -2 -5 17 0 19 2 27 5 18 2 -10 2 -26 0 -35z m150 5 c-3 -8 -6
-5 -6 6 -1 11 2 17 5 13 3 -3 4 -12 1 -19z m-10 -60 c-3 -8 -6 -5 -6 6 -1 11
2 17 5 13 3 -3 4 -12 1 -19z m-350 -55 c-3 -10 -5 -4 -5 12 0 17 2 24 5 18 2
-7 2 -21 0 -30z m330 -80 c-3 -10 -5 -4 -5 12 0 17 2 24 5 18 2 -7 2 -21 0
-30z m-353 -72 c-4 -28 -9 -50 -11 -47 -3 3 -2 28 2 56 4 28 9 49 12 47 2 -3
1 -28 -3 -56z m181 -106 c-4 -58 -10 -104 -12 -101 -3 3 -2 52 2 111 4 58 10
104 12 101 3 -3 2 -52 -2 -111z m69 -87 c-15 -92 -30 -165 -32 -163 -3 2 8 87
24 187 16 101 30 174 32 163 3 -11 -8 -95 -24 -187z m-482 122 c4 0 8 -5 8
-11 0 -5 -4 -8 -9 -4 -6 3 -6 -6 -1 -25 5 -16 5 -42 1 -57 l-8 -28 -6 30 c-3
17 -8 55 -11 85 -5 46 -4 51 6 33 6 -13 15 -23 20 -23z m1593 -81 c75 -42 70
-47 -7 -7 -73 37 -75 38 -60 38 7 0 37 -14 67 -31z m-1333 -6 c-3 -16 -7 -22
-10 -15 -4 13 4 42 11 42 2 0 2 -12 -1 -27z m957 -67 c17 -29 31 -57 31 -62 0
-10 -80 111 -80 121 0 16 22 -10 49 -59z m-997 -13 c-6 -65 -10 -70 -11 -15 0
28 3 52 7 52 4 0 6 -17 4 -37z m55 -5 c-3 -8 -6 -5 -6 6 -1 11 2 17 5 13 3 -3
4 -12 1 -19z m-30 -10 c-3 -8 -6 -5 -6 6 -1 11 2 17 5 13 3 -3 4 -12 1 -19z
m150 -25 c-3 -10 -5 -4 -5 12 0 17 2 24 5 18 2 -7 2 -21 0 -30z m-110 -5 c-3
-8 -6 -5 -6 6 -1 11 2 17 5 13 3 -3 4 -12 1 -19z m-50 -60 c-3 -7 -5 -2 -5 12
0 14 2 19 5 13 2 -7 2 -19 0 -25z m-30 -60 c-2 -13 -4 -3 -4 22 0 25 2 35 4
23 2 -13 2 -33 0 -45z m240 10 c-3 -8 -6 -5 -6 6 -1 11 2 17 5 13 3 -3 4 -12
1 -19z m416 2 c3 -11 1 -18 -4 -14 -5 3 -9 12 -9 20 0 20 7 17 13 -6z m-636
-32 c-3 -8 -6 -5 -6 6 -1 11 2 17 5 13 3 -3 4 -12 1 -19z m1258 -75 c-4 -42
-11 -86 -16 -97 -7 -17 -8 -15 -5 9 3 17 8 60 11 98 4 37 9 67 12 67 3 0 2
-35 -2 -77z m-1296 -195 c-6 -53 -9 -119 -6 -147 3 -28 2 -51 -3 -51 -5 0 -11
-15 -13 -32 -3 -30 -4 -29 -5 8 -2 29 -11 52 -32 79 -33 41 -36 50 -19 61 7 4
20 -4 30 -17 l17 -24 6 25 c9 42 26 214 28 282 l2 63 4 -75 c2 -41 -2 -118 -9
-172z m-161 119 c29 -28 42 -57 26 -57 -15 0 -94 72 -94 85 0 20 29 8 68 -28z
m-1007 -104 c10 -11 9 -17 -3 -30 -22 -21 -58 -8 -58 21 0 18 6 24 25 24 13 0
30 -7 36 -15z m1226 -20 c-3 -10 -5 -4 -5 12 0 17 2 24 5 18 2 -7 2 -21 0 -30z
m580 -40 c-3 -10 -5 -4 -5 12 0 17 2 24 5 18 2 -7 2 -21 0 -30z m403 2 l25
-30 -27 24 c-16 14 -28 29 -28 34 0 6 1 8 3 6 1 -2 13 -17 27 -34z m-1823 -7
c-3 -13 -9 -44 -12 -71 -4 -26 -12 -50 -18 -54 -6 -4 -8 6 -4 28 4 19 9 53 13
77 4 23 11 42 16 42 6 0 8 -10 5 -22z m830 -25 c-3 -10 -5 -2 -5 17 0 19 2 27
5 18 2 -10 2 -26 0 -35z m-3550 -35 c-2 -13 -4 -5 -4 17 -1 22 1 32 4 23 2
-10 2 -28 0 -40z m4594 5 c13 -16 12 -17 -3 -4 -17 13 -22 21 -14 21 2 0 10
-8 17 -17z m-1054 -35 c-3 -7 -5 -2 -5 12 0 14 2 19 5 13 2 -7 2 -19 0 -25z
m-1369 10 c31 -31 -3 -104 -45 -96 -13 2 -19 14 -21 39 -4 53 35 88 66 57z
m1417 -80 c-10 -40 -22 -77 -27 -83 -7 -7 -8 -3 -5 10 4 11 14 51 23 88 9 37
19 66 21 63 3 -3 -2 -38 -12 -78z m-3575 -33 l-7 -80 -2 76 c-1 64 5 97 15 87
1 -2 -1 -39 -6 -83z m3517 38 c-3 -10 -5 -4 -5 12 0 17 2 24 5 18 2 -7 2 -21
0 -30z m1650 -45 c-3 -8 -6 -5 -6 6 -1 11 2 17 5 13 3 -3 4 -12 1 -19z m-4987
-29 c0 -33 -14 -72 -38 -109 -2 -3 -12 6 -23 19 -26 32 -24 77 6 106 37 38 55
33 55 -16z m3327 4 c-3 -10 -5 -4 -5 12 0 17 2 24 5 18 2 -7 2 -21 0 -30z
m-587 -20 c12 -16 27 -28 33 -28 15 0 21 -29 13 -61 -5 -17 -13 -24 -31 -24
-20 0 -30 10 -50 51 -39 76 -13 123 35 62z m256 -10 c3 1 13 -17 24 -40 16
-37 17 -43 4 -62 -22 -30 -49 -26 -77 12 -41 55 -49 75 -37 97 10 19 13 19 46
5 19 -8 37 -13 40 -12z m321 -50 c-3 -10 -5 -2 -5 17 0 19 2 27 5 18 2 -10 2
-26 0 -35z m402 -118 c0 -5 -18 28 -40 74 -21 46 -39 86 -38 90 1 9 78 -153
78 -164z m-412 58 c-3 -10 -5 -4 -5 12 0 17 2 24 5 18 2 -7 2 -21 0 -30z
m1650 5 c-3 -8 -6 -5 -6 6 -1 11 2 17 5 13 3 -3 4 -12 1 -19z m-3407 -27 c0
-24 -10 -51 -19 -51 -4 0 -5 16 -3 35 4 37 22 49 22 16z m1740 -81 l-11 -25 6
25 c2 14 6 39 6 55 l2 30 4 -30 c2 -17 -1 -42 -7 -55z m1657 58 c-3 -8 -6 -5
-6 6 -1 11 2 17 5 13 3 -3 4 -12 1 -19z m-1040 -40 c-3 -8 -6 -5 -6 6 -1 11 2
17 5 13 3 -3 4 -12 1 -19z m-90 -45 c-3 -10 -5 -2 -5 17 0 19 2 27 5 18 2 -10
2 -26 0 -35z m-3882 -21 c-3 -26 -8 -48 -10 -50 -4 -5 -35 65 -35 79 0 5 7 9
15 9 8 0 15 5 15 11 0 5 5 7 11 4 6 -5 8 -25 4 -53z m1049 28 c25 -25 33 -117
15 -172 -11 -36 -15 -39 -38 -33 -14 3 -39 9 -54 12 -34 7 -52 40 -62 110 -6
50 -5 54 24 84 27 26 37 30 64 25 18 -4 41 -15 51 -26z m2816 -89 c-6 -27 -9
-59 -5 -71 6 -20 -3 -121 -30 -345 -8 -68 -13 -85 -14 -54 0 25 8 117 19 205
27 216 24 230 -10 40 -27 -147 -40 -197 -40 -150 0 20 67 387 76 417 12 40 16
5 4 -42z m-3083 43 c-3 -3 -12 -4 -19 -1 -8 3 -5 6 6 6 11 1 17 -2 13 -5z
m-562 -94 c19 0 20 -16 0 -24 -8 -3 -15 -11 -15 -17 0 -8 4 -8 14 0 12 10 13
7 3 -24 -7 -24 -13 -31 -18 -23 -7 10 -12 9 -25 -4 -16 -16 -18 -15 -34 5 -31
40 -34 76 -8 97 20 17 25 17 45 4 12 -8 29 -14 38 -14z m3970 -17 c3 -21 9
-49 12 -63 3 -14 3 -22 -1 -18 -4 3 -12 26 -17 50 -5 24 -12 51 -15 62 -4 11
-2 16 4 12 5 -3 13 -23 17 -43z m244 18 c23 -13 19 -78 -6 -96 -23 -17 -26
-14 -53 36 -22 43 -19 54 15 62 11 3 21 5 23 6 2 0 11 -3 21 -8z m-1638 -71
c34 -49 34 -68 -3 -83 -32 -13 -34 -13 -55 16 -31 41 -37 65 -22 83 18 21 59
13 80 -16z m-434 -22 c-3 -8 -6 -5 -6 6 -1 11 2 17 5 13 3 -3 4 -12 1 -19z
m-1399 -41 c13 -14 25 -43 28 -70 8 -54 -9 -76 -58 -77 -35 0 -49 26 -55 104
l-5 61 34 2 c25 2 41 -4 56 -20z m1878 -22 c-3 -8 -10 -15 -15 -15 -7 0 -6 10
1 26 12 26 25 16 14 -11z m-2432 -106 c8 -41 11 -78 6 -82 -6 -7 -30 116 -30
155 0 28 11 -5 24 -73z m3711 -41 c10 -62 19 -132 20 -155 2 -26 14 -57 32
-85 39 -56 45 -68 39 -68 -8 0 -136 182 -136 193 0 6 11 -4 25 -23 14 -19 25
-28 25 -22 0 15 -28 208 -36 245 -3 15 -1 27 4 27 5 0 17 -51 27 -112z m-1427
47 c-23 -27 -34 -33 -22 -12 14 23 26 37 35 37 5 0 -1 -11 -13 -25z m449 -17
c-3 -8 -6 -5 -6 6 -1 11 2 17 5 13 3 -3 4 -12 1 -19z m818 -45 c-18 -104 -46
-322 -44 -343 1 -14 -2 -33 -6 -43 -4 -9 -5 -28 -3 -42 3 -13 2 -22 -2 -20 -4
3 -11 -26 -15 -63 -8 -83 -15 -125 -21 -131 -14 -14 -14 21 -1 126 9 65 15
141 16 168 0 28 7 73 16 99 9 27 18 72 20 100 4 71 26 176 36 176 5 0 6 -12 4
-27z m-3211 -18 c3 -9 3 -36 -1 -60 -5 -42 -8 -45 -35 -45 -29 0 -30 1 -23 43
4 23 11 50 17 60 11 21 34 22 42 2z m97 -95 c10 0 3 -64 -9 -85 -10 -16 -20
35 -20 95 0 51 1 52 9 23 5 -18 14 -33 20 -33z m-1416 14 c-4 -26 -2 -39 7
-45 9 -6 5 -9 -13 -9 -23 0 -25 3 -22 33 6 46 11 57 24 57 8 0 9 -12 4 -36z
m3740 -14 c3 -5 -1 -10 -10 -10 -9 0 -13 5 -10 10 3 6 8 10 10 10 2 0 7 -4 10
-10z m-2365 -10 c0 -5 -2 -10 -4 -10 -3 0 -8 5 -11 10 -3 6 -1 10 4 10 6 0 11
-4 11 -10z m715 -40 c3 -5 -4 -26 -15 -47 -11 -21 -20 -42 -20 -48 0 -18 -52
-36 -67 -24 -16 14 -17 29 0 29 6 0 26 23 42 50 29 48 47 60 60 40z m2312 -12
c-3 -8 -6 -5 -6 6 -1 11 2 17 5 13 3 -3 4 -12 1 -19z m-2482 -55 c-10 -53 -19
-31 -10 24 5 26 10 40 13 30 2 -11 1 -35 -3 -54z m2690 -64 c-17 -110 -53
-305 -61 -328 -2 -8 -7 -11 -10 -8 -5 5 61 403 72 436 2 8 7 12 10 9 2 -3 -2
-52 -11 -109z m-4499 86 c17 -13 16 -14 -13 -4 -34 11 -42 19 -20 19 7 0 22
-7 33 -15z m1214 5 c0 -5 7 -10 15 -10 8 0 15 -9 15 -20 0 -11 7 -20 15 -20 8
0 12 -6 10 -12 -3 -7 -9 -51 -15 -98 -22 -183 -41 -249 -64 -229 -6 5 -19 15
-29 22 -17 12 -18 18 -8 53 6 21 11 54 11 73 0 28 -3 33 -19 28 -25 -6 -35 1
-55 41 -13 24 -16 45 -11 73 11 64 34 84 103 88 7 1 10 6 7 11 -3 6 1 10 9 10
9 0 16 -4 16 -10z m-1220 -24 c0 -3 -4 -8 -10 -11 -5 -3 -10 -1 -10 4 0 6 5
11 10 11 6 0 10 -2 10 -4z m4287 -18 c-3 -8 -6 -5 -6 6 -1 11 2 17 5 13 3 -3
4 -12 1 -19z m-5438 -69 c-25 -25 -29 -33 -18 -40 11 -7 10 -9 -4 -9 -13 0
-17 6 -15 23 2 12 9 21 16 19 8 -1 11 2 7 8 -9 15 4 30 26 30 17 0 15 -4 -12
-31z m1940 -109 c0 -84 -5 -140 -11 -140 -6 0 -9 35 -7 88 1 48 1 92 -1 97 -5
13 9 95 15 95 3 0 5 -63 4 -140z m3941 70 c40 -62 34 -77 -6 -18 -44 64 -46
68 -36 68 6 0 24 -23 42 -50z m-463 -2 c-3 -8 -6 -5 -6 6 -1 11 2 17 5 13 3
-3 4 -12 1 -19z m1025 -27 c0 -23 4 -41 9 -41 5 0 9 -9 9 -20 0 -11 -4 -20 -9
-20 -5 0 -16 -3 -25 -6 -19 -7 -21 13 -5 86 13 59 20 60 21 1z m-6117 9 c3 -5
-4 -6 -15 -3 -11 3 -22 9 -25 13 -3 5 4 6 15 3 11 -3 22 -9 25 -13z m5080
-105 c-4 -31 -10 -54 -12 -51 -3 3 -2 30 2 61 3 31 9 54 12 52 2 -3 1 -31 -2
-62z m-2737 33 c14 -17 8 -137 -8 -168 -31 -61 -54 -60 -71 4 -16 58 -14 86
11 134 22 43 48 54 68 30z m3242 -48 c-20 -12 -55 5 -55 26 0 11 10 20 25 24
20 5 27 2 34 -18 6 -17 5 -27 -4 -32z m-5930 24 c0 -2 -7 -4 -15 -4 -8 0 -15
4 -15 10 0 5 7 7 15 4 8 -4 15 -8 15 -10z m6397 -36 c-3 -7 -5 -2 -5 12 0 14
2 19 5 13 2 -7 2 -19 0 -25z m-6163 4 c2 -4 -4 -9 -15 -9 -11 -1 -17 2 -14 8
7 11 22 12 29 1z m138 -24 c-9 -9 -15 -9 -24 0 -9 9 -7 12 12 12 19 0 21 -3
12 -12z m-849 -33 c-3 -9 -8 -14 -10 -11 -3 3 -2 9 2 15 9 16 15 13 8 -4z m47
5 c0 -5 -4 -10 -10 -10 -5 0 -10 5 -10 10 0 6 5 10 10 10 6 0 10 -4 10 -10z
m-27 -35 c-3 -8 -9 -15 -14 -15 -5 0 -9 -7 -9 -15 0 -8 -4 -15 -10 -15 -5 0
-10 5 -10 10 0 15 -49 -22 -50 -37 0 -18 -20 -16 -20 2 0 8 14 24 30 37 17 12
30 28 30 35 0 7 6 10 14 7 8 -3 17 0 21 5 9 16 25 3 18 -14z m111 3 c-5 -7 -9
-21 -9 -32 0 -10 -10 -25 -22 -33 -21 -14 -21 -13 4 36 15 28 28 49 31 47 2
-3 0 -11 -4 -18z m2598 -22 c4 -5 4 -15 0 -21 -3 -5 -7 -17 -9 -25 -1 -8 -6
-16 -11 -18 -5 -1 -7 -15 -4 -30 2 -17 -2 -33 -12 -41 -20 -17 -62 -10 -59 9
6 47 33 134 44 140 14 9 40 2 51 -14z m-2674 -82 c-1 -36 -6 -68 -10 -70 -8
-5 -9 116 -1 129 11 18 14 2 11 -59z m2788 -8 c-2 -41 -12 -87 -20 -103 l-15
-28 -1 31 c0 34 29 174 37 174 2 0 2 -33 -1 -74z m-2101 44 c-3 -4 1 -11 7
-14 9 -3 7 -9 -7 -20 -17 -14 -21 -14 -34 -1 -13 13 -13 17 5 34 18 18 40 19
29 1z m253 -13 c19 -52 16 -56 -32 -54 l-44 2 0 43 c0 41 1 42 32 42 27 0 34
-5 44 -33z m-897 -60 c-8 -8 -14 -8 -23 1 -9 9 -9 12 1 12 7 0 11 6 9 12 -3 7
0 18 6 24 8 9 12 5 14 -13 2 -14 -1 -30 -7 -36z m1149 21 c0 -6 -6 -5 -15 2
-8 7 -15 14 -15 16 0 2 7 1 15 -2 8 -4 15 -11 15 -16z m1962 7 c0 -5 -5 -11
-11 -13 -6 -2 -11 4 -11 13 0 9 5 15 11 13 6 -2 11 -8 11 -13z m-2668 -1 c9
-3 16 -12 16 -20 0 -8 7 -14 16 -14 8 0 12 -4 9 -10 -3 -5 -1 -10 5 -10 7 0
10 -6 8 -12 -7 -19 -66 -28 -78 -12 -16 18 -19 68 -6 76 14 9 11 9 30 2z
m1806 -14 c0 -5 -5 -10 -11 -10 -5 0 -7 5 -4 10 3 6 8 10 11 10 2 0 4 -4 4
-10z m-2173 -52 c-3 -8 -6 -5 -6 6 -1 11 2 17 5 13 3 -3 4 -12 1 -19z m-222
-17 c-3 -12 -10 -21 -15 -21 -5 0 -4 11 2 25 13 29 23 26 13 -4z m151 -27
c-15 -27 -16 -27 -10 -4 4 14 7 31 7 38 0 8 4 9 10 3 5 -5 2 -20 -7 -37z m21
-31 c-3 -21 -3 -30 -1 -20 3 9 10 17 15 17 12 0 11 -8 -10 -55 l-18 -40 -6 44
c-5 41 5 91 19 91 3 0 4 -17 1 -37z m197 0 c-9 -37 -10 -38 -29 -20 -24 24
-19 47 10 47 23 0 25 -3 19 -27z m62 -18 c-8 -8 -22 -15 -32 -15 -13 0 -14 3
-4 15 7 8 21 15 32 15 17 0 18 -2 4 -15z m2290 -10 c-7 -29 -3 -31 18 -9 15
14 16 12 16 -18 0 -18 -4 -50 -9 -71 -15 -63 -27 -64 -41 -3 -5 24 -4 37 4 40
6 2 -5 5 -24 6 -31 2 -32 3 -10 9 16 4 28 17 34 39 10 38 21 44 12 7z m-2472
-67 c-3 -4 0 -8 5 -8 6 0 11 -7 11 -17 0 -15 -1 -15 -18 0 -10 10 -22 14 -26
10 -4 -4 -4 0 -1 8 3 9 12 16 20 16 8 0 12 -4 9 -9z m2183 -35 c-3 -10 -5 -4
-5 12 0 17 2 24 5 18 2 -7 2 -21 0 -30z m-2307 -54 c-4 -126 -5 -148 -12 -141
-10 10 -14 175 -4 190 13 21 17 8 16 -49z m2447 55 c-3 -3 -12 -4 -19 -1 -8 3
-5 6 6 6 11 1 17 -2 13 -5z m66 -184 c3 -11 1 -23 -4 -26 -5 -3 -9 0 -9 6 0 6
-4 8 -10 5 -11 -7 -14 18 -3 28 11 12 21 8 26 -13z m1007 -102 c0 -61 -2 -109
-4 -107 -7 8 -16 206 -9 213 12 12 13 5 13 -106z m-3050 62 c0 -5 -4 -10 -10
-10 -5 0 -10 5 -10 10 0 6 5 10 10 10 6 0 10 -4 10 -10z m3070 -167 c-11 -17
-11 -17 -6 0 3 10 6 24 7 30 0 9 2 9 5 0 3 -7 0 -20 -6 -30z m65 -93 c3 -5 1
-10 -4 -10 -6 0 -11 5 -11 10 0 6 2 10 4 10 3 0 8 -4 11 -10z m-2910 -30 c-3
-5 -12 -7 -20 -3 -21 7 -19 13 6 13 11 0 18 -4 14 -10z m-425 -212 c0 -5 -4
-7 -9 -4 -13 9 -21 -20 -9 -32 8 -8 7 -13 -4 -17 -10 -4 -13 -15 -10 -31 3
-17 0 -24 -12 -24 -11 0 -16 -9 -16 -29 0 -16 -7 -45 -15 -65 -9 -20 -13 -41
-10 -47 4 -5 -3 -26 -14 -45 -12 -19 -22 -51 -24 -70 -1 -19 -7 -34 -14 -34
-14 0 -18 22 -6 34 4 3 8 12 9 19 7 52 29 140 45 182 24 63 24 69 -1 62 -11
-3 -20 -1 -20 3 0 5 10 10 22 12 16 2 25 15 36 48 7 25 16 51 18 59 3 11 7 11
19 1 8 -7 15 -17 15 -22z m-127 -105 c-7 -2 -19 -2 -25 0 -7 3 -2 5 12 5 14 0
19 -2 13 -5z m-11 -345 c-24 -24 -11 -29 18 -8 30 21 50 20 50 -4 0 -8 7 -19
15 -26 14 -12 14 -15 0 -30 -8 -9 -12 -21 -8 -25 5 -5 1 -4 -9 3 -12 10 -18
10 -24 1 -4 -7 0 -17 9 -24 9 -7 14 -15 10 -18 -3 -4 -2 -7 4 -7 16 0 25 -31
13 -45 -8 -10 -1 -17 27 -29 32 -14 33 -16 11 -13 -16 2 -28 1 -28 -4 0 -4 -3
-15 -7 -24 -5 -15 -3 -16 18 -5 l24 13 -22 -25 c-27 -29 -29 -40 -6 -31 13 5
15 2 10 -11 -4 -11 -3 -15 4 -11 6 4 8 13 5 21 -6 16 -4 17 18 8 9 -3 16 -17
16 -30 0 -21 -3 -24 -26 -18 -19 5 -25 4 -20 -5 4 -6 17 -11 29 -11 16 0 18
-3 9 -9 -8 -4 -14 -12 -14 -17 -1 -17 -10 -34 -18 -34 -5 0 -26 18 -48 40 -21
22 -43 40 -48 40 -5 0 -18 -15 -29 -33 -27 -45 -29 -51 -15 -42 9 5 11 4 6 -4
-4 -6 -11 -9 -16 -6 -5 3 -11 -4 -15 -15 -7 -21 -39 -34 -73 -28 -17 2 -12 10
33 48 47 39 75 80 107 155 13 29 17 140 5 118 -6 -9 -10 -32 -9 -50 1 -18 -2
-33 -7 -33 -12 0 -22 76 -21 147 2 70 8 93 23 93 8 0 8 -3 -1 -12z m516 -422
c21 -11 39 -11 83 -3 31 5 69 6 85 2 28 -7 28 -7 7 -16 -12 -4 -47 -9 -77 -10
-31 -1 -56 -6 -56 -10 0 -15 -33 -18 -53 -4 -22 15 -117 21 -117 7 0 -4 -8 -8
-17 -9 -10 -1 -35 -4 -56 -7 -32 -4 -36 -2 -26 10 6 8 21 14 33 15 11 0 50 8
86 18 84 24 77 23 108 7z m-344 -36 c-5 -5 -16 -5 -24 0 -13 8 -12 10 3 10 9
0 17 6 18 13 0 9 2 8 6 -1 3 -8 1 -18 -3 -22z m54 8 c7 -7 12 -17 12 -24 0
-15 -38 -25 -46 -13 -3 6 -11 5 -20 -2 -19 -16 -18 -3 4 26 19 27 32 31 50 13z
m-153 -17 c-8 -13 -35 -15 -35 -2 0 5 8 11 18 13 21 5 26 2 17 -11z m195 9 c0
-5 -4 -10 -10 -10 -5 0 -10 5 -10 10 0 6 5 10 10 10 6 0 10 -4 10 -10z m887
-6 c-3 -3 -12 -4 -19 -1 -8 3 -5 6 6 6 11 1 17 -2 13 -5z m-1493 -19 c11 -8
16 -15 10 -15 -5 0 -18 7 -28 15 -11 8 -16 15 -10 15 5 0 18 -7 28 -15z m1690
-23 c-29 -4 -39 2 -30 16 4 7 15 6 31 -1 l25 -12 -26 -3z m11 -52 c-4 -6 -10
-8 -15 -5 -4 3 -11 -1 -13 -7 -3 -8 -6 -6 -6 5 -1 11 6 17 20 17 11 0 17 -5
14 -10z m-1755 -10 c0 -5 -5 -10 -11 -10 -5 0 -7 5 -4 10 3 6 8 10 11 10 2 0
4 -4 4 -10z m3963 -437 c-4 -10 -13 -29 -19 -42 -7 -14 -10 -29 -7 -35 4 -6 2
-7 -3 -3 -5 5 -10 13 -10 18 -1 5 -2 11 -3 14 -1 5 -107 -50 -127 -66 -6 -5
-14 -6 -17 -3 -3 4 -18 -8 -33 -25 -14 -17 -46 -45 -71 -62 l-44 -31 3 24 c2
13 12 36 23 50 11 14 26 34 33 44 11 17 12 15 8 -16 l-6 -35 30 33 c32 34 36
55 20 96 -11 31 5 36 26 9 9 -13 9 -22 2 -30 -7 -9 -7 -13 0 -13 6 0 9 -7 6
-15 -8 -20 -4 -19 61 11 31 15 70 42 88 60 35 37 50 44 40 17z m-348 -217 c0
-13 -3 -27 -7 -31 -5 -6 -5 40 1 53 4 8 7 -1 6 -22z m-105 -65 c0 -5 -9 -11
-21 -14 -16 -4 -18 -3 -8 9 13 16 29 19 29 5z m-193 -48 c2 -6 -12 -18 -31
-27 -42 -20 -50 -20 -42 -1 4 11 -2 15 -20 15 -32 0 -97 -27 -90 -38 2 -4 -8
-13 -25 -19 -35 -13 -36 -8 -6 23 12 13 29 32 38 42 13 15 29 18 94 17 46 0
80 -5 82 -12z m-2822 -178 c7 -41 -16 -134 -45 -187 -6 -10 -10 -29 -10 -43 0
-14 -5 -25 -11 -25 -8 0 -10 16 -5 53 3 28 6 120 6 202 l0 150 30 -53 c16 -29
32 -73 35 -97z m3672 23 c-3 -8 -6 -5 -6 6 -1 11 2 17 5 13 3 -3 4 -12 1 -19z
m180 -20 c-3 -8 -6 -5 -6 6 -1 11 2 17 5 13 3 -3 4 -12 1 -19z m-1202 -67 c-3
-5 5 -11 17 -13 20 -3 18 -7 -20 -31 -47 -30 -64 -30 -82 2 -9 18 -7 22 22 35
38 17 72 20 63 7z"/>
<path d="M9328 8763 c6 -2 18 -2 25 0 6 3 1 5 -13 5 -14 0 -19 -2 -12 -5z"/>
<path d="M11093 7095 c0 -22 2 -30 4 -17 2 12 2 30 0 40 -3 9 -5 -1 -4 -23z"/>
<path d="M5596 2681 c-3 -5 1 -14 8 -20 12 -10 13 -8 9 8 -6 23 -9 25 -17 12z"/>
<path d="M5585 2640 c-3 -5 -1 -10 4 -10 6 0 11 5 11 10 0 6 -2 10 -4 10 -3 0
-8 -4 -11 -10z"/>
<path d="M5610 2620 c0 -5 5 -10 10 -10 6 0 10 5 10 10 0 6 -4 10 -10 10 -5 0
-10 -4 -10 -10z"/>
<path d="M5660 2580 c0 -5 7 -10 16 -10 8 0 12 5 9 10 -3 6 -10 10 -16 10 -5
0 -9 -4 -9 -10z"/>
<path d="M10522 9065 c0 -16 2 -22 5 -12 2 9 2 23 0 30 -3 6 -5 -1 -5 -18z"/>
<path d="M10952 8355 c0 -16 2 -22 5 -12 2 9 2 23 0 30 -3 6 -5 -1 -5 -18z"/>
<path d="M10941 8284 c0 -11 3 -14 6 -6 3 7 2 16 -1 19 -3 4 -6 -2 -5 -13z"/>
<path d="M11211 8124 c0 -11 3 -14 6 -6 3 7 2 16 -1 19 -3 4 -6 -2 -5 -13z"/>
<path d="M11281 7964 c0 -11 3 -14 6 -6 3 7 2 16 -1 19 -3 4 -6 -2 -5 -13z"/>
<path d="M7604 7625 c-3 -8 -4 -20 -2 -27 3 -7 7 -1 10 15 6 29 1 36 -8 12z"/>
<path d="M1233 7554 c-7 -7 -13 -17 -13 -22 0 -12 -35 -43 -42 -37 -2 3 -15
-21 -28 -53 -13 -31 -30 -72 -37 -91 -20 -46 -26 -33 -9 17 8 22 17 54 19 70
3 16 10 39 16 51 8 14 8 21 1 21 -5 0 -10 -4 -10 -8 0 -4 -9 -8 -20 -9 -31 -3
-55 -39 -85 -130 -15 -46 -28 -89 -29 -95 -2 -7 -6 -20 -9 -28 -15 -40 -27
-84 -24 -87 2 -2 19 37 38 87 18 49 37 90 41 90 15 0 8 -19 -70 -207 -43 -104
-82 -197 -86 -207 -3 -10 -9 -17 -11 -14 -6 5 17 109 31 142 5 14 4 17 -4 12
-18 -11 -15 0 6 20 16 17 16 18 -1 11 -15 -6 -17 -3 -12 13 4 14 2 20 -7 18
-9 -2 -12 7 -10 27 1 17 -16 -17 -38 -75 -67 -173 -110 -276 -110 -265 0 6 5
26 11 45 6 19 13 59 14 88 2 30 8 59 14 65 13 13 15 47 2 47 -8 0 -41 -60 -41
-75 0 -4 -14 -24 -30 -44 -17 -20 -43 -51 -58 -70 -24 -29 -36 -34 -83 -39
-30 -2 -57 -9 -60 -14 -10 -15 -58 2 -52 18 4 12 0 14 -21 8 -21 -5 -26 -3
-27 12 0 12 -7 4 -17 -18 -9 -21 -20 -38 -24 -38 -5 0 -8 17 -8 38 0 27 -3 33
-10 22 -6 -10 -10 -11 -10 -2 0 15 -34 16 -61 2 -18 -10 -38 -49 -69 -130 -21
-56 -31 -59 -27 -9 2 26 7 51 11 57 3 5 3 18 -1 28 -6 16 -8 14 -18 -10 l-12
-28 -17 26 c-9 15 -12 26 -6 26 6 0 8 5 5 10 -5 8 -12 7 -23 -2 -9 -8 -13 -8
-9 -2 4 7 0 15 -8 18 -9 3 -18 -1 -21 -9 -6 -15 -29 -16 -50 -2 -17 10 -24 -3
-24 -49 0 -24 5 -44 13 -47 9 -4 9 -6 0 -6 -10 -1 -12 -84 -12 -356 -1 -195 1
-355 3 -355 2 0 28 61 57 136 29 75 55 132 56 127 2 -5 -12 -51 -32 -102 -19
-51 -35 -99 -35 -106 0 -7 -11 -38 -25 -69 -25 -56 -25 -60 -25 -329 1 -241 2
-269 15 -247 19 34 19 7 0 -30 -13 -24 -15 -63 -13 -202 l3 -173 49 148 c26
81 52 147 57 147 12 0 16 14 -48 -160 l-58 -155 -2 -750 c-2 -745 -2 -750 17
-710 11 22 20 46 20 53 0 10 20 19 20 9 0 -7 -43 -123 -51 -139 -5 -9 -5 -27
-1 -39 7 -19 10 -20 15 -6 4 10 14 17 22 17 9 0 13 5 10 10 -4 6 -11 7 -17 4
-7 -4 -8 -2 -4 5 4 6 12 9 17 6 5 -4 9 0 9 7 0 11 2 10 9 0 6 -10 10 -5 14 17
4 17 12 31 18 31 7 0 9 -9 4 -27 -15 -57 -12 -67 20 -67 23 -1 29 3 27 16 -2
12 2 16 13 12 9 -4 17 1 21 11 9 23 61 76 71 73 20 -7 66 46 94 107 17 37 32
65 34 63 2 -2 -16 -57 -41 -122 -35 -92 -43 -121 -33 -127 8 -4 19 -3 26 2 23
20 73 106 90 155 9 27 25 62 36 78 13 18 15 26 6 21 -11 -7 -12 -6 -2 7 7 8
10 18 6 21 -3 4 2 17 13 28 l19 22 -41 -21 c-23 -12 -48 -27 -56 -34 -21 -19
-80 -49 -86 -44 -6 6 17 30 44 44 20 11 48 57 56 92 2 8 5 17 8 20 3 3 11 16
17 30 21 44 14 -5 -7 -54 -10 -25 -17 -46 -14 -46 8 0 84 50 84 55 0 3 -9 1
-19 -5 -29 -15 -33 2 -5 23 13 10 24 13 24 7 0 -7 5 -6 14 2 12 11 11 14 -3
20 -9 4 -10 7 -3 7 6 1 12 8 12 16 0 9 10 15 23 16 12 1 -23 16 -78 34 l-100
32 -25 -86 c-14 -47 -26 -77 -28 -66 -1 11 6 50 16 86 17 60 17 67 3 77 -14 9
-12 11 8 11 13 1 22 3 19 7 -3 3 0 25 7 49 l14 44 -32 10 c-18 5 -79 22 -137
36 -94 23 -129 35 -104 35 5 0 69 -15 142 -34 93 -24 135 -31 137 -23 11 31
68 255 70 274 2 11 6 30 9 41 4 11 9 33 11 48 3 16 8 41 11 57 5 22 3 27 -12
27 -16 0 -16 2 -4 9 8 6 18 7 22 5 4 -3 8 -1 8 4 0 6 -7 13 -16 16 -13 5 -15
15 -11 44 3 20 3 32 0 25 -2 -7 -11 -9 -19 -6 -16 6 -19 -8 -4 -23 7 -7 -3
-35 -27 -84 -20 -41 -37 -78 -37 -82 -1 -5 -5 -7 -11 -5 -5 1 -9 9 -7 17 19
108 19 115 8 123 -8 5 -6 11 7 21 9 7 17 19 17 27 0 11 -2 11 -10 -1 -8 -12
-10 -10 -11 10 0 14 -3 19 -6 10 -2 -8 -15 -37 -27 -65 -13 -27 -29 -67 -36
-88 -16 -50 -22 -43 -9 11 5 23 10 79 12 124 3 80 32 198 49 198 4 0 8 12 8
28 0 22 2 24 11 12 8 -12 9 -11 4 6 -6 22 17 78 28 68 3 -3 3 2 1 13 -3 10 3
29 14 41 13 14 18 31 14 48 -4 21 -2 25 8 19 9 -6 12 -4 8 7 -7 17 26 121 35
111 4 -3 7 6 7 21 0 15 4 25 9 22 5 -4 12 0 14 6 4 10 8 9 17 -2 10 -12 11
-11 7 7 -3 15 -1 20 9 16 9 -3 14 2 15 13 2 45 6 65 17 76 8 8 1 20 -25 44
-20 19 -37 34 -38 34 -6 0 -55 -109 -55 -122 0 -8 -10 -28 -22 -43 -16 -20
-23 -24 -29 -14 -11 21 10 132 27 146 8 6 16 27 17 46 1 19 4 35 7 35 18 -1
21 4 11 16 -8 10 -8 21 -1 41 6 15 7 31 4 37 -3 5 3 16 14 23 20 15 42 82 42
129 0 14 3 26 8 26 4 0 6 29 5 65 -1 36 2 65 7 65 5 0 30 22 57 50 26 27 54
50 61 50 6 0 12 5 12 10 0 6 7 10 16 10 11 0 14 5 10 16 -4 12 -2 15 9 10 10
-4 15 1 15 14 0 12 7 20 17 20 9 0 13 3 10 6 -3 4 3 18 13 32 11 13 20 33 20
43 0 11 9 28 19 38 11 11 35 59 55 108 43 107 47 93 6 -24 -16 -46 -30 -87
-30 -91 0 -3 14 15 31 41 16 25 59 72 95 104 36 32 96 87 132 122 66 62 201
141 244 141 10 0 18 5 18 12 0 6 6 4 13 -6 7 -10 28 -18 47 -19 19 -1 37 -5
40 -9 9 -12 129 -39 158 -36 19 2 32 13 45 38 16 31 16 15 0 -27 -6 -17 38
-33 88 -33 37 0 127 36 116 46 -2 2 4 35 15 72 11 37 20 72 22 77 1 6 12 33
25 60 26 59 70 221 67 250 -4 33 -25 75 -41 81 -8 4 -15 12 -15 20 0 8 -9 14
-20 14 -12 0 -20 7 -20 18 -1 20 -85 -185 -155 -376 -26 -73 -50 -131 -52
-129 -2 2 19 66 47 142 60 164 76 225 60 235 -7 5 -8 15 -1 33 9 22 8 27 -4
27 -8 0 -15 -7 -15 -15 0 -17 -18 -19 -39 -6 -9 6 -10 14 -3 27 15 29 23 102
12 109 -5 3 -6 13 -3 22 4 9 -1 21 -11 29 -11 7 -15 18 -10 25 5 9 2 10 -11 6
-9 -4 -23 -3 -30 3 -10 8 -18 -4 -35 -55 -12 -36 -24 -65 -26 -65 -2 0 -2 29
1 64 4 49 2 66 -10 76 -9 7 -19 10 -22 6 -4 -4 -12 3 -18 14 -10 18 -16 10
-55 -76 -49 -107 -67 -114 -25 -9 15 37 29 81 31 98 3 18 7 38 9 45 3 7 0 10
-5 7 -6 -3 -10 0 -10 7 -1 8 -8 4 -19 -9 -22 -27 -33 -20 -25 16 l5 26 -22
-25 c-14 -17 -23 -21 -26 -12 -7 18 -23 4 -23 -19 0 -10 -4 -19 -9 -19 -5 0
-7 9 -4 20 3 11 0 20 -6 20 -6 0 -11 12 -11 26 0 20 4 25 16 20 15 -6 15 -4 3
11 -7 10 -14 20 -15 21 -5 7 -51 -93 -89 -190 -21 -54 -40 -97 -42 -95 -1 2
11 40 27 86 29 79 40 171 21 171 -6 0 -17 -10 -27 -22 -16 -22 -16 -22 -10 22
l6 45 -20 -50 c-11 -27 -34 -92 -51 -143 -17 -51 -33 -92 -35 -90 -2 2 16 70
40 150 39 132 47 190 27 202 -3 2 -12 -2 -18 -10z m354 -241 c-3 -18 -26 -63
-27 -52 0 10 22 69 26 69 2 0 3 -8 1 -17z m-417 -150 c-11 -17 -11 -17 -6 0 3
10 6 24 7 30 0 9 2 9 5 0 3 -7 0 -20 -6 -30z m91 -10 c-12 -20 -14 -14 -5 12
4 9 9 14 11 11 3 -2 0 -13 -6 -23z m469 -7 c0 -8 -9 -24 -20 -37 l-19 -24 11
38 c11 36 28 51 28 23z m-70 -66 c-27 -72 -37 -75 -14 -4 9 27 18 55 20 63 2
8 7 11 11 8 3 -4 -5 -34 -17 -67z m-515 0 c-9 -28 -19 -50 -21 -48 -2 2 4 27
13 56 9 28 19 50 21 47 2 -2 -4 -27 -13 -55z m768 35 c-3 -9 -8 -14 -10 -11
-3 3 -2 9 2 15 9 16 15 13 8 -4z m-492 -32 c-12 -20 -14 -14 -5 12 4 9 9 14
11 11 3 -2 0 -13 -6 -23z m483 -2 c3 -5 -1 -11 -9 -14 -9 -4 -12 -1 -8 9 6 16
10 17 17 5z m-790 -95 c-3 -15 -8 -25 -11 -23 -2 3 -1 17 3 31 3 15 8 25 11
23 2 -3 1 -17 -3 -31z m-278 -236 c-43 -119 -65 -169 -66 -150 0 8 6 26 13 40
16 31 51 130 68 190 7 25 14 38 16 30 2 -9 -12 -58 -31 -110z m169 -99 c-5
-24 -2 -29 16 -34 22 -6 22 -7 4 -27 -10 -11 -24 -20 -32 -20 -7 0 -16 -7 -19
-15 -4 -8 -10 -12 -15 -9 -5 2 -17 0 -28 -6 -15 -7 -22 -7 -28 2 -19 31 18 88
43 67 15 -12 42 13 50 47 9 34 17 30 9 -5z m-720 -23 c-4 -13 -18 -47 -31 -76
-13 -29 -24 -57 -24 -62 0 -5 -4 -11 -9 -15 -6 -3 -6 5 -1 22 9 31 48 132 56
145 10 16 15 7 9 -14z m-95 -3 c0 -7 -153 -106 -157 -102 -4 5 7 13 86 71 22
16 38 33 36 37 -3 4 4 5 15 2 11 -3 20 -7 20 -8z m453 -102 c-17 -66 -24 -73
-75 -73 -44 0 -68 27 -68 77 l0 34 58 -3 c31 -1 66 3 77 10 11 6 21 12 22 12
0 0 -6 -26 -14 -57z m-183 -167 c0 -2 -8 -10 -17 -17 -16 -13 -17 -12 -4 4 13
16 21 21 21 13z m-54 -64 c-17 -16 -18 -16 -5 5 7 12 15 20 18 17 3 -2 -3 -12
-13 -22z m93 -519 c0 -10 -6 -34 -14 -53 l-13 -35 -7 27 c-8 30 1 52 17 42 6
-4 8 1 3 15 -4 12 -2 21 4 21 6 0 11 -8 10 -17z m-49 -128 c0 -8 -4 -15 -10
-15 -5 0 -10 7 -10 15 0 8 5 15 10 15 6 0 10 -7 10 -15z m-180 -440 c0 -3 -9
-24 -19 -48 -11 -23 -52 -114 -91 -202 -40 -88 -76 -164 -81 -169 -12 -13 -12
16 -1 30 5 5 15 25 22 44 8 19 38 86 67 149 29 62 53 116 53 119 0 13 36 82
43 82 4 0 7 -2 7 -5z m150 -172 c-110 -295 -261 -687 -267 -693 -8 -7 -2 14
66 210 58 167 70 210 53 183 -5 -8 -8 2 -8 22 0 34 0 35 13 13 13 -22 13 -21
7 12 -6 33 -6 34 12 20 12 -10 15 -11 10 -2 -10 17 13 74 27 65 6 -4 8 0 4 10
-3 10 -2 17 4 17 6 0 8 9 4 21 -4 12 -3 19 2 16 5 -3 17 17 27 46 10 29 26 70
36 92 10 22 24 60 31 85 12 42 28 65 37 55 3 -2 -24 -80 -58 -172z m-30 88 c0
-6 -4 -13 -10 -16 -5 -3 -10 1 -10 9 0 9 5 16 10 16 6 0 10 -4 10 -9z m-129
-181 c-45 -134 -131 -363 -138 -370 -3 -3 -2 20 2 50 4 30 8 76 8 102 0 26 4
45 9 42 4 -3 8 4 8 15 0 11 7 27 16 35 8 9 12 20 9 26 -3 5 -2 10 2 10 7 0 27
41 33 68 1 4 6 13 12 19 6 7 8 20 4 28 -3 9 -2 13 4 10 5 -3 12 7 16 22 9 40
34 77 45 66 5 -5 -7 -55 -30 -123z m49 25 c0 -5 -5 -3 -10 5 -5 8 -10 20 -10
25 0 6 5 3 10 -5 5 -8 10 -19 10 -25z m-30 -64 c-6 -16 -9 -34 -6 -40 4 -5 2
-12 -3 -15 -5 -4 -12 -23 -16 -44 -4 -24 -12 -39 -21 -39 -8 0 -14 2 -14 5 0
19 35 120 46 133 8 8 14 22 14 29 0 7 3 10 6 7 4 -4 1 -20 -6 -36z m-24 -432
l-16 -34 6 35 c7 41 16 59 21 43 2 -6 -3 -26 -11 -44z"/>
<path d="M1186 7535 c-9 -26 -7 -32 5 -12 6 10 9 21 6 23 -2 3 -7 -2 -11 -11z"/>
<path d="M8565 7430 c-3 -5 -2 -10 4 -10 5 0 13 5 16 10 3 6 2 10 -4 10 -5 0
-13 -4 -16 -10z"/>
<path d="M8523 7423 c-10 -3 -10 -7 0 -18 14 -15 27 -10 27 11 0 14 -6 16 -27
7z"/>
<path d="M8434 7386 c-36 -9 -51 -20 -41 -28 4 -4 87 32 87 37 0 3 -1 4 -2 4
-2 -1 -22 -7 -44 -13z"/>
<path d="M8180 7372 c-19 -9 -36 -20 -38 -24 -2 -5 -16 -8 -30 -8 -15 0 -47
-10 -72 -21 -28 -13 -63 -20 -95 -19 -27 1 -66 1 -85 1 -30 -1 -32 -3 -17 -12
11 -6 29 -9 43 -6 13 2 25 1 26 -2 2 -4 58 0 126 9 104 13 125 18 134 35 6 11
20 30 31 43 24 26 23 26 -23 4z"/>
<path d="M9830 7280 c23 -36 46 -69 51 -75 19 -19 -40 80 -66 110 -14 17 -8 1
15 -35z"/>
<path d="M8230 7320 c-12 -8 -10 -10 10 -10 14 0 32 5 40 10 12 8 10 10 -10
10 -14 0 -32 -5 -40 -10z"/>
<path d="M7728 7253 c7 -3 16 -2 19 1 4 3 -2 6 -13 5 -11 0 -14 -3 -6 -6z"/>
<path d="M1850 7161 c0 -6 5 -13 10 -16 6 -3 10 1 10 9 0 9 -4 16 -10 16 -5 0
-10 -4 -10 -9z"/>
<path d="M9958 7144 c20 -38 49 -55 103 -59 36 -4 47 -2 34 4 -11 4 -24 6 -29
3 -5 -3 -6 2 -3 12 7 18 -23 36 -87 52 -25 6 -27 5 -18 -12z m52 -20 c0 -8 -5
-12 -10 -9 -6 4 -8 11 -5 16 9 14 15 11 15 -7z"/>
<path d="M1830 7134 c0 -8 5 -12 10 -9 6 3 10 10 10 16 0 5 -4 9 -10 9 -5 0
-10 -7 -10 -16z"/>
<path d="M2097 6994 c-15 -34 -27 -66 -27 -71 0 -5 -7 -18 -16 -29 -14 -18
-15 -18 -4 4 6 13 9 30 6 38 -3 8 -1 14 5 14 6 0 9 7 6 15 -4 8 -2 17 3 20 6
4 10 11 10 16 0 6 -6 7 -12 3 -9 -5 -8 -2 1 9 12 15 9 38 -4 25 -5 -5 -152
-416 -162 -453 -4 -16 1 -14 27 12 28 26 33 40 36 83 1 31 9 59 19 70 9 10 15
22 12 27 -2 4 5 17 16 28 l20 20 -6 -30 c-5 -27 -4 -28 9 -10 8 10 14 24 14
29 0 6 5 4 10 -4 8 -13 10 -12 10 3 0 10 7 20 15 23 8 4 15 12 15 20 0 8 4 14
8 14 10 0 46 140 38 148 -4 3 -7 -1 -7 -9 -1 -8 -4 -1 -8 16 -6 29 -7 28 -34
-31z"/>
<path d="M2180 6973 c-7 -27 -19 -67 -26 -91 -32 -98 3 -84 37 15 18 54 23
123 8 123 -3 0 -12 -21 -19 -47z"/>
<path d="M7073 6940 c-28 -12 -30 -20 -3 -13 11 3 20 0 20 -6 0 -6 9 -11 21
-11 15 0 19 4 15 16 -3 9 -6 18 -6 20 0 6 -23 4 -47 -6z"/>
<path d="M10200 6930 c0 -8 5 -22 10 -30 9 -13 10 -13 10 0 0 8 -5 22 -10 30
-9 13 -10 13 -10 0z"/>
<path d="M2216 6915 c-3 -9 -6 -22 -5 -28 0 -7 5 -1 10 12 5 13 8 26 5 28 -2
2 -6 -3 -10 -12z"/>
<path d="M2196 6855 c-3 -9 -6 -22 -5 -28 0 -7 5 -1 10 12 5 13 8 26 5 28 -2
2 -6 -3 -10 -12z"/>
<path d="M7000 6770 c0 -5 5 -10 10 -10 6 0 10 5 10 10 0 6 -4 10 -10 10 -5 0
-10 -4 -10 -10z"/>
<path d="M2035 6660 c-4 -6 -18 -9 -33 -8 -20 2 -27 -2 -30 -17 -2 -17 -1 -18
10 -5 7 8 25 14 39 12 14 -2 31 4 39 12 10 13 10 16 -3 16 -9 0 -19 -5 -22
-10z"/>
<path d="M10484 6425 c-4 -14 -4 -29 0 -32 3 -4 6 3 6 13 0 11 5 25 12 32 9 9
9 12 0 12 -6 0 -14 -11 -18 -25z"/>
<path d="M6910 6174 c-54 -23 -80 -53 -80 -90 0 -38 13 -49 55 -49 28 0 30 -2
33 -45 3 -65 11 -90 26 -90 19 0 36 -44 37 -98 l2 -47 7 50 c10 62 12 276 4
339 -8 52 -21 57 -84 30z"/>
<path d="M7483 5404 c-20 -67 -25 -108 -15 -133 7 -19 11 -8 22 61 14 94 10
133 -7 72z"/>
<path d="M7286 5090 c-21 -89 -36 -163 -33 -166 2 -3 8 7 11 22 4 14 9 24 12
21 13 -13 52 43 64 91 13 54 6 127 -11 117 -5 -4 -9 3 -9 15 0 12 4 19 9 16 4
-3 6 6 3 19 -2 14 -5 25 -6 25 -2 0 -20 -72 -40 -160z"/>
<path d="M647 5173 c-4 -3 -7 -11 -7 -17 0 -6 5 -5 12 2 6 6 9 14 7 17 -3 3
-9 2 -12 -2z"/>
<path d="M7360 5043 c-14 -66 -8 -92 17 -72 9 8 14 9 10 3 -4 -7 1 -14 13 -17
16 -4 20 3 27 47 12 74 7 91 -27 92 -27 1 -30 -2 -40 -53z"/>
<path d="M9250 5068 c0 -18 18 -34 28 -24 3 4 -2 14 -11 23 -16 16 -17 16 -17
1z"/>
<path d="M1745 5031 c-15 -22 -24 -45 -20 -50 3 -6 2 -11 -3 -11 -6 0 -15 -14
-21 -30 -5 -17 -17 -33 -25 -36 -23 -9 -37 -74 -31 -141 16 -191 -10 -250
-106 -239 -22 3 -29 0 -25 -9 3 -8 -2 -16 -10 -19 -12 -4 -14 -1 -9 14 4 11 4
20 2 20 -3 0 -17 -34 -33 -76 -29 -79 -26 -93 18 -94 23 0 32 -17 12 -24 -8
-3 -26 1 -39 10 -24 15 -25 15 -35 -10 -5 -15 -12 -39 -15 -54 -4 -23 -4 -24
4 -7 7 14 10 15 10 5 1 -13 2 -13 11 0 8 12 10 12 10 1 0 -8 7 -11 19 -8 11 3
29 -2 40 -10 13 -8 21 -10 21 -3 0 7 6 6 19 -2 28 -17 92 1 107 30 6 13 21 34
33 48 11 13 21 29 21 34 0 14 27 12 33 -2 4 -9 6 -8 6 2 1 8 10 21 21 28 11 7
20 19 20 26 0 8 4 16 8 18 9 3 82 217 89 258 2 14 5 32 7 40 1 9 4 20 7 25 6
10 18 56 39 148 8 36 8 53 0 62 -6 8 -15 26 -19 40 -6 26 -8 24 -39 -35 -18
-35 -32 -69 -32 -76 0 -8 -4 -14 -9 -14 -5 0 -16 -15 -25 -32 -16 -33 -16 -33
-12 47 2 44 7 91 10 105 5 19 2 31 -13 44 -19 17 -20 17 -46 -23z m15 -311 c0
-5 -4 -10 -9 -10 -6 0 -13 5 -16 10 -3 6 1 10 9 10 9 0 16 -4 16 -10z"/>
<path d="M2982 5023 c-15 -48 -8 -55 8 -8 7 20 10 38 8 41 -3 2 -10 -13 -16
-33z"/>
<path d="M2001 5034 c0 -11 3 -14 6 -6 3 7 2 16 -1 19 -3 4 -6 -2 -5 -13z"/>
<path d="M9717 5036 c-4 -10 -7 -25 -6 -34 0 -11 2 -12 6 -4 2 6 9 10 14 6 11
-6 11 3 0 30 -7 18 -8 18 -14 2z"/>
<path d="M970 5004 c-6 -14 -10 -42 -10 -62 0 -33 -1 -34 -14 -17 -12 17 -14
15 -28 -25 -10 -32 -16 -39 -21 -27 -3 9 -2 17 3 17 6 0 10 7 10 15 0 12 -3
12 -18 -2 -10 -10 -17 -23 -15 -30 3 -6 -3 -23 -12 -36 -9 -14 -15 -31 -14
-39 1 -7 -3 -26 -9 -41 -7 -16 -12 -44 -12 -62 0 -19 -11 -60 -25 -91 -30 -67
-29 -64 -7 -64 24 0 62 41 62 66 0 14 2 16 9 6 6 -11 9 -9 13 6 3 11 1 25 -6
32 -8 8 -6 9 8 4 16 -6 18 -4 14 14 -3 11 -2 22 4 24 5 2 10 20 11 41 1 22 7
37 15 37 6 0 12 10 12 23 0 33 20 98 28 93 4 -2 7 17 7 44 0 34 4 46 13 43 14
-6 17 13 2 22 -5 3 -7 12 -3 20 3 8 2 15 -1 15 -4 0 -11 -12 -16 -26z m-95
-194 c3 -5 1 -10 -4 -10 -6 0 -11 5 -11 10 0 6 2 10 4 10 3 0 8 -4 11 -10z"/>
<path d="M9255 5020 c-3 -5 -2 -10 4 -10 5 0 13 5 16 10 3 6 2 10 -4 10 -5 0
-13 -4 -16 -10z"/>
<path d="M1041 4978 c-39 -106 -80 -242 -74 -251 3 -7 2 -9 -2 -4 -8 7 -26
-33 -46 -103 -21 -71 -22 -83 -10 -76 20 13 12 -1 -21 -37 -43 -45 -58 -64
-58 -73 0 -4 -8 -16 -17 -26 -14 -15 -14 -21 -4 -27 10 -6 9 -12 -4 -25 -10
-9 -20 -14 -23 -11 -4 3 -1 9 5 13 7 5 10 18 6 30 -4 17 -10 21 -27 17 -12 -4
-16 -3 -9 2 6 4 14 20 18 35 4 14 16 36 27 48 17 18 18 24 7 31 -17 11 -72
-48 -64 -68 2 -7 0 -13 -6 -13 -6 0 -9 -7 -5 -15 3 -8 -1 -20 -8 -28 -8 -7
-17 -29 -21 -48 -12 -59 -16 -69 -27 -63 -6 4 -9 1 -6 -7 3 -8 -6 -33 -19 -56
-14 -23 -22 -47 -18 -53 3 -5 2 -10 -3 -10 -13 0 -34 -59 -25 -73 3 -5 1 -7
-4 -4 -14 9 -58 -107 -47 -124 4 -8 3 -10 -4 -5 -7 4 -12 2 -12 -3 0 -6 7 -11
15 -11 9 0 15 10 15 26 0 14 4 23 10 19 6 -3 10 -1 10 4 0 6 7 11 16 11 11 0
14 -5 10 -16 -14 -37 -18 -64 -8 -64 6 0 18 -3 28 -7 12 -4 15 -3 10 5 -8 13
9 15 39 3 19 -7 19 -8 -3 -26 -12 -11 -29 -41 -38 -68 -9 -27 -23 -61 -30 -76
-8 -14 -14 -33 -13 -41 0 -10 2 -11 6 -2 5 13 33 17 33 5 0 -5 -9 -32 -20 -61
-15 -40 -18 -57 -10 -70 9 -14 10 -13 4 7 -4 15 -2 21 4 17 7 -4 9 1 7 14 -2
12 2 23 11 27 9 3 12 12 8 25 -4 14 -2 18 5 14 7 -5 9 -1 5 8 -4 9 1 18 10 22
9 3 16 10 16 16 0 5 -4 6 -10 3 -14 -9 0 58 14 70 17 14 48 114 40 127 -4 7
-3 8 4 4 11 -7 18 25 13 62 -1 7 8 33 19 58 12 25 20 54 17 64 -3 11 -1 23 4
26 5 3 6 10 3 16 -5 7 2 9 19 6 23 -4 24 -3 14 14 -10 15 -9 21 3 28 20 13 47
13 55 0 3 -5 1 -10 -4 -10 -6 0 -11 -15 -12 -32 0 -28 -2 -30 -10 -13 -8 17
-9 15 -6 -11 2 -17 -3 -36 -10 -43 -11 -10 -13 -8 -8 16 5 24 4 25 -4 6 -6
-14 -6 -34 -1 -54 6 -21 6 -37 0 -44 -5 -7 -7 -14 -4 -18 3 -3 -4 -8 -15 -12
-20 -6 -56 -99 -80 -206 -6 -25 -13 -54 -17 -65 -3 -11 -2 -15 3 -9 10 12 33
12 52 0 10 -5 16 -4 19 3 2 6 19 14 38 18 24 4 34 11 30 20 -4 9 2 14 17 14
18 0 19 2 7 11 -11 8 -12 12 -2 16 7 3 12 24 13 51 0 36 3 42 9 27 10 -22 10
-22 16 19 3 16 12 35 20 43 7 8 14 23 14 33 0 10 5 20 12 22 11 4 16 24 21 75
1 12 6 21 11 20 5 -1 14 18 19 42 6 32 11 40 18 30 7 -12 9 -11 9 2 0 9 7 30
16 47 8 18 13 41 9 52 -4 11 -2 20 4 20 6 0 13 11 17 25 5 20 9 23 20 14 8 -6
15 -9 15 -5 1 3 2 9 3 14 1 4 7 16 13 27 11 20 10 91 -1 103 -3 3 -6 -8 -6
-25 0 -26 -3 -30 -24 -26 -16 3 -24 12 -25 26 0 12 -3 40 -7 61 -5 31 -3 42
10 52 9 6 16 16 15 20 -1 5 1 26 5 46 6 28 12 35 24 31 10 -4 14 -3 10 2 -4 4
-2 15 4 23 17 20 20 52 5 52 -7 0 -8 3 -2 8 6 4 16 27 22 52 9 36 9 49 -3 72
-8 15 -18 28 -22 28 -6 0 -37 -97 -87 -275 -17 -63 -35 -109 -39 -104 -8 10
-15 69 -7 65 5 -3 11 5 13 19 3 15 1 22 -5 18 -11 -7 -8 5 18 75 8 24 13 48
10 53 -4 5 -2 9 3 9 5 0 13 20 16 45 4 24 14 48 22 53 12 7 13 14 4 36 -6 16
-8 37 -5 46 5 15 2 17 -15 13 -21 -5 -28 11 -10 22 6 4 8 11 5 16 -3 5 1 6 10
3 11 -5 14 -2 9 10 -9 23 -23 20 -33 -6z m-22 -147 c-12 -39 -25 -69 -27 -66
-3 2 6 36 18 75 12 39 25 68 28 66 2 -3 -6 -37 -19 -75z m-72 -203 c-3 -8 -6
-5 -6 6 -1 11 2 17 5 13 3 -3 4 -12 1 -19z m145 -240 c-9 -9 -15 -9 -24 0 -9
9 -7 12 12 12 19 0 21 -3 12 -12z m-338 -70 c-25 -29 -58 -57 -62 -53 -8 7 16
37 44 56 38 25 41 24 18 -3z m119 -75 c-7 -2 -19 -2 -25 0 -7 3 -2 5 12 5 14
0 19 -2 13 -5z"/>
<path d="M2676 4983 c-6 -14 -5 -15 5 -6 7 7 10 15 7 18 -3 3 -9 -2 -12 -12z"/>
<path d="M11026 4963 c-13 -60 -25 -234 -18 -253 5 -13 12 33 20 126 12 141
11 188 -2 127z"/>
<path d="M12767 4981 c-16 -6 -16 -9 8 -31 l25 -23 0 31 c0 33 -3 35 -33 23z"/>
<path d="M2705 4968 c4 -11 2 -18 -4 -18 -6 0 -11 -7 -11 -15 0 -22 18 -18 25
6 4 12 2 26 -5 33 -8 8 -10 7 -5 -6z"/>
<path d="M745 4920 c-4 -6 -1 -9 7 -8 7 2 12 -3 11 -9 -2 -7 2 -13 7 -13 6 0
10 9 10 20 0 21 -24 28 -35 10z"/>
<path d="M2660 4906 c0 -14 4 -26 10 -26 5 0 4 -16 -4 -37 -18 -54 -29 -112
-16 -93 5 8 10 24 10 35 0 11 9 35 20 52 15 25 17 39 10 57 -13 35 -30 42 -30
12z"/>
<path d="M1898 4683 c-89 -300 -86 -288 -59 -274 11 7 21 17 21 24 0 8 4 7 11
-3 8 -11 9 -6 5 21 -5 26 -2 40 9 49 10 8 15 9 15 1 0 -8 7 -8 24 0 14 7 22
17 19 25 -3 8 0 14 6 14 6 0 11 5 11 11 0 7 -9 9 -22 6 -22 -6 -22 -6 -4 8 11
8 24 15 29 15 5 0 7 11 5 25 -3 13 0 26 6 28 7 3 7 9 -3 20 -7 9 -11 24 -7 32
3 8 1 15 -4 15 -6 0 -10 -8 -11 -17 0 -10 -5 -4 -10 12 -5 18 -5 51 1 84 6 30
10 57 10 60 0 3 4 1 8 -6 4 -6 8 9 9 33 1 24 1 44 0 44 -1 0 -32 -102 -69
-227z"/>
<path d="M6827 4899 c7 -7 15 -10 18 -7 3 3 -2 9 -12 12 -14 6 -15 5 -6 -5z"/>
<path d="M6780 4889 c0 -5 5 -7 10 -4 6 3 10 8 10 11 0 2 -4 4 -10 4 -5 0 -10
-5 -10 -11z"/>
<path d="M761 4854 c0 -11 3 -14 6 -6 3 7 2 16 -1 19 -3 4 -6 -2 -5 -13z"/>
<path d="M10511 4854 c0 -11 3 -14 6 -6 3 7 2 16 -1 19 -3 4 -6 -2 -5 -13z"/>
<path d="M2272 4849 c2 -6 8 -10 13 -10 5 0 11 4 13 10 2 6 -4 11 -13 11 -9 0
-15 -5 -13 -11z"/>
<path d="M2630 4836 c0 -31 6 -34 13 -6 3 11 1 23 -4 26 -5 3 -9 -6 -9 -20z"/>
<path d="M2172 4818 c-7 -16 -17 -40 -24 -55 -6 -16 -11 -31 -10 -35 1 -3 -12
-12 -28 -20 -17 -7 -30 -17 -30 -21 0 -8 -8 -27 -41 -102 -18 -42 -46 -145
-38 -139 5 3 9 12 9 20 0 8 5 12 11 8 6 -3 9 -16 7 -29 -3 -13 0 -22 8 -22 9
0 12 8 8 22 -4 16 2 26 20 38 15 10 27 13 31 7 3 -6 15 -10 25 -10 10 0 26 -7
34 -16 15 -14 21 -11 17 10 -1 4 3 14 9 21 6 7 7 21 3 30 -5 15 -3 17 12 12
10 -5 28 -1 41 8 13 8 29 12 37 9 8 -3 20 2 27 11 11 13 8 15 -16 16 -16 0
-23 3 -16 6 14 6 16 43 2 43 -5 0 -10 5 -10 11 0 6 8 8 19 4 15 -5 18 -1 13
20 -3 17 0 25 10 25 28 0 55 89 31 97 -7 3 -13 0 -13 -6 0 -6 -18 -11 -41 -11
-38 0 -41 2 -37 24 3 14 1 31 -4 38 -7 10 -8 8 -4 -4 6 -20 -10 -25 -17 -5 -4
9 -8 9 -15 -2 -8 -11 -11 -10 -14 5 -4 16 -7 15 -16 -8z m-102 -318 c0 -5 -5
-10 -11 -10 -5 0 -7 5 -4 10 3 6 8 10 11 10 2 0 4 -4 4 -10z m-30 -20 c0 -5
-2 -10 -4 -10 -3 0 -8 5 -11 10 -3 6 -1 10 4 10 6 0 11 -4 11 -10z"/>
<path d="M724 4808 c-4 -6 -3 -8 4 -4 6 3 12 -3 14 -16 3 -21 4 -21 9 5 6 28
-12 39 -27 15z"/>
<path d="M701 4794 c0 -11 3 -14 6 -6 3 7 2 16 -1 19 -3 4 -6 -2 -5 -13z"/>
<path d="M6807 4783 c-4 -3 -7 -15 -7 -26 0 -16 3 -17 15 -7 8 7 15 19 15 26
0 15 -12 19 -23 7z"/>
<path d="M709 4748 c0 -22 -1 -22 -9 -3 -9 20 -15 7 -11 -24 2 -7 -2 -11 -6
-8 -5 3 -18 -23 -29 -59 -14 -46 -24 -64 -36 -64 -14 0 -40 -30 -43 -50 -2
-15 -27 -50 -35 -50 -6 0 -10 10 -11 23 0 14 -6 5 -15 -23 -8 -25 -12 -53 -10
-63 2 -9 0 -15 -5 -11 -5 3 -9 3 -9 0 0 -3 -25 -97 -55 -209 -30 -112 -55
-206 -55 -210 0 -6 140 -51 144 -45 11 16 64 183 60 189 -3 5 0 9 7 9 7 0 9 8
6 21 -3 12 0 22 9 26 8 3 11 9 8 14 -3 5 1 16 9 24 10 10 14 27 10 53 -3 25 1
50 11 71 9 17 15 35 12 40 -3 4 -1 23 5 42 5 19 12 41 14 49 2 8 8 27 14 43 6
15 9 27 6 27 -2 0 3 19 11 43 9 25 13 56 9 75 -4 21 -2 32 3 28 11 -7 20 21
14 47 -5 25 -22 21 -23 -5z m-182 -290 c-3 -7 -5 -2 -5 12 0 14 2 19 5 13 2
-7 2 -19 0 -25z m56 -163 c-3 -9 -8 -14 -10 -11 -3 3 -2 9 2 15 9 16 15 13 8
-4z m-80 -119 c-21 -29 -42 -52 -46 -49 -4 3 -3 10 2 17 6 7 7 16 3 20 -4 4
-1 6 6 4 8 -1 19 6 25 16 18 30 31 45 40 46 4 0 -9 -24 -30 -54z"/>
<path d="M10806 4698 c-11 -36 -13 -57 -5 -52 5 3 9 -5 10 -18 1 -23 1 -23 9
2 l8 25 2 -25 c2 -36 15 -1 15 42 0 23 -5 34 -18 36 -9 2 -19 -2 -21 -10z"/>
<path d="M1311 4653 c-1 -6 -4 -20 -7 -30 -5 -17 -5 -17 6 0 6 10 9 23 6 30
-3 9 -5 9 -5 0z"/>
<path d="M1190 4629 c0 -5 5 -7 10 -4 6 3 10 8 10 11 0 2 -4 4 -10 4 -5 0 -10
-5 -10 -11z"/>
<path d="M1396 4603 c-17 -43 -46 -197 -39 -204 4 -4 20 -11 36 -14 22 -6 27
-4 27 11 0 11 9 39 20 64 16 35 16 41 4 25 -16 -19 -16 -19 -10 -1 4 10 1 35
-6 55 -11 35 -12 36 -20 11 -5 -18 -7 -11 -4 23 4 50 2 57 -8 30z"/>
<path d="M536 4575 c-9 -26 -7 -32 5 -12 6 10 9 21 6 23 -2 3 -7 -2 -11 -11z"/>
<path d="M5545 4567 c-4 -10 -5 -21 -1 -24 10 -10 18 4 13 24 -4 17 -4 17 -12
0z"/>
<path d="M12285 4570 c-3 -5 -2 -10 4 -10 5 0 13 5 16 10 3 6 2 10 -4 10 -5 0
-13 -4 -16 -10z"/>
<path d="M2200 4509 c0 -5 5 -7 10 -4 6 3 10 8 10 11 0 2 -4 4 -10 4 -5 0 -10
-5 -10 -11z"/>
<path d="M11020 4490 c0 -19 3 -21 12 -12 9 9 9 15 0 24 -9 9 -12 7 -12 -12z"/>
<path d="M7613 4460 c-1 -42 12 -54 21 -20 3 11 9 29 12 40 4 15 1 20 -13 20
-14 0 -18 -9 -20 -40z"/>
<path d="M11860 4464 c0 -8 5 -12 10 -9 6 3 10 10 10 16 0 5 -4 9 -10 9 -5 0
-10 -7 -10 -16z"/>
<path d="M2050 4458 c0 -4 4 -8 9 -8 6 0 12 4 15 8 3 5 -1 9 -9 9 -8 0 -15 -4
-15 -9z"/>
<path d="M1260 4430 c-13 -8 -13 -11 1 -26 15 -15 17 -14 17 10 0 14 -1 26 -2
26 0 0 -8 -5 -16 -10z"/>
<path d="M1975 4380 c3 -5 8 -10 11 -10 2 0 4 5 4 10 0 6 -5 10 -11 10 -5 0
-7 -4 -4 -10z"/>
<path d="M1332 4338 c-7 -26 -7 -48 -2 -57 8 -14 11 -12 16 7 4 14 12 21 20
18 9 -4 14 2 14 15 0 13 4 18 12 13 8 -5 9 -2 5 9 -4 10 -1 17 6 18 16 1 -24
17 -44 18 -11 1 -20 -13 -27 -41z"/>
<path d="M1250 4360 c0 -5 5 -10 10 -10 6 0 10 5 10 10 0 6 -4 10 -10 10 -5 0
-10 -4 -10 -10z"/>
<path d="M11255 4350 c1 -12 9 -30 18 -40 9 -11 12 -22 7 -25 -16 -10 -12 -32
6 -39 14 -5 15 -4 4 9 -11 14 -7 19 13 16 4 0 7 2 7 5 0 6 -51 94 -54 94 -2 0
-2 -9 -1 -20z"/>
<path d="M1996 4334 c-4 -14 -5 -28 -3 -31 3 -2 8 8 11 23 4 14 5 28 3 31 -3
2 -8 -8 -11 -23z"/>
<path d="M1160 4340 c0 -5 5 -10 11 -10 5 0 7 5 4 10 -3 6 -8 10 -11 10 -2 0
-4 -4 -4 -10z"/>
<path d="M11185 4311 c-3 -5 -1 -12 5 -16 5 -3 10 1 10 9 0 18 -6 21 -15 7z"/>
<path d="M1701 4264 c0 -11 3 -14 6 -6 3 7 2 16 -1 19 -3 4 -6 -2 -5 -13z"/>
<path d="M6080 4256 c0 -9 5 -16 10 -16 6 0 10 4 10 9 0 6 -4 13 -10 16 -5 3
-10 -1 -10 -9z"/>
<path d="M1386 4235 c-9 -26 -7 -32 5 -12 6 10 9 21 6 23 -2 3 -7 -2 -11 -11z"/>
<path d="M6490 4216 c0 -9 7 -12 20 -9 11 3 17 9 14 14 -8 14 -34 10 -34 -5z"/>
<path d="M6457 4194 c-3 -4 -18 -8 -32 -10 -27 -4 -31 -5 -140 -28 -38 -9 -89
-15 -112 -16 -23 0 -45 -5 -49 -11 -5 -9 3 -10 30 -5 24 5 36 3 36 -4 0 -13
54 -4 82 14 13 7 21 7 29 -1 19 -19 179 33 179 58 0 10 -14 12 -23 3z"/>
<path d="M6540 4180 c0 -5 7 -7 15 -4 8 4 15 8 15 10 0 2 -7 4 -15 4 -8 0 -15
-4 -15 -10z"/>
<path d="M6320 4070 c0 -5 5 -10 10 -10 6 0 10 5 10 10 0 6 -4 10 -10 10 -5 0
-10 -4 -10 -10z"/>
<path d="M7541 4062 c-7 -13 -11 -26 -8 -28 8 -8 29 25 25 38 -3 8 -9 4 -17
-10z"/>
<path d="M6110 4060 c0 -5 4 -10 9 -10 6 0 13 5 16 10 3 6 -1 10 -9 10 -9 0
-16 -4 -16 -10z"/>
<path d="M5955 3969 c-4 -6 -14 -8 -24 -4 -11 4 -13 3 -5 -5 12 -12 44 -4 44
11 0 12 -7 11 -15 -2z"/>
<path d="M1312 3893 c-12 -31 -20 -59 -18 -61 2 -2 14 22 25 54 12 31 20 58
18 61 -2 2 -14 -22 -25 -54z"/>
<path d="M7482 3909 c-7 -12 -11 -24 -8 -27 3 -3 6 0 6 7 0 7 5 9 10 6 6 -3
10 3 10 14 0 26 -2 26 -18 0z"/>
<path d="M590 3900 c8 -5 22 -9 30 -9 10 0 8 3 -5 9 -27 12 -43 12 -25 0z"/>
<path d="M6186 3885 c4 -8 7 -15 9 -15 1 0 8 7 15 15 10 13 9 15 -8 15 -15 0
-20 -5 -16 -15z"/>
<path d="M609 3850 c-19 -10 -40 -25 -46 -32 -20 -26 -55 -128 -49 -143 3 -9
2 -14 -3 -11 -5 3 -11 -2 -14 -12 -3 -9 -10 -32 -16 -50 -6 -19 -6 -30 0 -27
5 4 9 13 9 21 0 8 4 14 10 14 5 0 6 7 3 17 -4 11 -3 14 5 9 7 -4 12 -1 13 6 1
7 5 2 10 -12 7 -20 8 -16 5 18 -3 30 -1 40 7 35 7 -4 5 2 -3 12 -14 17 -13 18
6 13 18 -5 24 1 34 33 7 21 17 36 22 33 5 -3 7 -2 6 3 -3 14 13 57 30 76 19
21 16 21 -29 -3z m-22 -46 c-3 -3 -12 -4 -19 -1 -8 3 -5 6 6 6 11 1 17 -2 13
-5z m-32 -64 c3 -5 1 -10 -4 -10 -6 0 -11 5 -11 10 0 6 2 10 4 10 3 0 8 -4 11
-10z"/>
<path d="M8061 3854 c0 -11 3 -14 6 -6 3 7 2 16 -1 19 -3 4 -6 -2 -5 -13z"/>
<path d="M6960 3705 c0 -14 5 -25 10 -25 6 0 10 -7 10 -15 0 -8 5 -15 10 -15
7 0 7 6 0 19 -5 11 -10 29 -10 40 0 12 -4 21 -10 21 -5 0 -10 -11 -10 -25z"/>
<path d="M682 3663 c-13 -44 -15 -83 -2 -43 5 17 8 19 9 8 1 -10 5 -18 11 -18
6 0 6 9 -1 26 -12 34 -3 45 11 13 l10 -24 -3 25 c-2 20 4 26 28 31 34 8 32 11
-7 13 -19 1 -28 -3 -29 -14 0 -11 -2 -10 -8 4 -6 15 -9 11 -19 -21z"/>
<path d="M573 3654 c-12 -18 -18 -36 -14 -38 9 -6 48 60 41 67 -3 3 -15 -11
-27 -29z"/>
<path d="M550 3589 c0 -5 5 -7 10 -4 6 3 10 8 10 11 0 2 -4 4 -10 4 -5 0 -10
-5 -10 -11z"/>
<path d="M5830 3465 c-7 -9 -8 -15 -2 -15 5 0 12 7 16 15 3 8 4 15 2 15 -2 0
-9 -7 -16 -15z"/>
<path d="M290 3430 c0 -5 7 -10 15 -10 8 0 15 5 15 10 0 6 -7 10 -15 10 -8 0
-15 -4 -15 -10z"/>
<path d="M3633 3053 c9 -2 23 -2 30 0 6 3 -1 5 -18 5 -16 0 -22 -2 -12 -5z"/>
<path d="M3698 3043 c12 -2 30 -2 40 0 9 3 -1 5 -23 4 -22 0 -30 -2 -17 -4z"/>
<path d="M3962 3010 c2 -8 17 -16 32 -18 19 -2 26 0 21 7 -3 6 -11 9 -16 5 -5
-3 -17 0 -26 8 -14 11 -16 11 -11 -2z"/>
<path d="M4064 2999 c-4 -8 1 -9 17 -4 20 7 22 6 12 -7 -7 -8 -9 -19 -5 -23 4
-5 -1 -5 -11 -2 -10 4 -21 7 -23 7 -2 0 -4 7 -4 15 0 8 -5 15 -11 15 -5 0 -7
-4 -4 -10 3 -5 1 -10 -6 -10 -15 0 -4 -13 14 -16 7 -1 19 -5 28 -9 12 -4 21 2
32 24 15 30 15 31 -8 31 -13 0 -27 -5 -31 -11z"/>
<path d="M3468 2993 c6 -2 18 -2 25 0 6 3 1 5 -13 5 -14 0 -19 -2 -12 -5z"/>
<path d="M4138 2983 c-19 -5 -25 -33 -7 -33 5 0 7 5 4 10 -4 7 2 9 17 7 12 -2
17 -2 10 0 -7 3 -10 9 -7 14 4 5 5 8 3 8 -2 -1 -11 -3 -20 -6z"/>
<path d="M4450 2980 c0 -5 12 -10 28 -9 24 0 25 1 7 9 -27 12 -35 12 -35 0z"/>
<path d="M4265 2941 c-11 -5 -27 -6 -35 -4 -13 4 -13 3 -1 -5 8 -6 20 -8 27
-5 7 2 22 0 33 -6 13 -7 22 -8 26 -1 3 5 -2 10 -12 10 -15 0 -16 2 -3 10 13 9
13 10 0 9 -8 0 -24 -4 -35 -8z"/>
<path d="M3625 2929 c-16 -4 -73 -8 -125 -9 -81 -2 -89 -3 -53 -10 23 -5 50
-13 60 -18 19 -10 74 -18 188 -27 39 -3 83 -8 98 -11 16 -3 34 0 44 8 13 10
17 10 20 1 3 -7 15 -13 28 -13 32 0 40 -17 16 -32 -15 -9 -17 -15 -9 -25 14
-17 2 -31 -13 -16 -7 7 -22 8 -41 3 -29 -9 -75 4 -89 23 -4 5 -10 4 -13 -2 -9
-13 -58 -15 -71 -2 -13 12 -108 26 -159 23 -22 -1 -56 3 -75 8 -25 7 -45 6
-67 -2 -32 -11 -84 -4 -84 11 0 6 8 11 18 14 9 2 -5 1 -33 -2 -27 -2 -74 -5
-103 -5 -43 -1 -49 -3 -36 -13 9 -6 22 -9 30 -6 8 3 26 -7 41 -23 23 -25 35
-29 87 -31 34 -2 79 -6 101 -9 37 -5 42 -4 53 20 19 41 92 34 92 -9 0 -13 4
-26 10 -30 5 -3 7 -12 3 -20 -5 -16 2 -18 52 -15 17 0 62 -4 100 -11 39 -7
165 -14 280 -15 116 -1 265 -4 333 -6 117 -3 147 2 100 17 -14 4 -18 8 -11 11
7 3 29 0 49 -6 45 -15 155 -29 149 -19 -3 4 -25 16 -50 28 -25 12 -43 25 -40
30 6 11 0 13 -108 40 -48 13 -93 21 -100 18 -7 -2 5 -7 26 -11 20 -4 37 -12
37 -17 0 -13 -27 -5 -102 27 -64 28 -157 54 -191 54 -17 0 -19 2 -7 10 18 11
23 9 -115 45 -101 26 -253 38 -320 24z m254 -30 c27 -6 56 -18 63 -27 11 -14
10 -15 -7 -8 -63 24 -135 35 -196 31 -38 -2 -71 0 -74 5 -8 14 151 13 214 -1z
m79 -81 c20 -20 14 -27 -12 -15 -13 7 -22 15 -20 19 7 11 18 10 32 -4z m527
-78 c3 -5 -1 -10 -9 -10 -9 0 -16 5 -16 10 0 6 4 10 9 10 6 0 13 -4 16 -10z
m-125 -15 l25 -15 -25 4 c-14 3 -28 5 -32 5 -5 1 -8 6 -8 11 0 13 10 12 40 -5z"/>
<path d="M4340 2924 c0 -15 25 -36 33 -27 11 11 8 25 -4 17 -6 -3 -15 0 -20 7
-5 8 -9 9 -9 3z"/>
<path d="M4540 2916 c0 -2 9 -6 20 -9 11 -3 18 -1 14 4 -5 9 -34 13 -34 5z"/>
<path d="M4590 2896 c0 -2 25 -19 56 -36 36 -21 53 -37 50 -46 -7 -17 6 -18
22 -2 9 9 20 7 46 -7 20 -11 38 -16 41 -13 9 8 -59 48 -82 48 -11 0 -45 14
-76 31 -31 17 -57 28 -57 25z"/>
<path d="M4548 2720 c18 -11 40 -20 50 -19 9 0 -1 9 -23 19 -53 25 -68 25 -27
0z"/>
<path d="M4910 2713 c14 -10 28 -17 32 -16 4 2 20 -2 35 -7 l28 -10 -24 20
c-14 12 -31 18 -42 15 -9 -3 -20 -1 -24 5 -3 5 -11 10 -18 10 -6 0 0 -8 13
-17z"/>
<path d="M4634 2685 c11 -8 26 -15 33 -15 22 0 14 8 -19 19 -30 10 -31 9 -14
-4z"/>
<path d="M3460 2661 c0 -14 48 -22 88 -15 35 7 35 8 12 15 -36 10 -100 10
-100 0z"/>
<path d="M4970 2661 c0 -6 9 -9 19 -8 11 0 17 5 15 9 -7 11 -34 10 -34 -1z"/>
<path d="M3618 2653 c7 -3 16 -2 19 1 4 3 -2 6 -13 5 -11 0 -14 -3 -6 -6z"/>
<path d="M3668 2643 c6 -2 18 -2 25 0 6 3 1 5 -13 5 -14 0 -19 -2 -12 -5z"/>
<path d="M9995 2585 c-5 -2 -22 -6 -37 -9 -21 -5 -29 -14 -34 -41 -3 -19 -11
-35 -16 -35 -6 0 -8 9 -5 19 4 15 -4 11 -30 -14 -42 -41 -72 -53 -84 -34 -7
11 -9 9 -10 -6 0 -11 -3 -15 -5 -8 -6 13 -62 7 -78 -8 -18 -16 -48 -9 -53 11
-8 31 -28 24 -77 -25 -25 -24 -56 -47 -70 -51 -15 -3 -26 -14 -28 -27 -2 -12
-16 -28 -33 -37 -16 -8 -32 -16 -35 -18 -3 -2 4 -11 15 -20 40 -34 57 -61 72
-119 12 -48 25 -77 59 -141 1 -2 22 2 46 9 46 13 88 44 88 65 0 15 46 64 54
57 2 -3 34 12 70 32 48 26 66 42 66 57 0 17 3 18 14 9 11 -9 16 -9 23 1 4 7
17 18 28 24 11 6 21 20 23 32 2 11 20 38 40 60 20 21 45 53 54 70 9 18 24 32
33 32 20 0 45 24 45 43 0 34 -96 85 -135 72z m-310 -275 c16 -30 13 -50 -6
-50 -12 0 -49 61 -43 72 11 17 34 7 49 -22z"/>
<path d="M7381 2291 c-19 -15 -22 -21 -13 -37 10 -17 11 -17 12 -2 0 15 9 17
63 14 76 -4 94 -8 138 -35 39 -24 61 -27 53 -7 -4 11 -65 34 -219 83 -5 1 -21
-6 -34 -16z"/>
<path d="M7330 2273 c0 -4 5 -15 10 -23 8 -13 10 -13 10 2 0 9 -4 20 -10 23
-5 3 -10 3 -10 -2z"/>
<path d="M7860 2270 c-18 -12 -2 -12 25 0 13 6 15 9 5 9 -8 0 -22 -4 -30 -9z"/>
<path d="M7778 2263 c7 -3 16 -2 19 1 4 3 -2 6 -13 5 -11 0 -14 -3 -6 -6z"/>
<path d="M12 2234 c-19 -20 -17 -1214 2 -1214 7 0 18 6 24 13 6 7 25 12 42 11
24 -2 28 1 20 11 -10 13 3 32 25 34 6 1 10 9 11 19 0 9 6 31 12 47 21 51 22
55 8 55 -10 0 -16 18 -20 58 -2 31 -7 66 -9 77 -2 11 3 30 10 43 8 13 15 39
16 58 1 19 4 34 7 34 3 0 6 15 6 33 1 17 11 73 23 122 35 149 37 162 19 145
-22 -22 -38 -56 -38 -79 0 -11 -5 -23 -12 -27 -8 -5 -9 -2 -4 12 4 10 3 15 -1
10 -4 -4 -15 -31 -24 -59 -10 -34 -23 -53 -34 -56 -14 -2 -16 1 -10 15 4 11
21 78 37 149 17 72 33 137 36 145 7 19 12 48 14 81 2 39 -35 189 -47 189 -5 0
-18 -21 -29 -46 -10 -25 -20 -44 -21 -42 -2 2 0 24 4 51 5 26 4 47 -1 47 -4 0
-8 5 -8 11 0 6 -10 23 -23 38 -18 22 -25 25 -35 15z m68 -763 c0 -10 -24 -21
-47 -21 -13 0 -13 3 -3 15 13 16 50 21 50 6z"/>
<path d="M2690 2203 c-8 -3 -33 -13 -55 -23 -155 -70 -192 -89 -208 -107 -17
-19 -17 -22 -2 -37 48 -47 248 29 298 113 26 44 11 69 -33 54z"/>
<path d="M7294 2151 c8 -12 46 -21 46 -11 0 8 -24 20 -41 20 -6 0 -8 -4 -5 -9z"/>
<path d="M8446 2118 c10 -13 26 -29 34 -36 16 -14 15 -14 -37 4 -10 4 -4 -5
12 -20 55 -46 72 -27 34 38 -13 23 -29 36 -42 36 -20 0 -20 0 -1 -22z"/>
<path d="M8365 2100 c11 -5 27 -9 35 -9 9 0 8 4 -5 9 -11 5 -27 9 -35 9 -9 0
-8 -4 5 -9z"/>
<path d="M8720 2100 c0 -5 5 -10 11 -10 5 0 7 5 4 10 -3 6 -8 10 -11 10 -2 0
-4 -4 -4 -10z"/>
<path d="M1966 2031 c-63 -36 -59 -81 13 -153 42 -42 53 -48 91 -48 l42 0 -37
38 c-42 42 -79 115 -72 142 8 30 -6 38 -37 21z"/>
<path d="M8470 1935 c0 -7 9 -15 20 -18 12 -3 20 0 20 8 0 7 -9 15 -20 18 -12
3 -20 0 -20 -8z"/>
<path d="M2222 1868 c-12 -24 -22 -46 -22 -50 0 -13 29 -9 60 7 55 29 63 85
11 85 -21 0 -31 -9 -49 -42z"/>
<path d="M436 1890 c-11 -3 -23 -15 -27 -26 -7 -17 -8 -16 -8 5 -1 20 -3 21
-16 11 -8 -7 -15 -18 -15 -25 0 -7 -7 -18 -15 -25 -8 -7 -12 -16 -9 -21 9 -16
-7 -51 -21 -45 -10 3 -11 -2 -6 -22 4 -15 4 -63 0 -107 -3 -44 -6 -81 -4 -83
1 -1 8 17 15 40 13 46 47 103 37 63 -3 -11 -9 -36 -12 -55 -4 -19 -11 -40 -16
-45 -4 -6 -4 -17 0 -24 11 -17 42 -2 99 49 10 8 32 15 50 16 43 2 50 10 53 64
1 25 9 53 17 63 13 15 13 19 -3 37 -16 18 -16 20 -2 20 10 0 17 7 17 15 0 13
-4 14 -22 4 -13 -7 -28 -19 -35 -28 -11 -14 -12 -13 -13 7 0 12 -4 22 -9 22
-5 0 -12 17 -16 38 -8 50 -16 61 -39 52z"/>
<path d="M9585 1730 c3 -5 8 -10 11 -10 2 0 4 5 4 10 0 6 -5 10 -11 10 -5 0
-7 -4 -4 -10z"/>
<path d="M610 1690 c0 -5 5 -10 11 -10 5 0 7 5 4 10 -3 6 -8 10 -11 10 -2 0
-4 -4 -4 -10z"/>
<path d="M9741 1664 c0 -11 3 -14 6 -6 3 7 2 16 -1 19 -3 4 -6 -2 -5 -13z"/>
<path d="M445 1432 c-16 -11 -37 -53 -30 -60 3 -3 18 8 34 25 16 18 26 34 23
37 -7 8 -15 7 -27 -2z"/>
<path d="M10032 1371 c-7 -21 -12 -54 -13 -72 -1 -60 -25 -164 -37 -162 -7 2
-12 -10 -12 -30 0 -24 3 -28 10 -17 7 11 10 5 11 -25 l1 -40 10 32 c10 31 17
33 67 24 2 -1 -3 -9 -10 -18 -13 -15 -12 -16 9 -11 12 4 20 2 17 -2 -3 -4 28
-8 67 -9 40 0 91 -1 113 -1 77 -2 94 1 100 20 7 23 28 41 52 44 25 4 38 75 34
181 -1 21 -41 34 -41 14 0 -5 -6 -4 -14 3 -9 8 -11 17 -5 24 6 7 -7 10 -43 10
-41 -1 -52 2 -56 16 -6 24 -19 23 -27 -2 -3 -11 -11 -20 -16 -20 -5 0 -9 -10
-9 -22 0 -27 -8 -19 -13 13 -3 15 -11 24 -23 25 -10 1 -32 6 -47 13 -16 6 -32
11 -36 11 -14 0 -34 -29 -36 -53 -1 -12 -3 -25 -4 -29 0 -5 -8 -8 -17 -8 -13
0 -15 8 -11 40 2 22 1 40 -3 40 -4 0 -5 11 -2 25 7 38 -3 30 -16 -14z m25
-138 c-3 -10 -5 -4 -5 12 0 17 2 24 5 18 2 -7 2 -21 0 -30z m39 -61 c-12 -12
-18 8 -10 35 l8 28 4 -28 c2 -16 1 -31 -2 -35z"/>
<path d="M300 1393 c-17 -4 -49 -70 -91 -185 -29 -82 -30 -96 -4 -50 14 23 16
24 12 5 -7 -30 12 -29 41 1 l23 25 -23 3 c-19 4 -16 6 13 12 35 7 37 10 54 74
30 115 30 116 12 109 -9 -3 -17 -3 -19 1 -2 4 -10 6 -18 5z"/>
<path d="M365 1330 c-3 -5 -4 -14 0 -19 3 -5 1 -12 -4 -15 -14 -9 -34 -106
-22 -106 17 1 26 19 26 55 1 33 5 41 22 43 20 3 37 35 25 46 -9 10 -40 7 -47
-4z m31 -27 c-10 -10 -19 5 -10 18 6 11 8 11 12 0 2 -7 1 -15 -2 -18z"/>
<path d="M387 1273 c-11 -11 -8 -20 8 -20 8 0 15 6 15 14 0 14 -12 17 -23 6z"/>
<path d="M375 1231 c-4 -8 -3 -16 3 -20 8 -5 5 -12 -8 -21 -26 -19 -26 -34 0
-18 24 16 29 28 20 52 -5 15 -9 16 -15 7z"/>
<path d="M10545 1210 c3 -5 8 -10 11 -10 2 0 4 5 4 10 0 6 -5 10 -11 10 -5 0
-7 -4 -4 -10z"/>
<path d="M10474 1160 c3 -16 1 -30 -4 -30 -5 0 -7 -7 -3 -16 5 -13 8 -12 24 5
15 16 17 25 9 46 -14 36 -34 32 -26 -5z"/>
</g>
</svg>
