<svg xmlns="http://www.w3.org/2000/svg" version="1.1" xmlns:xlink="http://www.w3.org/1999/xlink" xmlns:svgjs="http://svgjs.dev/svgjs" width="2000" height="934" viewBox="0 0 2000 934"><g transform="matrix(1,0,0,1,-1.2107774562038003,-0.69031635422607)"><svg viewBox="0 0 396 185" data-background-color="#ffffff" preserveAspectRatio="xMidYMid meet" height="934" width="2000" xmlns="http://www.w3.org/2000/svg" xmlns:xlink="http://www.w3.org/1999/xlink"><g id="tight-bounds" transform="matrix(1,0,0,1,0.240263706394785,0.1367328967150172)"><svg viewBox="0 0 395.52 184.7262933221511" height="184.7262933221511" width="395.52"><g><svg viewBox="0 0 395.52 184.7262933221511" height="184.7262933221511" width="395.52"><g transform="matrix(1,0,0,1,0,88.23741000657087)"><svg viewBox="0 0 395.52 96.48888331558024" height="96.48888331558024" width="395.52"><g id="textblocktransform"><svg viewBox="0 0 395.52 96.48888331558024" height="96.48888331558024" width="395.52" id="textblock"><g><svg viewBox="0 0 395.52 96.48888331558024" height="96.48888331558024" width="395.52"><g transform="matrix(1,0,0,1,0,0)"><svg width="395.52" viewBox="-2.4306600000000005 -20.815402383624487 253.83993645908842 61.92540850025248" height="96.48888331558024" data-palette-color="#556970"><path d="M21.015-13.079l0.717-4.438c-0.539-0.436-1.132-0.748-1.778-0.937v0c-1.292-0.379-2.442 0.014-3.45 1.177-1.008 1.164-1.858 2.926-2.549 5.286v0l-1.21 4.127 6.795 1.991c-0.114 0.39-0.284 0.816-0.51 1.278-0.219 0.464-0.45 0.799-0.691 1.006v0l-6.305-1.847-5.334 18.205 4.418 2.347c-0.084 0.642-0.33 1.185-0.737 1.628v0c-0.573-0.203-1.283-0.445-2.131-0.729-0.848-0.283-1.689-0.564-2.525-0.844-0.829-0.278-1.55-0.506-2.164-0.686v0c-0.908-0.266-1.904-0.53-2.988-0.792-1.082-0.268-2.083-0.503-3.004-0.703v0c0.078-0.644 0.275-1.201 0.594-1.67v0c0.62 0.043 1.242 0.076 1.867 0.099 0.625 0.023 1.23-0.001 1.814-0.073v0l5.334-18.205-3.157-0.925c0.062-0.329 0.234-0.762 0.516-1.297 0.276-0.538 0.504-0.867 0.685-0.988v0l2.668 0.782 0.852-2.908c0.967-3.301 2.489-5.686 4.566-7.154 2.081-1.46 4.353-1.83 6.816-1.108v0c1.292 0.379 2.32 0.794 3.084 1.247 0.763 0.453 1.503 1.083 2.218 1.89v0c-0.367 0.872-0.751 1.732-1.152 2.58-0.408 0.846-0.847 1.659-1.319 2.438v0c-0.24-0.035-0.568-0.125-0.984-0.268-0.412-0.135-0.731-0.304-0.956-0.509zM27.901 3.395l-3.458 14.102 4.518 2.148c-0.049 0.647-0.27 1.2-0.664 1.66v0c-0.581-0.177-1.302-0.388-2.161-0.633-0.86-0.245-1.713-0.489-2.56-0.731-0.84-0.24-1.571-0.437-2.193-0.589v0c-0.919-0.225-1.926-0.445-3.02-0.658-1.092-0.22-2.103-0.409-3.032-0.569v0c0.049-0.647 0.222-1.212 0.519-1.695v0c0.661-0.009 1.309-0.005 1.943 0.013 0.642 0.013 1.221-0.037 1.736-0.151v0l4.699-19.162-3.984-1.389c0.063-0.678 0.285-1.231 0.664-1.659v0c1.22 0.121 2.456 0.215 3.71 0.281 1.253 0.067 2.418 0.092 3.493 0.074v0c0.322 0.113 0.58 0.238 0.773 0.375 0.195 0.13 0.433 0.319 0.715 0.567v0l-1.095 4.467 0.036 0.061c1.387-1.259 2.839-2.255 4.357-2.988 1.52-0.739 2.998-0.933 4.436-0.581v0c0.557 0.137 1.098 0.31 1.623 0.522 0.517 0.216 0.997 0.553 1.44 1.012v0c-0.264 1.356-0.632 2.618-1.103 3.786-0.478 1.166-1.039 2.278-1.683 3.335v0c-0.235-0.023-0.596-0.102-1.085-0.235-0.487-0.14-0.848-0.307-1.082-0.502v0l0.525-5.081c-1.146-0.281-2.404-0.147-3.774 0.403-1.37 0.549-2.801 1.822-4.293 3.817zM40.012 10.742v0c0.476-2.583 1.406-4.795 2.789-6.635 1.388-1.832 3.134-3.154 5.235-3.966 2.102-0.812 4.432-0.983 6.989-0.512v0c2.583 0.476 4.705 1.467 6.366 2.974 1.661 1.506 2.81 3.362 3.448 5.567 0.643 2.213 0.726 4.611 0.25 7.195v0c-0.489 2.655-1.429 4.902-2.819 6.74-1.382 1.833-3.114 3.141-5.197 3.923-2.083 0.782-4.416 0.935-6.999 0.459v0c-2.557-0.471-4.676-1.445-6.356-2.921-1.68-1.476-2.842-3.317-3.486-5.523-0.636-2.212-0.71-4.646-0.22-7.301zM59.581 15.071v0c0.41-2.223 0.532-4.281 0.366-6.176-0.158-1.9-0.669-3.489-1.532-4.766-0.864-1.271-2.158-2.065-3.882-2.384v0c-1.757-0.324-3.258-0.051-4.503 0.817-1.238 0.87-2.236 2.144-2.992 3.821-0.757 1.677-1.331 3.578-1.722 5.703v0c-0.354 1.921-0.437 3.767-0.248 5.536 0.19 1.764 0.733 3.25 1.628 4.46 0.888 1.214 2.178 1.978 3.87 2.289v0c1.79 0.33 3.291 0.092 4.504-0.715 1.213-0.807 2.186-1.983 2.918-3.53 0.726-1.547 1.257-3.232 1.593-5.055zM79.295 21.225v0c-0.603-0.069-1.217-0.18-1.844-0.333-0.626-0.159-1.262-0.377-1.908-0.652v0c-0.395 0.458-0.676 0.831-0.844 1.121-0.174 0.289-0.273 0.532-0.296 0.731v0c-0.034 0.298 0.05 0.613 0.254 0.945 0.197 0.325 0.783 0.687 1.757 1.088 0.974 0.401 2.584 0.868 4.831 1.402v0c2.215 0.523 4.049 1.09 5.502 1.7 1.46 0.611 2.52 1.431 3.18 2.46 0.667 1.023 0.901 2.405 0.7 4.147v0c-0.174 1.51-0.693 2.759-1.559 3.747-0.859 0.988-1.948 1.762-3.267 2.321-1.319 0.559-2.737 0.923-4.253 1.091-1.508 0.162-3.018 0.156-4.527-0.018v0c-2.543-0.293-4.578-0.832-6.105-1.619-1.52-0.786-2.599-1.732-3.237-2.839-0.638-1.107-0.889-2.246-0.754-3.419v0c0.14-1.212 0.615-2.372 1.428-3.479 0.806-1.115 2.156-1.936 4.048-2.463v0c-0.994-1.101-1.42-2.271-1.277-3.509v0c0.127-1.106 0.441-1.996 0.942-2.67 0.5-0.667 1.047-1.222 1.641-1.663v0c-1.261-0.823-2.278-1.866-3.052-3.13-0.768-1.256-1.051-2.758-0.85-4.507v0c0.185-1.603 0.658-2.921 1.421-3.953 0.763-1.033 1.703-1.824 2.82-2.373 1.118-0.556 2.303-0.913 3.556-1.07 1.26-0.164 2.477-0.178 3.649-0.043v0c0.801 0.092 1.631 0.258 2.489 0.498 0.852 0.232 1.663 0.561 2.433 0.984v0l7.16-3.343c0.25 0.163 0.467 0.493 0.651 0.991 0.178 0.497 0.303 1.011 0.376 1.544 0.073 0.532 0.057 0.963-0.049 1.293v0c-0.935 0.194-1.97 0.354-3.105 0.477-1.135 0.124-2.276 0.154-3.422 0.09v0c0.999 0.766 1.784 1.759 2.354 2.978 0.571 1.22 0.76 2.664 0.568 4.334v0c-0.17 1.477-0.64 2.705-1.41 3.683-0.778 0.984-1.741 1.749-2.891 2.294-1.15 0.545-2.346 0.908-3.588 1.087-1.242 0.179-2.416 0.205-3.522 0.077zM79.514 19.318v0c1.709 0.197 3.187-0.254 4.434-1.352 1.246-1.091 1.98-2.594 2.2-4.508v0c0.239-2.073-0.128-3.759-1.098-5.058-0.971-1.3-2.311-2.048-4.02-2.245v0c-1.709-0.197-3.184 0.227-4.425 1.272-1.241 1.045-1.981 2.604-2.219 4.677v0c-0.22 1.914 0.152 3.544 1.118 4.89 0.965 1.353 2.302 2.127 4.01 2.324zM79.123 29.359v0c-0.59-0.175-1.34-0.366-2.249-0.571-0.909-0.205-1.821-0.478-2.735-0.818v0c-0.878 0.577-1.573 1.218-2.083 1.924-0.503 0.7-0.829 1.69-0.976 2.968v0c-0.162 1.404 0.297 2.728 1.374 3.973 1.078 1.245 2.756 1.998 5.035 2.261v0c1.642 0.189 3.081 0.083 4.314-0.318 1.234-0.401 2.21-0.984 2.929-1.747 0.713-0.77 1.117-1.573 1.214-2.407v0c0.116-1.007-0.134-1.834-0.751-2.482-0.623-0.649-1.476-1.197-2.559-1.644-1.089-0.448-2.26-0.827-3.513-1.139zM97.863 23.87l0.183 5.38c0.692 0.381 1.393 0.66 2.104 0.835 0.718 0.176 1.532 0.291 2.444 0.345v0c1.378 0.081 2.623-0.149 3.738-0.691 1.114-0.542 1.711-1.485 1.79-2.829v0c0.042-0.705-0.113-1.372-0.463-2.001-0.35-0.628-0.989-1.291-1.916-1.986-0.92-0.702-2.248-1.509-3.985-2.419v0c-1.896-1.027-3.348-2.168-4.355-3.423-1.007-1.262-1.448-2.951-1.324-5.067v0c0.101-1.717 0.611-3.049 1.529-3.997 0.917-0.941 2.071-1.591 3.461-1.949 1.39-0.352 2.84-0.483 4.35-0.394v0c1.318 0.078 2.615 0.281 3.891 0.61 1.283 0.33 2.417 0.741 3.403 1.233v0c-0.01 0.173-0.015 0.36-0.013 0.56 0.008 0.201 0.007 0.388-0.003 0.561v0c-0.121 2.05-0.555 3.964-1.301 5.743v0c-0.135 0.025-0.263 0.045-0.384 0.058-0.121 0.006-0.247 0.005-0.38-0.003v0c-0.506-0.03-1.006-0.16-1.5-0.389v0l-0.487-5.498c-0.431-0.159-0.931-0.299-1.497-0.419-0.567-0.12-1.137-0.197-1.71-0.231v0c-0.772-0.046-1.544 0.019-2.315 0.193-0.772 0.175-1.416 0.507-1.932 0.998-0.517 0.497-0.803 1.215-0.859 2.153v0c-0.038 0.646 0.069 1.263 0.321 1.853 0.252 0.589 0.789 1.219 1.612 1.888 0.822 0.676 2.066 1.484 3.733 2.424v0c2.613 1.437 4.433 2.786 5.461 4.049 1.021 1.262 1.478 2.785 1.373 4.569v0c-0.101 1.717-0.637 3.088-1.606 4.113-0.975 1.018-2.21 1.736-3.703 2.155-1.494 0.419-3.066 0.58-4.717 0.483v0c-1.584-0.094-3.047-0.307-4.39-0.64-1.349-0.334-2.691-0.96-4.026-1.881v0l0.051-0.859c0.054-0.912 0.169-1.843 0.345-2.794 0.176-0.951 0.48-1.972 0.913-3.062v0c0.208-0.021 0.379-0.028 0.512-0.019v0c0.606 0.036 1.156 0.152 1.652 0.348zM135.638-5.442l0.762 23.668 1.309-0.042 7.806-9.266-3.712-0.641c-0.038-0.132-0.06-0.315-0.068-0.548v0c-0.013-0.406 0.074-0.816 0.261-1.229v0c0.907 0.004 1.759 0.03 2.553 0.078 0.795 0.041 1.666 0.046 2.612 0.016v0c0.979-0.032 1.778-0.091 2.396-0.177 0.624-0.093 1.405-0.172 2.344-0.236v0c0.038 0.139 0.059 0.265 0.062 0.378 0.004 0.12 0.008 0.247 0.012 0.38v0c0.01 0.307-0.029 0.645-0.118 1.015v0c-0.538 0.057-1.174 0.205-1.906 0.441-0.733 0.244-1.346 0.56-1.841 0.95v0l-6.639 7.597 9.76 12.293c0.309 0.264 0.795 0.468 1.461 0.613 0.665 0.145 1.318 0.241 1.96 0.287v0c0.003 0.1 0.013 0.193 0.029 0.279 0.023 0.086 0.036 0.179 0.039 0.279v0c0.013 0.406-0.077 0.813-0.271 1.22v0c-0.975-0.035-1.963-0.054-2.963-0.055-0.994-0.001-2.014 0.015-3.06 0.048v0c-0.74 0.024-1.489 0.065-2.247 0.123-0.759 0.058-1.54 0.133-2.344 0.225v0c-0.038-0.132-0.058-0.258-0.063-0.378-0.004-0.113-0.007-0.223-0.01-0.33v0c-0.012-0.366 0.027-0.721 0.116-1.064v0l2.474-0.23-7.558-10.082-2.329 0.075 0.304 9.455 3.421 0.9c0.003 0.1 0.013 0.193 0.029 0.28 0.023 0.086 0.036 0.179 0.039 0.279v0c0.013 0.406-0.074 0.813-0.261 1.219v0c-0.915-0.037-1.853-0.064-2.814-0.08-0.961-0.022-1.915-0.018-2.861 0.012v0c-0.946 0.03-1.975 0.09-3.086 0.179-1.105 0.082-2.129 0.172-3.073 0.269v0c-0.038-0.132-0.058-0.258-0.062-0.378-0.004-0.113-0.007-0.223-0.011-0.33v0c-0.012-0.366 0.027-0.721 0.116-1.064v0c0.634-0.187 1.262-0.357 1.884-0.511 0.615-0.16 1.156-0.364 1.622-0.612v0l-1.035-32.154-4.211-0.274c-0.037-0.099-0.056-0.198-0.059-0.299-0.003-0.1-0.006-0.183-0.009-0.25v0c-0.013-0.406 0.077-0.816 0.271-1.229v0c1.207-0.206 2.42-0.445 3.639-0.717 1.225-0.28 2.356-0.569 3.394-0.87v0c0.334 0.023 0.656 0.069 0.965 0.139 0.303 0.077 0.627 0.193 0.971 0.349zM162.953 5.393l0.192 3.437 0.055 0.045c1.451-1.773 3.002-3.047 4.653-3.822 1.651-0.775 3.114-1.226 4.387-1.353v0c2.182-0.218 3.966 0.23 5.351 1.345 1.384 1.115 2.196 2.862 2.433 5.244v0l1.665 16.154 3.623 0.653c0.163 0.627 0.136 1.223-0.082 1.787v0c-0.909 0.024-1.87 0.063-2.883 0.118-1.014 0.048-1.988 0.118-2.924 0.211v0c-0.942 0.094-1.931 0.22-2.967 0.377-1.037 0.151-2.02 0.306-2.948 0.466v0c-0.163-0.627-0.189-1.217-0.077-1.771v0c0.657-0.2 1.236-0.408 1.737-0.626 0.507-0.225 1.002-0.462 1.486-0.711v0l-1.388-13.891c-0.228-2.282-0.738-3.826-1.528-4.631-0.797-0.798-1.964-1.12-3.504-0.966v0c-1.247 0.125-2.434 0.488-3.559 1.089-1.125 0.608-2.087 1.475-2.886 2.6v0l1.691 16.916 3.474 0.667c0.163 0.627 0.136 1.223-0.083 1.788v0c-0.909 0.024-1.843 0.06-2.803 0.109-0.967 0.043-1.918 0.111-2.854 0.205v0c-0.942 0.094-1.964 0.223-3.066 0.387-1.103 0.157-2.119 0.316-3.048 0.475v0c-0.17-0.626-0.195-1.217-0.077-1.771v0c0.587-0.226 1.175-0.446 1.763-0.659 0.588-0.213 1.141-0.446 1.659-0.698v0l-1.962-19.632-4.219 0.02c-0.166-0.66-0.142-1.255 0.072-1.787v0c1.22-0.33 2.409-0.67 3.567-1.019 1.151-0.35 2.248-0.697 3.292-1.043v0c0.574-0.024 1.16 0.072 1.758 0.287zM186.556 15.613v0c-0.439-2.59-0.324-4.986 0.344-7.189 0.676-2.197 1.862-4.038 3.558-5.521 1.696-1.484 3.826-2.443 6.389-2.877v0c2.59-0.439 4.923-0.235 7.001 0.609 2.077 0.845 3.793 2.194 5.148 4.047 1.363 1.859 2.263 4.083 2.702 6.673v0c0.451 2.662 0.339 5.095-0.336 7.298-0.669 2.196-1.848 4.018-3.537 5.468-1.688 1.449-3.828 2.393-6.417 2.831v0c-2.563 0.434-4.888 0.246-6.972-0.564-2.085-0.81-3.808-2.141-5.17-3.993-1.356-1.86-2.26-4.121-2.71-6.782zM206.423 12.968v0c-0.377-2.228-0.969-4.204-1.775-5.927-0.8-1.731-1.825-3.048-3.073-3.952-1.247-0.898-2.735-1.2-4.464-0.907v0c-1.762 0.298-3.078 1.069-3.949 2.312-0.865 1.242-1.365 2.78-1.501 4.615-0.135 1.835-0.023 3.817 0.338 5.947v0c0.326 1.926 0.882 3.688 1.666 5.286 0.783 1.592 1.803 2.802 3.059 3.63 1.251 0.836 2.724 1.111 4.42 0.824v0c1.794-0.304 3.123-1.043 3.986-2.217 0.863-1.174 1.373-2.613 1.53-4.316 0.151-1.702 0.072-3.467-0.237-5.295zM244.162 17.401l-10.809-16.048-1.595 18.578c-0.198 0.19-0.529 0.425-0.993 0.706-0.464 0.281-0.844 0.46-1.141 0.537v0l-15.143-20.967-4.022 0.004c-0.26-0.593-0.329-1.185-0.208-1.776v0c0.892-0.2 1.892-0.408 3-0.623 1.113-0.224 2.124-0.455 3.033-0.695v0c0.948-0.249 1.974-0.554 3.079-0.914 1.11-0.368 2.118-0.688 3.025-0.961v0c0.261 0.6 0.376 1.18 0.344 1.74v0c-0.551 0.29-1.108 0.584-1.67 0.884-0.567 0.308-1.049 0.638-1.446 0.99v0l6.316 9.268c0.679 1.007 1.357 2.066 2.035 3.177 0.678 1.111 1.292 2.187 1.842 3.228v0l0.145-0.038c-0.004-1.219 0.011-2.46 0.044-3.724 0.033-1.263 0.097-2.449 0.192-3.556v0l0.932-9.19-1.226-1.869-4.031 0.006c-0.26-0.593-0.326-1.186-0.199-1.778v0c0.885-0.198 1.86-0.4 2.923-0.604 1.061-0.21 2.047-0.435 2.956-0.674v0c0.948-0.249 1.887-0.531 2.817-0.845 0.929-0.32 1.844-0.616 2.745-0.887v0c0.261 0.6 0.379 1.179 0.353 1.737v0c-0.551 0.29-1.119 0.581-1.704 0.872-0.585 0.292-1.056 0.626-1.411 1.002v0l6.082 9.795c0.68 1.117 1.347 2.2 2.002 3.248 0.661 1.046 1.291 2.118 1.89 3.214v0l0.155-0.04c-0.034-1.177-0.031-2.356 0.01-3.539 0.036-1.174 0.088-2.364 0.158-3.568v0l0.563-11.967-4.021 0.003c-0.266-0.592-0.336-1.184-0.209-1.775v0c0.885-0.198 1.705-0.359 2.459-0.481 0.752-0.129 1.586-0.314 2.501-0.555v0c0.941-0.248 1.803-0.509 2.585-0.784 0.781-0.281 1.625-0.558 2.532-0.831v0c0.261 0.6 0.379 1.179 0.354 1.737v0c-0.583 0.298-1.161 0.592-1.733 0.88-0.566 0.287-1.059 0.627-1.479 1.02v0l-1.862 24.758c-0.192 0.188-0.528 0.432-1.008 0.731-0.478 0.305-0.865 0.497-1.162 0.574z" opacity="1" transform="matrix(1,0,0,1,0,0)" fill="#556970" class="wordmark-text-0" data-fill-palette-color="primary" id="text-0"></path></svg></g></svg></g></svg></g></svg></g><g transform="matrix(1,0,0,1,75.54432,0)"><svg viewBox="0 0 244.43135999999998 82.11700797785409" height="82.11700797785409" width="244.43135999999998"><g><svg xmlns="http://www.w3.org/2000/svg" xmlns:xlink="http://www.w3.org/1999/xlink" version="1.1" x="0" y="0" viewBox="2.465 28.054 97.535 32.766999999999996" enable-background="new 0 0 100 100" xml:space="preserve" height="82.11700797785409" width="244.43135999999998" class="icon-icon-0" data-fill-palette-color="accent" id="icon-0"><polygon fill="#aba944" points="22.193,45.644 19.346,56.681 13.008,56.681 2.465,60.821 21.123,60.821 36.553,45.644 " data-fill-palette-color="accent"></polygon><polygon fill="#aba944" points="89.457,56.681 83.119,56.681 80.271,45.644 65.914,45.644 81.342,60.821 100,60.821 " data-fill-palette-color="accent"></polygon><path fill="#aba944" d="M67.904 36.273C67.904 31.734 64.224 28.054 59.685 28.054S51.464 31.85 51.464 36.388C51.464 38.271 52.107 39.432 53.169 41.502H49.316C50.38 39.432 51.021 38.271 51.021 36.388 51.021 31.849 47.342 28.112 42.803 28.112S34.584 31.763 34.584 36.301C34.584 39.778 36.545 42.729 39.594 43.93L26.742 56.376V58.751H75.725V56.376L63.01 43.718C65.812 42.407 67.904 39.57 67.904 36.273M59.686 30.061A6.213 6.213 0 0 1 65.899 36.275 6.213 6.213 0 0 1 59.686 42.49 6.215 6.215 0 1 1 59.686 30.061M36.59 36.273A6.21 6.21 0 0 1 42.803 30.059 6.214 6.214 0 1 1 36.59 36.273M61.258 56.681C61.258 51.163 56.686 46.487 51.063 46.487S40.867 51.164 40.867 56.681H39.978C39.978 50.472 44.95 45.598 51.061 45.598S62.145 50.472 62.145 56.681z" data-fill-palette-color="accent"></path><path fill="#aba944" d="M59.869 36.111C59.869 37.257 60.799 38.173 61.943 38.173A2.06 2.06 0 0 0 64.017 36.116 0.5 0.5 0 0 0 64.001 35.984H64.903C64.903 33.224 62.567 30.764 59.684 30.764 56.799 30.764 54.463 33.224 54.463 35.984H59.881S59.869 36.061 59.869 36.111" data-fill-palette-color="accent"></path><path fill="#aba944" d="M42.988 36.111C42.988 37.257 43.917 38.173 45.062 38.173S47.135 37.262 47.135 36.116A1 1 0 0 0 47.121 35.984H48.023C48.023 33.224 45.685 30.764 42.802 30.764S37.583 33.224 37.583 35.984H43.001A1 1 0 0 0 42.988 36.111" data-fill-palette-color="accent"></path></svg></g></svg></g><g></g></svg></g><defs></defs></svg><rect width="395.52" height="184.7262933221511" fill="none" stroke="none" visibility="hidden"></rect></g></svg></g></svg>